<svg clip-rule="evenodd" fill-rule="evenodd" height="24" stroke-linecap="round" stroke-linejoin="round" width="24" xmlns="http://www.w3.org/2000/svg"><path d="m11.5 16.5h-6c-1.097 0-2-.903-2-2v-9c0-1.097.903-2 2-2h9c1.097 0 2 .903 2 2v10" fill="#16a085" fill-rule="nonzero"/><g stroke="#000" stroke-width="2"><path d="m6.5 16.5h-1c-1.097 0-2-.903-2-2v-9c0-1.097.903-2 2-2h9c1.097 0 2 .903 2 2v1" fill="#16a085" fill-rule="nonzero"/><path d="m20.5 9.5v9c0 1.104-.896 2-2 2h-9c-1.104 0-2-.896-2-2v-9c0-1.104.896-2 2-2h9c1.104 0 2 .896 2 2z" fill="#0cddb4"/></g></svg>