<?xml version="1.0" encoding="UTF-8" standalone="no"?>
<!DOCTYPE svg PUBLIC "-//W3C//DTD SVG 1.1//EN" "http://www.w3.org/Graphics/SVG/1.1/DTD/svg11.dtd">
<svg width="100%" height="100%" viewBox="0 0 24 24" version="1.1" xmlns="http://www.w3.org/2000/svg" xmlns:xlink="http://www.w3.org/1999/xlink" xml:space="preserve" xmlns:serif="http://www.serif.com/" style="fill-rule:evenodd;clip-rule:evenodd;stroke-linecap:round;stroke-linejoin:round;">
    <path d="M21,13L21,20C21,21.104 20.104,22 19,22L5,22C3.896,22 3,21.104 3,20L3,13C3,11.896 3.896,11 5,11L19,11C20.104,11 21,11.896 21,13Z" style="fill:rgb(253,203,110);stroke:white;stroke-width:4px;"/>
    <path d="M8,11C8,11.552 7.552,12 7,12C6.448,12 6,11.552 6,11L6,7C6,3.708 8.708,1 12,1C15.292,1 18,3.708 18,7L18,11C18,11.552 17.552,12 17,12C16.448,12 16,11.552 16,11L16,7C16,4.806 14.194,3 12,3C9.806,3 8,4.806 8,7L8,11Z" style="fill:none;stroke:white;stroke-width:2px;stroke-linecap:butt;stroke-miterlimit:2;"/>
    <path d="M21,13L21,20C21,21.104 20.104,22 19,22L5,22C3.896,22 3,21.104 3,20L3,13C3,11.896 3.896,11 5,11L19,11C20.104,11 21,11.896 21,13Z" style="fill:rgb(253,203,110);stroke:black;stroke-width:2px;"/>
    <path d="M7,11L7,7C7,4.257 9.257,2 12,2C14.743,2 17,4.257 17,7L17,11" style="fill:none;fill-rule:nonzero;stroke:black;stroke-width:2px;"/>
</svg>
