<svg clip-rule="evenodd" fill-rule="evenodd" stroke-linecap="round" stroke-linejoin="round" viewBox="0 0 550 550" xmlns="http://www.w3.org/2000/svg"><g transform="matrix(1.09135 0 0 1.09135 -4.38462 -4.38462)"><g fill="none"><path d="m179.43 143.52c-2.001-5.019-3.16-10.334-3.43-15.73.115-43.728 36.062-79.675 79.79-79.79h.42c43.728.115 79.675 36.062 79.79 79.79-.193 4.913-1.249 9.753-3.12 14.3" stroke="#fff" stroke-width="73.3"/><path d="m256 448c-70.4 0-128-57.6-128-128v-96.07c0-65.07 57.6-88 128-88s128 17.6 128 88v96.07c0 70.4-57.6 128-128 128" stroke="#fff" stroke-width="73.3"/><path d="m370 378c28.89 23.52 46 46.07 46 86m-274-86c-28.89 23.52-46 46.06-46 86m288-256c28.89-23.52 32-36.07 32-76m-288 74c-28.89-23.52-32-34.06-32-74m368 156.13h-80m-256 0h-80m208-63.13v223" stroke="#fff" stroke-width="73.3"/></g><path d="m179.43 143.52c-2.001-5.019-3.16-10.334-3.43-15.73.115-43.728 36.062-79.675 79.79-79.79h.42c43.728.115 79.675 36.062 79.79 79.79-.193 4.913-1.249 9.753-3.12 14.3" fill="#7f8c8d" fill-rule="nonzero" stroke="#000" stroke-width="32"/><path d="m256 448c-70.4 0-128-57.6-128-128v-96.07c0-65.07 57.6-88 128-88s128 17.6 128 88v96.07c0 70.4-57.6 128-128 128" fill="#e74c3c" fill-rule="nonzero" stroke="#000" stroke-width="32"/><path d="m370 378c28.89 23.52 46 46.07 46 86m-274-86c-28.89 23.52-46 46.06-46 86m288-256c28.89-23.52 32-36.07 32-76m-288 74c-28.89-23.52-32-34.06-32-74m368 156.13h-80m-256 0h-80m208-63.13v223" fill="none" stroke="#000" stroke-width="32"/></g></svg>