<svg clip-rule="evenodd" fill-rule="evenodd" stroke-linecap="round" stroke-linejoin="round" viewBox="0 0 24 24" xmlns="http://www.w3.org/2000/svg"><path d="m18 13-5 5-7.5-1.5-3.5-14.5 14.5 3.5zm-7-4c-1.104 0-2 .896-2 2s.896 2 2 2 2-.896 2-2-.896-2-2-2z" fill="#feca57" stroke="#fff" stroke-width="4"/><path d="m12 19 7-7 3 3-7 7z" fill="#bdc3c7" fill-rule="nonzero" stroke="#fff" stroke-width="4"/><g stroke="#000" stroke-width="2"><path d="m18 13-5 5-7.5-1.5-3.5-14.5 14.5 3.5zm-7-4c-1.104 0-2 .896-2 2s.896 2 2 2 2-.896 2-2-.896-2-2-2z" fill="#feca57"/><path d="m2 2 7.586 7.586" fill="none"/><path d="m12 19 7-7 3 3-7 7z" fill="#bdc3c7" fill-rule="nonzero"/></g></svg>