<?xml version="1.0" encoding="UTF-8" standalone="no"?>
<!DOCTYPE svg PUBLIC "-//W3C//DTD SVG 1.1//EN" "http://www.w3.org/Graphics/SVG/1.1/DTD/svg11.dtd">
<svg width="100%" height="100%" viewBox="0 0 512 512" version="1.1" xmlns="http://www.w3.org/2000/svg" xmlns:xlink="http://www.w3.org/1999/xlink" xml:space="preserve" xmlns:serif="http://www.serif.com/" style="fill-rule:evenodd;clip-rule:evenodd;stroke-linecap:round;stroke-linejoin:round;">
    <g transform="matrix(1.09135,0,0,1.09135,-23.3846,-23.3846)">
        <path d="M179.43,143.52C177.429,138.501 176.27,133.186 176,127.79C176.115,84.062 212.062,48.115 255.79,48L256.21,48C299.938,48.115 335.885,84.062 336,127.79C335.807,132.703 334.751,137.543 332.88,142.09" style="fill:rgb(127,140,141);fill-rule:nonzero;stroke:black;stroke-width:32px;"/>
    </g>
    <g transform="matrix(1.09135,0,0,1.09135,-23.3846,-23.3846)">
        <path d="M256,448C185.6,448 128,390.4 128,320L128,223.93C128,158.86 185.6,135.93 256,135.93C326.4,135.93 384,153.53 384,223.93L384,320C384,390.4 326.4,448 256,448" style="fill:rgb(231,76,60);fill-rule:nonzero;stroke:black;stroke-width:32px;"/>
    </g>
    <g transform="matrix(1.09135,0,0,1.09135,-23.3846,-23.3846)">
        <path d="M370,378C398.89,401.52 416,424.07 416,464M142,378C113.11,401.52 96,424.06 96,464M384,208C412.89,184.48 416,171.93 416,132M128,206C99.11,182.48 96,171.94 96,132M464,288.13L384,288.13M128,288.13L48,288.13M256,225L256,448" style="fill:none;fill-rule:nonzero;stroke:black;stroke-width:32px;"/>
    </g>
</svg>
