<svg clip-rule="evenodd" fill-rule="evenodd" stroke-linecap="round" stroke-linejoin="round" stroke-miterlimit="1.5" viewBox="0 0 24 24" xmlns="http://www.w3.org/2000/svg"><g stroke="#000" stroke-width=".86" transform="matrix(1.10005 0 0 1.22823 -1.19679 -2.85458)"><path d="m3 16.089-.833 1.325s1.471.17 3.833-.731" fill="#a5291c"/><path d="m8.248 11.869s-5.442 4.147-5.677 4.36c-.234.212-.617.631-.604.885.014.253.105.38.309.252.204-.127.284-.638 1.151-.6.868.039 1.612.377 2.647.94 1.036.562 3.228 2.831 5.533 2.584 2.304-.248 6.764-3.916 7.393-6.29" fill="#c0392b"/><path d="m6.623 13.124s2.046-.404 6.219 1.286c4.172 1.691 4.725 1.586 5.945 1.226s2.774-.643 2.995-1.141.243-3.678.014-4.954-1.232-3.529-3.842-4.251c-2.611-.722-5.533-.946-8.108.337s-3.186 6.975-3.223 7.497z" fill="#a5291c"/></g></svg>