<svg clip-rule="evenodd" fill-rule="evenodd" stroke-linecap="round" stroke-linejoin="round" viewBox="0 0 26 24" xmlns="http://www.w3.org/2000/svg"><g fill="#ed4c67" fill-rule="nonzero" transform="translate(1)"><path d="m20.84 4.61c-1.031-1.032-2.431-1.612-3.89-1.612s-2.859.58-3.89 1.612l-1.06 1.06-1.06-1.06c-1.031-1.031-2.432-1.611-3.89-1.611-3.018 0-5.501 2.483-5.501 5.501 0 1.458.58 2.859 1.611 3.89l8.84 8.84 8.84-8.84c1.032-1.031 1.612-2.431 1.612-3.89s-.58-2.859-1.612-3.89z" stroke="#fff" stroke-width="4"/><path d="m20.84 4.61c-1.031-1.032-2.431-1.612-3.89-1.612s-2.859.58-3.89 1.612l-1.06 1.06-1.06-1.06c-1.031-1.031-2.432-1.611-3.89-1.611-3.018 0-5.501 2.483-5.501 5.501 0 1.458.58 2.859 1.611 3.89l8.84 8.84 8.84-8.84c1.032-1.031 1.612-2.431 1.612-3.89s-.58-2.859-1.612-3.89z" stroke="#000" stroke-width="2"/></g></svg>