<svg clip-rule="evenodd" fill-rule="evenodd" stroke-linecap="round" stroke-linejoin="round" stroke-miterlimit="1.5" viewBox="0 0 24 26" xmlns="http://www.w3.org/2000/svg"><path d="m12 22.59c4.014 0 9.436-2.447 7.298-11.246-1.574-6.477-4.44-10.038-7.298-10.038s-5.724 3.561-7.298 10.038c-2.138 8.799 3.284 11.246 7.298 11.246" fill="#c7ecee" stroke="#fff" stroke-width="2.81" transform="matrix(1.06831 0 0 1.06831 -.819776 .183779)"/><g stroke="#000"><path d="m12 22.59c4.014 0 9.436-2.447 7.298-11.246-1.574-6.477-4.44-10.038-7.298-10.038s-5.724 3.561-7.298 10.038c-2.138 8.799 3.284 11.246 7.298 11.246" fill="#c7ecee" stroke-width=".94" transform="matrix(1.06831 0 0 1.06831 -.819776 .183779)"/><path d="m12 23.483c4.014-.202 9.003-3.322 6.865-12.121-1.574-6.476-4.007-10.467-6.865-10.467s-5.31 3.964-6.884 10.44c-2.139 8.799 2.87 12.148 6.884 12.148z" fill="#dcdde1" stroke-width=".73" transform="matrix(.827402 0 0 .827402 2.07118 3.06219)"/><circle cx="11.999996" cy="15.135970108" fill="#dcdde1" r="2.852291034" stroke-width="1.49705883"/></g></svg>