<?xml version="1.0" encoding="UTF-8" standalone="no"?>
<!DOCTYPE svg PUBLIC "-//W3C//DTD SVG 1.1//EN" "http://www.w3.org/Graphics/SVG/1.1/DTD/svg11.dtd">
<svg width="100%" height="100%" viewBox="0 0 28 28" version="1.1" xmlns="http://www.w3.org/2000/svg" xmlns:xlink="http://www.w3.org/1999/xlink" xml:space="preserve" xmlns:serif="http://www.serif.com/" style="fill-rule:evenodd;clip-rule:evenodd;stroke-linecap:round;stroke-linejoin:round;">
    <g transform="matrix(1.04167,0,0,1.04167,-1.625,-1.625)">
        <circle cx="15" cy="15" r="12" style="fill:white;"/>
    </g>
    <g transform="matrix(1,0,0,1,2,2)">
        <circle cx="12" cy="12" r="10" style="fill:rgb(52,152,219);stroke:black;stroke-width:2px;"/>
    </g>
    <g transform="matrix(1,0,0,1,2,2)">
        <path d="M12,2C14.501,4.738 15.923,8.293 16,12C15.923,15.707 14.501,19.262 12,22C9.499,19.262 8.077,15.707 8,12C8.077,8.293 9.499,4.738 12,2Z" style="fill:rgb(52,219,121);fill-rule:nonzero;stroke:black;stroke-width:2px;"/>
    </g>
    <g transform="matrix(1,0,0,1,2,2)">
        <path d="M2,12L22,12" style="fill:none;fill-rule:nonzero;stroke:black;stroke-width:2px;"/>
    </g>
</svg>
