<?xml version="1.0" encoding="UTF-8" standalone="no"?>
<!DOCTYPE svg PUBLIC "-//W3C//DTD SVG 1.1//EN" "http://www.w3.org/Graphics/SVG/1.1/DTD/svg11.dtd">
<svg width="100%" height="100%" viewBox="0 0 409 1232" version="1.1" xmlns="http://www.w3.org/2000/svg" xmlns:xlink="http://www.w3.org/1999/xlink" xml:space="preserve" xmlns:serif="http://www.serif.com/" style="fill-rule:evenodd;clip-rule:evenodd;stroke-linejoin:round;stroke-miterlimit:2;">
    <g transform="matrix(1,0,0,1,-5.76995,-206.708)">
        <g transform="matrix(1.48168,0,0,1.51168,700.007,-214.254)">
            <g transform="matrix(0.674908,0,0,0.579961,-426.365,332.91)">
                <path d="M208.307,935.022C253.012,962.23 283.465,1015.97 283.465,1077.75C283.465,1166.98 219.956,1239.41 141.732,1239.41C63.508,1239.41 0,1166.98 0,1077.75C0,1015.97 30.453,962.23 75.157,935.022L121.973,-1.285C122.57,-13.234 131.239,-22.575 141.732,-22.575C152.225,-22.575 160.894,-13.234 161.492,-1.285L208.307,935.022Z" style="fill:white;"/>
                <path d="M268.934,895.534C315.876,938.222 345.965,1004.01 345.965,1077.75C345.965,1206.32 254.451,1310.7 141.732,1310.7C29.013,1310.7 -62.5,1206.32 -62.5,1077.75C-62.5,1004.01 -32.411,938.222 14.53,895.535L59.574,-5.344L67.346,-40.153L85.224,-68.235L110.822,-86.995L141.732,-93.863L172.642,-86.995L198.24,-68.235L216.119,-40.153L223.89,-5.344L268.934,895.534ZM208.307,935.022L161.492,-1.285C160.894,-13.234 152.225,-22.575 141.732,-22.575C131.239,-22.575 122.57,-13.234 121.973,-1.285L75.157,935.022C30.453,962.23 0,1015.97 0,1077.75C0,1166.98 63.508,1239.41 141.732,1239.41C219.956,1239.41 283.465,1166.98 283.465,1077.75C283.465,1015.97 253.012,962.23 208.307,935.022Z"/>
            </g>
        </g>
    </g>
</svg>
