<svg clip-rule="evenodd" fill-rule="evenodd" stroke-linecap="round" stroke-linejoin="round" viewBox="0 0 24 24" xmlns="http://www.w3.org/2000/svg"><path d="m5 15h-1c-1.097 0-2-.903-2-2v-9c0-1.097.903-2 2-2h9c1.097 0 2 .903 2 2v1" fill="none" stroke="#fff" stroke-width="4" transform="translate(1.5 1.5)"/><path d="m22 11v9c0 1.104-.896 2-2 2h-9c-1.104 0-2-.896-2-2v-9c0-1.104.896-2 2-2h9c1.104 0 2 .896 2 2z" fill="none" stroke="#fff" stroke-width="4" transform="translate(-1.5 -1.5)"/><path d="m10 15h-6c-1.097 0-2-.903-2-2v-9c0-1.097.903-2 2-2h9c1.097 0 2 .903 2 2v10" fill="#16a085" fill-rule="nonzero" transform="translate(1.5 1.5)"/><g stroke="#000" stroke-width="2"><path d="m5 15h-1c-1.097 0-2-.903-2-2v-9c0-1.097.903-2 2-2h9c1.097 0 2 .903 2 2v1" fill="#16a085" fill-rule="nonzero" transform="translate(1.5 1.5)"/><path d="m22 11v9c0 1.104-.896 2-2 2h-9c-1.104 0-2-.896-2-2v-9c0-1.104.896-2 2-2h9c1.104 0 2 .896 2 2z" fill="#0cddb4" transform="translate(-1.5 -1.5)"/></g></svg>