<?xml version="1.0" encoding="UTF-8" standalone="no"?><!DOCTYPE svg PUBLIC "-//W3C//DTD SVG 1.1//EN" "http://www.w3.org/Graphics/SVG/1.1/DTD/svg11.dtd"><svg width="100%" height="100%" viewBox="0 0 24 24" version="1.1" xmlns="http://www.w3.org/2000/svg" xmlns:xlink="http://www.w3.org/1999/xlink" xml:space="preserve" xmlns:serif="http://www.serif.com/" style="fill-rule:evenodd;clip-rule:evenodd;stroke-linecap:round;stroke-linejoin:round;"><path d="M6.6,17.4l-1.8,-0c-0.987,-0 -1.8,-0.813 -1.8,-1.8l-0,-4.5c-0,-0.987 0.813,-1.8 1.8,-1.8l1.8,-0l-0,-6.3l10.8,-0l-0,6.3l1.8,-0c0.987,-0 1.8,0.813 1.8,1.8l-0,4.5c-0,0.987 -0.813,1.8 -1.8,1.8l-1.8,-0l-0,3.6l-10.8,-0l-0,-3.6Z" style="fill:#fff;stroke:#fff;stroke-width:4px;"/><g><path d="M6.6,9.3l-0,-6.3l10.8,-0l-0,6.3" style="fill:#fff;fill-rule:nonzero;stroke:#000;stroke-width:1.8px;"/><path d="M6.6,17.4l-1.8,-0c-0.987,-0 -1.8,-0.813 -1.8,-1.8l-0,-4.5c-0,-0.987 0.813,-1.8 1.8,-1.8l14.4,-0c0.987,-0 1.8,0.813 1.8,1.8l-0,4.5c-0,0.987 -0.813,1.8 -1.8,1.8l-1.8,-0" style="fill:#ff4757;fill-rule:nonzero;stroke:#000;stroke-width:1.8px;"/><rect x="6.6" y="13.8" width="10.8" height="7.2" style="fill:#fff;stroke:#000;stroke-width:1.8px;"/></g></svg>