<?xml version="1.0" encoding="UTF-8" standalone="no"?><!DOCTYPE svg PUBLIC "-//W3C//DTD SVG 1.1//EN" "http://www.w3.org/Graphics/SVG/1.1/DTD/svg11.dtd"><svg width="100%" height="100%" viewBox="0 0 48 48" version="1.1" xmlns="http://www.w3.org/2000/svg" xmlns:xlink="http://www.w3.org/1999/xlink" xml:space="preserve" xmlns:serif="http://www.serif.com/" style="fill-rule:evenodd;clip-rule:evenodd;stroke-linecap:square;stroke-linejoin:round;stroke-miterlimit:2;"><path d="M28.875,4c3.319,0 6.065,2.699 6.122,6.018c3.918,0.26 7.002,3.555 7.003,7.482c0.001,2.177 -0.948,4.249 -2.597,5.67c2.789,1.244 4.594,4.025 4.594,7.078c-0,3.905 -2.951,7.23 -6.828,7.695l-0.375,1.13c-0.979,2.935 -3.743,4.928 -6.837,4.928c-2.382,-0 -4.616,-1.182 -5.957,-3.151c-1.341,1.969 -3.575,3.151 -5.957,3.151c-3.094,-0 -5.858,-1.993 -6.837,-4.928l-0.375,-1.13c-3.877,-0.464 -6.829,-3.789 -6.829,-7.694c0,-3.054 1.806,-5.835 4.595,-7.078c-1.649,-1.421 -2.598,-3.494 -2.597,-5.671c0.001,-3.927 3.085,-7.222 7.003,-7.482c0.056,-3.319 2.802,-6.019 6.122,-6.019c1.912,-0 3.718,0.896 4.875,2.418c1.157,-1.522 2.963,-2.418 4.875,-2.417" style="fill:#f78fb3;fill-rule:nonzero;stroke:#fff;stroke-width:4px;"/><circle cx="17" cy="31" r="2" style="fill:#fff;"/><circle cx="31.909" cy="24.054" r="2" style="fill:#fff;"/><circle cx="16.926" cy="17.57" r="2" style="fill:#fff;"/><path d="M28.875,4c3.319,0 6.065,2.699 6.122,6.018c3.918,0.26 7.002,3.555 7.003,7.482c0.001,2.177 -0.948,4.249 -2.597,5.67c2.789,1.244 4.594,4.025 4.594,7.078c-0,3.905 -2.951,7.23 -6.828,7.695l-0.375,1.13c-0.979,2.935 -3.743,4.928 -6.837,4.928c-2.382,-0 -4.616,-1.182 -5.957,-3.151c-1.341,1.969 -3.575,3.151 -5.957,3.151c-3.094,-0 -5.858,-1.993 -6.837,-4.928l-0.375,-1.13c-3.877,-0.464 -6.829,-3.789 -6.829,-7.694c0,-3.054 1.806,-5.835 4.595,-7.078c-1.649,-1.421 -2.598,-3.494 -2.597,-5.671c0.001,-3.927 3.085,-7.222 7.003,-7.482c0.056,-3.319 2.802,-6.019 6.122,-6.019c1.912,-0 3.718,0.896 4.875,2.418c1.157,-1.522 2.963,-2.418 4.875,-2.417m-9.75,2.5c-1.989,0 -3.625,1.636 -3.625,3.625l0,1.125c0,0.69 -0.56,1.25 -1.25,1.25l-0.75,0c-2.743,0 -5,2.257 -5,5c0,2.743 2.257,5 5,5l0.5,0c2.331,0 4.25,1.919 4.25,4.25l0,0.45c1.637,0.538 2.75,2.077 2.75,3.8c0,2.194 -1.806,4 -4,4c-2.194,-0 -4,-1.806 -4,-4c0,-1.723 1.113,-3.262 2.75,-3.8l0,-0.45c0,-0.96 -0.79,-1.75 -1.75,-1.75l-2.25,0c-2.88,0 -5.25,2.37 -5.25,5.25c0,2.88 2.37,5.25 5.25,5.25c0.504,0 0.956,0.303 1.15,0.76l0.035,0.095l0.643,1.926c0.639,1.916 2.445,3.217 4.465,3.217c2.581,0 4.706,-2.124 4.707,-4.705l0,-18.543l-1.821,0c-0.359,1.878 -2.017,3.248 -3.929,3.248c-2.194,0 -4,-1.805 -4,-4c0,-2.194 1.806,-4 4,-4c1.529,0 2.93,0.877 3.598,2.252l2.152,-0l0,-5.625c0,-1.989 -1.636,-3.625 -3.625,-3.625m16.749,18.5c-0.341,1.318 -1.331,2.374 -2.624,2.799l0,0.201c0,2.331 -1.919,4.25 -4.25,4.25l-3.75,0l0,4.543c0.001,2.581 2.126,4.705 4.707,4.705c2.02,0 3.826,-1.301 4.465,-3.217l0.643,-1.926l0.035,-0.094c0.196,-0.46 0.65,-0.761 1.15,-0.761c2.88,0 5.25,-2.37 5.25,-5.25c0,-2.88 -2.37,-5.25 -5.25,-5.25l-0.376,0Zm-18.874,4.5c-0.823,0 -1.5,0.677 -1.5,1.5c0,0.823 0.677,1.5 1.5,1.5c0.823,0 1.5,-0.677 1.5,-1.5c0,-0.823 -0.677,-1.5 -1.5,-1.5m11.875,-23c-1.989,0 -3.625,1.636 -3.625,3.625l0,19.625l3.75,0c0.96,0 1.75,-0.79 1.75,-1.75l0,-0.201c-1.637,-0.538 -2.751,-2.077 -2.751,-3.8c-0,-2.194 1.806,-4 4,-4c1.574,-0 3.008,0.929 3.651,2.366c2.247,-0.533 3.846,-2.556 3.846,-4.865c-0,-2.741 -2.255,-4.998 -4.996,-5l-0.75,0c-0.69,0 -1.25,-0.56 -1.25,-1.25l0,-1.125c0,-1.989 -1.636,-3.625 -3.625,-3.625m3.125,16c-0.823,0 -1.5,0.677 -1.5,1.5c0,0.823 0.677,1.5 1.5,1.5c0.823,0 1.5,-0.677 1.5,-1.5c0,-0.823 -0.677,-1.5 -1.5,-1.5m-15,-6.5c-0.823,0 -1.5,0.677 -1.5,1.5c0,0.823 0.677,1.5 1.5,1.5c0.823,0 1.5,-0.677 1.5,-1.5c0,-0.823 -0.677,-1.5 -1.5,-1.5" style="fill-rule:nonzero;"/></svg>