<svg clip-rule="evenodd" fill-rule="evenodd" stroke-linecap="round" stroke-linejoin="round" viewBox="0 0 24 24" xmlns="http://www.w3.org/2000/svg"><path d="m20.5 5.5v13c0 1.104-.896 2-2 2h-13c-1.104 0-2-.896-2-2v-13c0-1.104.896-2 2-2h13c1.104 0 2 .896 2 2z" fill="none" stroke="#fff" stroke-width="4"/><path d="m20.5 5.5v13c0 1.104-.896 2-2 2h-13c-1.104 0-2-.896-2-2v-13c0-1.104.896-2 2-2h13c1.104 0 2 .896 2 2z" fill="#487eb0" stroke="#000" stroke-width="2"/><g fill="none" stroke-miterlimit="1.5"><path d="m10 3.5v17" stroke="#000" stroke-linecap="butt" stroke-width="2"/><g stroke="#fff"><path d="m17 12-2.081-2.081"/><path d="m17 12-2.081 2.081"/></g></g></svg>