<svg clip-rule="evenodd" fill-rule="evenodd" stroke-linejoin="round" stroke-miterlimit="2" viewBox="0 0 24 24" xmlns="http://www.w3.org/2000/svg"><path d="m8 11c0 .552-.448 1-1 1s-1-.448-1-1v-3.999-.006c0-3.292 2.708-6 6-6 2.843 0 5.314 2.02 5.88 4.806.11.541-.24 1.069-.781 1.179s-1.069-.24-1.179-.781c-.377-1.857-2.025-3.204-3.92-3.204-2.194 0-4 1.806-4 4v.005z" stroke="#fff" stroke-width="2"/><path d="m21 13v7c0 1.104-.896 2-2 2h-14c-1.104 0-2-.896-2-2v-7c0-1.104.896-2 2-2h14c1.104 0 2 .896 2 2z" fill="#fdcb6e"/><path d="m21 13v7c0 1.104-.896 2-2 2h-14c-1.104 0-2-.896-2-2v-7c0-1.104.896-2 2-2h14c1.104 0 2 .896 2 2z" fill="none" stroke="#fff" stroke-linecap="round" stroke-miterlimit="4" stroke-width="4"/><path d="m21 13v7c0 1.104-.896 2-2 2h-14c-1.104 0-2-.896-2-2v-7c0-1.104.896-2 2-2h14c1.104 0 2 .896 2 2z" fill="#fdcb6e"/><g fill="none" stroke="#000" stroke-linecap="round" stroke-miterlimit="4" stroke-width="2"><path d="m21 13v7c0 1.104-.896 2-2 2h-14c-1.104 0-2-.896-2-2v-7c0-1.104.896-2 2-2h14c1.104 0 2 .896 2 2z"/><path d="m7 11v-4c0-.002 0-.003 0-.005 0-2.743 2.257-5 5-5 2.369 0 4.429 1.683 4.9 4.005"/></g></svg>