<svg clip-rule="evenodd" fill-rule="evenodd" stroke-linecap="round" stroke-linejoin="round" viewBox="0 0 24 24" xmlns="http://www.w3.org/2000/svg"><path d="m21 13v7c0 1.104-.896 2-2 2h-14c-1.104 0-2-.896-2-2v-7c0-1.104.896-2 2-2h14c1.104 0 2 .896 2 2z" fill="#fdcb6e" stroke="#fff" stroke-width="4"/><g stroke-width="2"><path d="m8 11c0 .552-.448 1-1 1s-1-.448-1-1v-4c0-3.292 2.708-6 6-6s6 2.708 6 6v4c0 .552-.448 1-1 1s-1-.448-1-1v-4c0-2.194-1.806-4-4-4s-4 1.806-4 4z" fill="none" stroke="#fff" stroke-linecap="butt" stroke-miterlimit="2"/><path d="m21 13v7c0 1.104-.896 2-2 2h-14c-1.104 0-2-.896-2-2v-7c0-1.104.896-2 2-2h14c1.104 0 2 .896 2 2z" fill="#fdcb6e" stroke="#000"/><path d="m7 11v-4c0-2.743 2.257-5 5-5s5 2.257 5 5v4" fill="none" stroke="#000"/></g></svg>