<svg clip-rule="evenodd" fill-rule="evenodd" stroke-linecap="round" stroke-linejoin="round" viewBox="0 0 24 24" xmlns="http://www.w3.org/2000/svg"><g transform="matrix(.869699 0 0 .869699 1.56361 1.56361)"><path d="m21.244 2.756c1.951 1.951 1.951 5.12 0 7.071l-11.417 11.417c-1.951 1.951-5.12 1.951-7.071 0s-1.951-5.12 0-7.071l11.417-11.417c1.951-1.951 5.12-1.951 7.071 0z" fill="none" stroke="#fff" stroke-width="4.25"/><g stroke="#000"><path d="m15.352 15.719-5.525 5.525c-1.951 1.951-5.12 1.951-7.071 0s-1.951-5.12 0-7.071l5.525-5.525z" fill="#f1c40f" stroke-width=".09"/><path d="m8.281 8.648 5.892-5.892c1.951-1.951 5.12-1.951 7.071 0s1.951 5.12 0 7.071l-5.892 5.892z" fill="#e74c3c" stroke-width=".09"/><g fill="none"><path d="m21.244 2.756c1.951 1.951 1.951 5.12 0 7.071l-11.417 11.417c-1.951 1.951-5.12 1.951-7.071 0s-1.951-5.12 0-7.071l11.417-11.417c1.951-1.951 5.12-1.951 7.071 0z" stroke-width="1.96"/><path d="m8.281 8.648 7.071 7.071" stroke-miterlimit="1.5" stroke-width="1.6"/></g></g></g></svg>