<svg clip-rule="evenodd" fill-rule="evenodd" stroke-linecap="round" stroke-linejoin="round" viewBox="0 0 24 24" xmlns="http://www.w3.org/2000/svg"><path d="m12 2c5.519 0 10 4.481 10 10s-4.481 10-10 10-10-4.481-10-10 4.481-10 10-10zm0 6c-2.208 0-4 1.792-4 4s1.792 4 4 4 4-1.792 4-4-1.792-4-4-4z" fill="#e67e22" stroke="#fff" stroke-width="4"/><path d="m12 8 2.83 1.17 4.24-4.24-7.07-2.93-7.07 2.931 4.24 4.239z" fill="#fff"/><path d="m12 8 2.83 1.17 4.24-4.24-7.07-2.93-7.07 2.931 4.24 4.239z" fill="#fff" transform="matrix(1 0 0 -1 0 24.3393)"/><path d="m12 2c5.519 0 10 4.481 10 10s-4.481 10-10 10-10-4.481-10-10 4.481-10 10-10zm0 6c-2.208 0-4 1.792-4 4s1.792 4 4 4 4-1.792 4-4-1.792-4-4-4z" fill="#e67e22" stroke="#000" stroke-width="2"/><g fill="#fff"><path d="m4.224 5.638c-.391-.39-.392-1.023-.002-1.414s1.023-.392 1.414-.002l3.897 3.885c.39.39.391 1.023.002 1.414-.39.391-1.024.392-1.415.002z" transform="translate(.171778 .1775)"/><path d="m14.48 15.761c-.392-.389-.393-1.023-.004-1.414.39-.391 1.023-.392 1.414-.003l3.785 3.768c.392.389.393 1.023.004 1.414-.39.391-1.023.393-1.415.003z"/><path d="m15.554 10.037c-.38.4-1.014.415-1.414.035-.399-.381-.415-1.014-.034-1.414l3.53-3.708c.38-.399 1.014-.415 1.414-.034.399.38.415 1.014.034 1.414z" transform="translate(.355 -.355)"/><path d="m5.82 19.766c-.385.396-1.018.406-1.414.022-.397-.384-.406-1.018-.022-1.414l3.896-4.017c.385-.397 1.018-.406 1.414-.022.397.384.406 1.018.022 1.414z"/></g><path d="m12 2c5.519 0 10 4.481 10 10s-4.481 10-10 10-10-4.481-10-10 4.481-10 10-10zm0 6c-2.208 0-4 1.792-4 4s1.792 4 4 4 4-1.792 4-4-1.792-4-4-4z" fill="none" stroke="#000" stroke-width="2"/></svg>