<svg clip-rule="evenodd" fill-rule="evenodd" stroke-linejoin="round" stroke-miterlimit="2" viewBox="0 0 409 1232" xmlns="http://www.w3.org/2000/svg"><g transform="matrix(.99999768544 0 0 .87671544448 62.5005568 82.2913888)"><path d="m208.307 935.022c44.705 27.208 75.158 80.948 75.158 142.728 0 89.23-63.509 161.66-141.733 161.66s-141.732-72.43-141.732-161.66c0-61.78 30.453-115.52 75.157-142.728l46.816-936.307c.597-11.949 9.266-21.29 19.759-21.29s19.162 9.341 19.76 21.29z" fill="#fff"/><path d="m268.934 895.534c46.942 42.688 77.031 108.476 77.031 182.216 0 128.57-91.514 232.95-204.233 232.95s-204.232-104.38-204.232-232.95c0-73.74 30.089-139.528 77.03-182.215l45.044-900.879 7.772-34.809 17.878-28.082 25.598-18.76 30.91-6.868 30.91 6.868 25.598 18.76 17.879 28.082 7.771 34.809zm-60.627 39.488-46.815-936.307c-.598-11.949-9.267-21.29-19.76-21.29s-19.162 9.341-19.759 21.29l-46.816 936.307c-44.704 27.208-75.157 80.948-75.157 142.728 0 89.23 63.508 161.66 141.732 161.66s141.733-72.43 141.733-161.66c0-61.78-30.453-115.52-75.158-142.728z"/></g></svg>