<svg clip-rule="evenodd" fill-rule="evenodd" stroke-linecap="round" stroke-linejoin="round" stroke-miterlimit="1.5" viewBox="0 0 2457 1276" xmlns="http://www.w3.org/2000/svg"><path d="m0 0h2456.69v1275.59h-2456.69z" fill="none"/><g stroke="#000" stroke-width="62.5" transform="translate(0 -425.00015)"><path d="m866.89 1653.54h-819.646c0-325.93 132.309-621.21 346.101-834.998l579.463 579.468c-65.427 65.42-105.918 155.79-105.918 255.53z" fill="#f0f1f4"/><path d="m393.345 818.542c213.792-213.792 509.067-346.101 835.005-346.101v819.649c-99.75 0-190.11 40.49-255.542 105.92z" fill="#f04f32"/><path d="m1228.35 472.441c325.93 0 621.21 132.309 835 346.101l-579.47 579.468c-65.42-65.43-155.79-105.92-255.53-105.92z" fill="#f3cc2e"/><path d="m2063.35 818.542c213.79 213.788 346.1 509.068 346.1 834.998h-819.65c0-99.74-40.49-190.11-105.92-255.53z" fill="#55c355"/></g></svg>