<svg clip-rule="evenodd" stroke-linecap="round" stroke-linejoin="round" stroke-miterlimit="10" viewBox="0 0 572.845 184.967" xmlns="http://www.w3.org/2000/svg"><g stroke-linejoin="round"><path d="m11.9467 92.136c41.6094-3.7037 57.818 59.369 97.2573 70.103 40.393 10.993 74.79-36.691 81.446-64.0301 13.099-53.8011 53.993-55.954 71.358-53.2172 52.8 8.3218 41.598 107.8743 167.347 72.1273" fill="none" stroke="#2980b9" stroke-dasharray="10 20" stroke-linecap="round" stroke-width="5.88"/><g stroke="#000" stroke-width="1.87987"><g><path d="m477.901 149.519c.891.004 2.22-.643 3.149-1.114.282-.143-2.317-21.5-2.677-24.723-1.597-14.325-5.518-54.9058-5.814-55.8124-.31-.9514-7.53-1.4557-9.803-1.1139-.204.0307-3.434 2.5039-3.125 2.7944" fill="#f39c12" stroke-linecap="round"/><path d="m459.552 70.028c-.057.8007 3.71 34.12 4.455 39.566.97 7.082 4.096 37.529 4.612 38.125.638.736 8.851 2.186 9.019 1.8.302-.695-3.349-33.162-3.443-34.053-1.277-12.148-3.816-44.7143-4.652-45.2695-.748-.4971-3.354-.5076-5.509-.4776-2.384.0332-4.441-.2658-4.482.3091z" fill="#f39c12" stroke-linecap="round"/><path d="m469.423 70.1169 2.619-1.9556" fill="none" stroke-linecap="butt"/><path d="m542.15 160.3c.891.001 2.387-1.585 2.41-2.158s-1.799-22.677-2.169-26.163c-1.641-15.492-4.944-58.2441-5.243-59.2241-.314-1.0283-8.132-1.282-9.19-1.1326-.205.029-4.086 2.0599-3.776 2.3733" fill="#f39c12" stroke-linecap="round"/><path d="m524.105 74.5129c-.054.8663 3.661 36.9001 4.423 42.7891.991 7.66 3.729 41.059 4.247 41.702.64.795 8.968 1.782 9.135 1.364.3-.753-3.168-35.843-3.264-36.807-1.314-13.138-3.912-48.0634-4.75-48.6617-.313-.2238-2.025-.1583-3.964-.2849-2.702-.1763-5.804-.4636-5.827-.1015z" fill="#f39c12" stroke-linecap="round"/><path d="m534.083 74.8169 2.423-1.6675" fill="none" stroke-linecap="butt"/><g stroke-linecap="round"><path d="m453.193 156.633c.887.092 2.686-.662 3.658-1.043.295-.116 2.119-14.363 2.558-17.611 1.374-10.177 6.114-40.5301 6.507-49.0438.116-2.4996 1.892-18.025 1.689-18.9666-.213-.988-7.664-1.3893-9.959-1.2723-.206.0105-1.874 1.016-3.102 2.2949" fill="#f39c12"/><path d="m520.385 169.739c.888.092 3.22-1.899 3.304-2.049.085-.151 1.692-15.367 2.094-18.93 1.259-11.164 5.746-44.37 6.044-53.7019.087-2.7399 1.571-19.4777 1.357-20.5071-.123-.5922-2.303-.7089-4.626-.8547-1.916-.1201-3.927-.3261-4.964-.2574-.206.0136-1.651.7578-2.865 2.1718" fill="#f39c12"/><path d="m454.093 71.5277c-.138.7997-4.116 31.5713-4.665 37.8013-.653 7.409-5.874 43.902-5.421 44.553.56.804 3.602 1.317 4.376 1.609.469.176 4.723 1.46 4.929 1.088.371-.669 2.683-20.699 2.775-21.6.858-8.379 9.522-62.4979 7.981-63.0046-.856-.2817-3.035-.3181-5.182-.503-2.375-.2045-4.695-.5179-4.793.0563z" fill="#f39c12"/><path d="m520.283 76.2032c-.128.8776-4.195 34.5378-4.674 41.3698-.569 8.125-5.626 49.267-5.165 49.975.569.875 9.744 2.674 9.946 2.264.362-.737 2.524-23.121 2.606-24.109.763-9.189 8.814-68.5743 7.267-69.1135-.859-.2997-3.038-.3171-5.187-.4975-2.377-.1995-4.701-.519-4.793.1112z" fill="#f39c12"/><path d="m434.535 122.245c.409.892 1.404 2.298 2.064 2.551.66.252 52.145 8.896 58.013 9.685 4.535.611 51.003 7.722 51.613 6.871.856-1.193 2.522-22.061 1.654-22.501-.867-.441-1.879-.919-3.216-1.584" fill="#f39c12"/><path d="m437.062 92.2074c.439.8779 3.581 2.6853 4.25 2.9154.668.2301 50.5 6.9192 56.391 7.5082 4.554.455 51.055 5.736 51.636 4.866.814-1.222 1.31-17.4503.886-22.5451-.128-1.5354-2.148-2.0293-3.507-2.6482" fill="#f39c12"/><path d="m546.898 82.4003c-1.991-1.9912-45.456-3.5211-62.078-4.9657-10.25-.8908-46.304-2.8851-46.304-2.7616 0 2.6868-1.678 17.2146-1.51 17.4395.806 1.0749 27.061 3.1013 35.531 4.4748 21.618 3.5057 71.913 8.9277 73.627 8.0697 1.256-.627.734-22.2567.734-22.2567z" fill="#f1c40f"/><path d="m545.431 117.622c-1.922-2.057-46.099-6.503-62.662-8.514-10.214-1.239-44.007-6.751-45.583-5.313-1.576 1.437-2.836 17.932-2.675 18.162.769 1.102 44.735 7.586 52.456 8.629 22.095 2.983 54.488 8.412 56.231 7.614 1.276-.584 2.233-20.578 2.233-20.578z" fill="#f1c40f"/><g fill="none"><path d="m455.076 72.2326c0 .6993-.232-1.3798-.315-2.0742-.057-.4804-.084-.9638-.125-1.4457" opacity="0"/><path d="m458.155 72.5469c0-1.1693-.195-2.3475-.565-3.4571" opacity="0"/><path d="m454.447 67.707c1.641.8206 3.749-.1526 5.28-.6914 5.572-1.9607 7.409-11.4143 1.634-14.0796-6.606-3.0491-14.218 4.4966-11.188 11.314.701 1.5776 2.861 2.7505 4.274 3.457z" opacity="0"/><path d="m530.339 80.4877c-.11-.2192.038.4947.121.7253.452 1.2607.958 2.5016 1.45 3.7475.337.8534.802 1.6039 1.209 2.4176 2.374 4.7472 4.52 9.5205 6.649 14.3849 4.978 11.379 9.497 22.927 14.385 34.331.574 1.341 4.588 10.774 4.231 11.847-.248.744-3.54.518-4.11 1.088-.136.135-1.48-3.366-1.693-4.11-.886-3.101-2.067-5.948-3.505-8.825-3.355-6.71-7.244-13.396-10.155-20.308-3.287-7.807-5.551-16.664-9.308-24.1769" opacity="0"/><path d="m465.787 74.9271c-.734 2.2013 1.585 4.3616 2.417 6.5277 1.339 3.487 2.553 7.0208 3.868 10.5169 1.891 5.0257 4.37 9.9493 6.77 14.7483 3.965 7.929 7.088 16.343 10.759 24.418 1.703 3.747 3.554 7.387 4.956 11.242.061.169 1.29 2.68.846 2.902-.694.346-2.586-.363-3.385-.363-.263 0-3.867.244-3.989-.121-1.794-5.383-4.532-11.058-6.407-16.682-1.67-5.01-4.939-9.514-7.615-14.022-4.52-7.613-7.563-15.7298-11.484-23.5729" opacity="0"/><path d="m547.081 89.7354c-2.024 1.2563-4.694.8892-7.072 1.0275-4.667.2714-9.347.2639-14.022.3626-18.156.3836-36.64-1.0886-54.761-2.1759-6.16-.3696-12.368-.5945-18.495-1.3297-.78-.0936-5.211-1.0754-5.923-.3626-.74.7397.108 5.626.362 6.7695.281 1.2638.038 4.8033 1.209 5.6815.725.5437 4.726.3637 5.682.4837 4.898.612 9.833.728 14.748 1.088 19.792 1.448 39.886 2.297 59.716 2.297 5.945 0 11.84.236 17.77.483 2.058.086 4.109.363 6.165.363h3.143s-1.445-2.099-2.175-3.143c-1.464-2.0911-3.405-4.4024-4.352-6.7697-.631-1.5761-.219-3.609-1.693-4.7145-.229-.1717-.167-.144-.302-.0604z" opacity="0"/><path d="m555.241 117.901c-.457-.781-2.771.196-4.473.303-2.155.134-4.369 0-6.528 0-8.04 0-16.033-.482-24.056-.847-17.366-.789-34.747-2.333-52.101-3.384-3.999-.243-7.993-.582-11.967-.847-.49-.032-3.627-.603-4.11-.12-.442.441 2.575 5.773 2.901 6.286 1.237 1.944 2.048 5.311 3.626 6.89 1.65 1.649 10.888 1.448 13.298 1.571 11.729.602 23.553.409 35.298.605 12.378.206 24.737.927 37.111 1.209 3.779.086 7.588-.051 11.363.121 1.211.055 2.778.39 3.99.12.946-.21 4.036-.945 3.505-2.538-.584-1.753-3.496-3.777-4.714-5.198-1.051-1.226-2.314-2.751-3.143-4.171z" opacity="0"/></g></g><g fill="none" stroke-linecap="butt"><path d="m546.266 104.682 3.33 3.16"/><path d="m543.541 138.285 2.69 2.606"/><path d="m464.243 72.0778 3.15-1.4383"/><path d="m530.439 76.7011s2.232-1.6666 2.416-1.9032"/></g><path d="m459.482 69.6723-.32-6.3859 3.902.3301 1.66.1403-.565 6.1783" fill="#f39c12" stroke-linecap="round"/><path d="m525.139 74.568-.32-6.3859 3.902.3301 1.66.1403-.565 6.1783" fill="#f39c12" stroke-linecap="round"/></g><path d="m534.785 67.9894c3.039-5.7654.563-15.0457-6.967-15.139-6.538-.081-10.098 4.8674-9.007 10.6125.752 3.9555 3.203 6.0466 5.605 7.1329 2.916 1.3191 8.9.1808 10.369-2.6064z" fill="#f39c12" stroke-linecap="round"/></g></g><path d="m532.158 65.8203c1.979-3.7547.367-9.7984-4.538-9.8591-4.257-.0528-6.576 3.1698-5.865 6.9112.49 2.576 2.086 3.9379 3.65 4.6453 1.899.859 5.796.1177 6.753-1.6974z" fill="#f1c40f"/><path d="m454.993 51.2679c-3.038 5.7654-.563 15.0457 6.968 15.139 6.538.0809 10.098-4.8674 9.006-10.6125-.752-3.9555-3.202-6.0467-5.604-7.1329-2.917-1.3191-8.901-.1808-10.37 2.6064z" fill="#f39c12" stroke="#000" stroke-linecap="round" stroke-linejoin="round" stroke-width="1.87987"/><path d="m457.621 53.437c-1.979 3.7547-.367 9.7984 4.537 9.8591 4.258.0528 6.577-3.1698 5.866-6.9112-.49-2.576-2.086-3.9379-3.65-4.6453-1.9-.8591-5.797-.1177-6.753 1.6974z" fill="#f1c40f"/><path d="m229.717 150.256c-.444 1.184.15 3.618.25 3.978.828 2.997 15.842 9.415 21.458 10.836 7.423 1.878 11.284-.679 12.959-2.048 3.413-2.788 9.117-8.629 10.774-11.724 1.419-2.651.126-7.031-.529-8.028" fill="#d35400" stroke="#000" stroke-linecap="round" stroke-linejoin="round" stroke-width="1.87987"/><path d="m245.164 133.882c-1.471 1.178-16.394 11.193-15.426 17.163.497 3.066 15.338 9.623 20.342 10.834 4.385 1.06 8.215 1.936 13.242-2.01 2.388-1.875 13.978-11.664 11.108-16.77-1.857-3.304-15.07-8.653-17.172-9.703" fill="#e67e22" stroke="#000" stroke-linecap="round" stroke-linejoin="round" stroke-width="1.87987"/><path d="m267.274 148.721c.169-2.024-6.197-30.621-7.23-36.305-.996-5.476-5.616-27.5175-6.426-27.5175-.372 0-6.409.1833-6.853.4795-.355.2367-2.249 11.8251-2.7 15.882-1.139 10.25-6.421 40.543-6.929 45.744-.033.33 2.003 6.751 11.378 7.784 8.215.905 18.572-3.816 18.76-6.067z" fill="#e67e22"/><path d="m243.229 110.05 4.16 1.745 7.122.007 4.906-2.279-2.578-12.6908-3.612 1.2154-5.208.6398-3.346-1.1992" fill="#ecf0f1"/><path d="m241.612 119.411-2.261 14.775 6.773 3.056 10.869.287 7.511-3.33-3.048-15.013-7.413 1.975-8.362-.396z" fill="#ecf0f1"/><g stroke="#000" stroke-linecap="round" stroke-linejoin="round" stroke-width="1.87987"><g fill="none"><path d="m242.893 109.95c1.238 1.147 4.417 2.112 8.149 1.971 2.662-.1 5.605-.763 8.325-2.322"/><path d="m241.673 118.807c1.237 1.147 5.705 2.667 9.437 2.526 2.662-.1 7.142-.7 9.861-2.259"/><path d="m239.464 134.161c1.109.802 5.366 3.45 11.912 3.69 4.308.158 9.33-1.863 12.815-3.423m-19.313-37.3946c1.497 2.2644 8.032 2.0135 11.524-.3144"/><path d="m266.887 147.47c-.01-4.555-5.81-29.37-6.843-35.054-.996-5.476-5.616-27.5175-6.426-27.5175-.372 0-6.409.1833-6.853.4795-.355.2367-2.098 12.1662-2.64 16.211-1.369 10.199-5.251 33.014-6.852 45.5-.171 1.327 1.866 6.666 11.241 7.699 8.215.905 18.383-2.763 18.373-7.318z"/></g><path d="m253.862 85.1506c-1.203-2.1935-9.73-1.5647-6.37 1.4702.413.3732 1.519.5711 2.704.5677 2.092-.006 4.433-.6381 3.666-2.0379z" fill="#d35400"/></g><g stroke="#000" stroke-linecap="round" stroke-linejoin="round" stroke-width="1.87987"><path d="m104.367 54.1155c-1.579 3.0165-21.5463 40.0639-23.5433 44.6404-3.1412 7.1991.649 10.5151 5.5127 10.7301 5.2504.233 42.6466.044 47.6046.339 7.343.437 11.275-1.942 7.291-10.7595-.937-2.0739-19.524-37.1473-25.534-46.3685-3.632-5.573-9.531-2.0202-11.331 1.4185z" fill="#e74c3c"/><path d="m107.129 59.0096c-1.237 2.383-18.9466 35.0566-20.5111 38.672-2.461 5.6864-1.1878 7.3364 2.6226 7.5064 4.1133.184 36.9615.048 40.8455.281 5.753.346 8.801-.657 5.343-6.8972-.871-1.5702-16.534-32.4028-21.242-39.6874-2.845-4.4026-5.648-2.5913-7.058.1252z" fill="#fff"/><g fill="#e74c3c"><path d="m109.215 90.6202c.377.7334 2.159.5117 2.27.3257.355-.5908 2.342-20.431 1.862-21.4093-.479-.9783-4.686-1.3738-5.356-.3569-.671 1.017.326 19.6901 1.224 21.4405z"/><path d="m108.096 96.1156c-.138 1.305.102 3.7483 2.613 3.217 2.51-.5313 3.119-4.4133.932-4.9819-2.482-.6454-3.407.46-3.545 1.7649z"/></g><g fill="none"><path d="m460.548 81.2445c-4.25-1.7728-6.644 7.7301-1.935 9.2998 3.653 1.2179 4.89-8.0674 1.935-9.2998z"/><path d="m464.859 91.0913c.069-.9859.238-6.1055.299-6.7195.175-1.748.001-2.8666 2.349-2.7517 1.959.0959 3.046 2.7643 1.991 4.1715-.855 1.139-2.738 1.3161-4.081 1.1646"/><path d="m476.946 82.7899s-3.728-.7805-4.176.1171c-.54 1.0784-1.142 7.0669-.661 8.269.415 1.0383 4.308 1.0039 4.308.6236"/><path d="m472.812 87.1384c.932 0 1.863.1795 2.795.1795"/><path d="m479.636 92.5008c.016-1.2037.293-7.3708.481-8.3565.187-.9856 2.634-1.5813 4.002-.2511 2.293 2.2298-.47 4.1933-4.055 4.4511-.077.0055 3.994 1.8564 4.407 4.5443"/><path d="m487.984 93.6649c0-.5243.338-3.9401.432-4.4544.204-1.1259.474-4.8987 2.079-5.1662 2.96-.4932 2.942 8.5154 3.689 10.0106"/><path d="m489.186 89.5484c.372 0 2.713.399 3.482.399"/><path d="m498.924 94.7684c0-3.0791.211-6.2316.211-9.2987"/><path d="m496.688 84.5883c1.597-.0455 3.402.359 5.1.359"/><path d="m505.502 85.5181c0-.215-.34 7.9931-.398 9.9892"/><path d="m513.978 90.2219c-.131-3.08-1.326-3.9125-2.042-4.032-3.262-.5436-3.967 8.1024-1.626 9.8581 2.612 1.9586 3.762-3.6144 3.668-5.8261z"/><path d="m517.48 96.8585c0 2.0718-.314-9.7158.182-10.0726 1.266-.9125 6.069 16.6171 6.416 9.3173.034-.7159.066-7.9086.066-9.0683"/><path d="m457.821 112.184c-2.608-5.085-7.758 5.502-3.728 8.322.699.489 2.278.404 2.938-.111"/><path d="m459.496 120.953c.749-3.09 2.024-9.738 3.721-9.244 1.665.485 2.09 5.26 1.538 10.215"/><path d="m461.266 117.128c.882-.018 2.232.567 3.107.463"/><path d="m467.658 122.308c.114-2.013.558-8.975.989-8.987.116-.004 2.615 7.81 3.23 9.093 1.709 3.564 1.719-6.402 1.943-8.575"/><path d="m481.031 116.779c-.233-2.819-4.042-4.522-4.958 1.767-.775 5.322 2.692 7.443 4.691 3.829"/><path d="m483.905 115.637c-.647.873-.907 7.707-.412 8.532.536.894 2.932.766 4.59.634"/><path d="m483.945 115.638c1.128-.258 3.321.189 4.409.341"/><path d="m483.85 119.904c1.114.154 2.691.268 3.389.295"/><path d="m491.327 116.341c-.018-.72-1.256 7.762-.628 8.939.539 1.012 3.661.835 4.194.954"/><path d="m497.856 117.072c-.381 2.489-.806 6.26-.643 8.841.074 1.164 3.423 1.167 4.278 1.146"/><path d="m504.691 118.199c-.188.935-1.045 8.452-.617 9.031.742 1.001 4.05.922 4.573 1.011"/><path d="m504.766 118.134c2.113-.053 2.626.025 4.713.504"/><path d="m504.674 122.618c.96.233 1.769.416 3.096.382"/><path d="m512.468 128.553c-.239-1.553.652-8.953.934-9.059 4.757-1.793 7.336 5.633 4.224 8.236-1.723 1.44-5.041 1.584-5.158.823z"/></g><g fill="#f39c12"><g><path d="m334.58 147.627c-1.7 1.434-1.094 18.059-.396 20.928.355 1.461 1.42 1.416 2.879.717.785-.377 2.993-17.748 1.499-21.716-.618-1.64-2.433-1.236-3.982.071z"/><path d="m336.61 175c-1.702-3.693-4.723 4.088-2.185 4.24 4.133.248 2.913-2.66 2.185-4.24z"/></g><g><path d="m30.9918 158.436c-.6172-4.132 1.7807-6.598 3.6063-7.887 5.7231-4.04 12.4171.215 13.1972 4.228 1.3098 6.738-3.304 8.46-3.5218 12.109-.075 1.257.4278 3.654.5881 4.639.1595.98-2.7512 1.833-3.4673 1.061-.7162-.773-2.0407-5.125-1.5731-7.655.4676-2.531 3.8001-5.827 3.3981-7.951-.4833-2.554-2.8772-4.158-5.1163-2.932-2.239 1.225-2.6469 5.868-3.2394 6.033-.4826.134-3.775-.997-3.8718-1.645z"/><path d="m45.5555 176.988c-2.6486-1.262-4.4343 5.515.011 5.462 3.211-.038 1.8894-4.556-.011-5.462z"/></g><g><path d="m186.113 11.1659c-.618-4.13155 1.78-6.59812 3.606-7.88676 5.723-4.03987 12.417.21463 13.197 4.22804 1.31 6.73762-3.304 8.46022-3.522 12.10832-.075 1.2576.428 3.6543.589 4.6395.159.9799-2.752 1.8332-3.468 1.0608-.716-.7723-2.04-5.1245-1.573-7.655.468-2.5304 3.8-5.827 3.398-7.95128-.483-2.55367-2.877-4.15724-5.116-2.93191-2.239 1.22532-2.647 5.86849-3.239 6.03309-.483.134-3.775-.9969-3.872-1.6448z"/><path d="m200.676 29.7183c-2.648-1.262-4.434 5.5146.011 5.4616 3.211-.0383 1.89-4.556-.011-5.4616z"/></g></g></g><path d="m334.722 55.3234c-1.892-15.4443 9.434-29.5394 25.297-31.4821 15.863-1.9428 30.256 9.0024 32.147 24.4467 1.892 15.4444-9.434 29.5394-25.297 31.4822s-30.256-9.0024-32.147-24.4468z" fill="#fff"/><path d="m379.967 59.6509h2.957v4.8583h-2.957z" fill="#e74c3c"/><path d="m347.813 59.8168h10.599v4.4908h-10.599z" fill="#e67e22"/><g stroke="#000" stroke-linecap="round" stroke-linejoin="round"><g stroke-width=".879869"><g fill="none"><path d="m347.934 59.7644c-.472 1.0619-.513 3.6256.176 4.3678.394.4235 16.854.3297 23.765.4466 4.425.0749 10.644.184 11.127-.0534.483-.2375.204-4.6864-.1-4.8463-.531-.2787-13.66.0528-19.375.0332z"/><path d="m358.146 64.2991c.511-1.3281.123-2.8058-.061-4.1952"/><path d="m379.749 64.3908c.98-2.0345.07-3.3151.027-4.5359"/></g><path d="m382.975 56.2682c-1.239-2.5166 1.067-3.731.063-5.6865-.389-.7573-2.452-.6231-2.477-.8155-.114-.8583.642-2.2933.762-3.1923.405-3.0284-1.147-8.6699-4.994-9.3912-1.742-.3266-4.309 2.5785-4.3 2.318.261-7.6973-7.388-5.8172-9.659-4.1159-1.462 1.0955-2.967 4.5452-.905 6.5885 1.259 1.2474 4.271 1.1413 4.226 1.348-.161.7339-1.307 1.3556-1.453 2.4485-.532 3.9774 2.688 6.2956 9.307 5.4311.28-.0366-.44 2.5536.78 3.657 2.82 2.5523 8.732 1.5759 8.65 1.4103z" fill="#cfcfcf"/></g><path d="m362.98 23.2253c-7.357-.0593-17.3 2.0217-23.976 12.1592-8.272 12.5634-5.658 29.479 4.677 38.7193 10.704 9.5705 22.102 9.9093 30.876 7.943 14.288-3.2016 21.94-18.8669 20.024-32.3294-1.721-12.0902-9.547-22.2887-22.384-25.333-1.316-.3122-4.803-1.1236-9.217-1.1591zm1.538 5.1568c4.277-.0872 9.136.8941 13.726 4.1475 7.601 5.3879 12.25 14.4785 11.499 24.2802-.212 2.7745-4.018 14.9503-8.218 14.1956-.81-.1455-29.957-38.2972-29.777-38.959.112-.4135 5.642-3.519 12.77-3.6643zm-18.598 7.1515c.478-.4358 7.745 9.8162 15.305 19.9138 7.59 10.1369 15.471 20.1205 15.34 20.1831-6.404 3.0504-14.253 1.8701-19.432-.0271-14.077-5.1571-16.103-13.3781-17.181-16.7728-2.553-8.0422.01-17.8671 5.968-23.297z" fill="#e74c3c" stroke-width="1.87987"/></g></svg>