<svg clip-rule="evenodd" stroke-linecap="round" stroke-linejoin="round" stroke-miterlimit="10" viewBox="0 0 326 735" xmlns="http://www.w3.org/2000/svg" xmlns:xlink="http://www.w3.org/1999/xlink"><clipPath id="a"><path clip-rule="evenodd" d="m0 0h326v735h-326z"/></clipPath><g clip-path="url(#a)"><path d="m70.54 161.278c.2412 8.844-6.2733 34.936-10.498 42.147-3.2089 5.476-30.3708 43.375-35.0003 51.604-10.629 18.893-16.80172 92.14-16.99256 115.423-.67502 82.355-3.98136 156.561.31501 235.637.90334 16.626 1.6248 78.674 13.52385 95.3 8.7213 12.187 31.6549 20.876 66.13 26.18 19.474 2.996 43.919 1.557 63.971 1.602 66.604.15 114.273-2.041 147.657-26.397 13.31-9.711 17.9-42.255 19.291-61.755 1.765-24.759 3.193-167.59.214-192.5-2.824-23.626 5.186-132.433-6.363-167.22-1.739-5.238-8.436-21.89-17.378-33.982-10.98-14.846-25.372-29.199-28.59-35.261-2.459-4.632-5.152-13.234-4.208-55.46" fill="#fff" stroke="#000" stroke-linecap="round" stroke-linejoin="round" stroke-width="8.82253"/><path d="m292.812 305.069c.856-5.7-40.649-17.362-55.538-20.154-43.877-8.227-83.362-7.297-127.682-4.527-8.677.542-81.4015 16.24-78.2213 35.322.5538 3.322 131.0943 49.88 135.4783 46.044 8.931-7.814 124.18-44.818 125.963-56.685z" fill="#c7f1ff"/><path d="m296.056 662.617c11.292 23.789-29.082 38.257-43.896 41.162-42.946 8.422-63.471 10.855-136.128 10.661-25.4224-.068-50.0985-4.748-70.652-15.639-19.1784-10.163-16.3874-40.677-12.0924-38.821 3.8756 1.674 262.3824 1.824 262.7684 2.637z" fill="#c7f1ff"/><g stroke="#000" stroke-linecap="round" stroke-linejoin="round"><path d="m31.8861 73.0803c-.5768 0 .5303 37.4767-.2849 47.2587-1.4435 17.322 32.6342 37.146 38.0813 37.762 28.6516 3.235 68.5865 5.379 97.4845 5.997 65.518 1.402 109.58-9.458 120.312-23.768 3.015-4.02 1.223-47.6899 1.223-62.364" fill="#dedede" stroke-width="8.82253"/><path d="m21.8106 30.0274c-3.4894 2.0671-2.8467 15.1763-2.6502 18.5.7409 12.5322 8.7972 24.1711 24.9758 28.2158 22.7968 5.6992 127.1088 7.4564 169.2568 7.4564 19.96 0 84.939-5.0378 89.523-21.571 1.564-5.6391 1.089-22.8854-2.081-25.6777-14.496-12.7683-61.674-20.8502-77.624-22.7266-11.611-1.3661-71.705-6.52344-120.845-3.3204-39.1534 2.5522-70.8238 13.3585-80.5554 19.1235z" fill="#f5a118" stroke-width="8.82253"/><path d="m24.7003 31.1539c10.9813 10.9814 144.2127 22.6913 196.1647 18.695 10.974-.8441 68.447-5.2026 75.174-15.2933" fill="none" stroke-width="6.82253"/><path d="m314.35 295.771c-13.224 8.802-64.33 27.919-154.793 29.384-104.1926 1.687-135.6704-15.993-146.9188-18.435 0 0-11.769254 351.091.5832 358.176 27.2403 15.625 102.7536 19.535 154.7456 17.932 82.589-2.545 124.278-13.585 148.516-23.301" fill="#fff" stroke-width="8.82253"/></g><path d="m55.0867 628.976c-26.0414 1.382-29.6053-26.39-29.6053-40.527 0-35.362 1.624-72.591 6.6109-107.499 3.2796-22.958-.2159-47.565 1.4372-70.708 1.3472-18.862-.9934-44.672 19.5452-52.887 2.5901-1.036 9.0395-3.398 11.7847-2.3 20.1183 8.047 16.9584 41.883 16.9584 58.923 0 54.149-2.5869 108.685-2.5869 162.973 0 15.122 4.2557 50.518-24.1442 52.025z" fill="#f9b75a"/><g fill="none" stroke="#000" stroke-linecap="round" stroke-linejoin="round"><path d="m-107.961 788.242c1.759-2.931 2.938-5.968 4.625-8.92" stroke-width="8.82253"/><path d="m9.53045 543.909c-.4312.144-.86239.287-1.29359.431" stroke-width="4.8177"/><g stroke-width="5.93905"><path d="m104.947 398.125c0 5.503.759 30.548.759 37.072"/><path d="m123.728 397.706c.46-.46-.907 3.225-.993 3.473-.77 2.213-1.588 4.153-2.605 6.327-.713 1.524-11.128 16.256-12.954 15.647-1.002-.334 3.088-.513 3.154-.513 1.767 0 3.164.421 4.714 1.364 3.082 1.876 10.064 7.939 10.544 11.785"/><path d="m143.959 417.089c-1.685-.842-12.766 1.051-12.442 3.429.233 1.709-.21 13.227 1.317 14.415 4.325 3.364 8.554 1.6 12.975 1.6"/><path d="m133.404 427.726c2.071-1.036 4.92-1.241 7.194-1.241"/><path d="m160.571 418.422c.034-.068.486 17.013-.319 16.611"/><path d="m152.925 417.867c0-.933 11.226-2.367 12.653-2.481 1.175-.094 5.043.124 4.714.124"/><path d="m174.464 435.789c0 .397.495-5.249 2.046-10.303 1.738-5.665 4.598-10.85 5.521-11.158 3.23-1.076 7.145 9.616 10.421 20.593"/><path d="m188.805 427.987c-3.216.11-8.452-.21-9.875.359"/><path d="m199.804 436.18c0 .843-1.014-18.606.92-19.202 3.244-.998 7.704 11.383 7.704 11.383s4.549-12.083 8.048-12.762c5.169-1.004 4.024 21.577 4.024 19.891"/><path d="m228.894 416.059c0-1.505.891 18.856.575 17.591"/><path d="m237.747 433.305c.176.353-1.439-17.289.69-17.821.757-.19 14.244 16.48 14.602 16.211 2.36-1.769.23-21.697.23-20.81"/><path d="m274.425 411.689c-1.579-.789-10.577.345-11.46 1.737-1.619 2.552-.19 6.945-.498 10.796-.201 2.51-.191 4.403 1.155 6.71 2.595 4.448 8.766 2.049 12.553 2.049"/><path d="m263.113 423.146c1.308-1.308 5.208-1.467 6.943-1.684"/></g><g stroke-width="4"><path d="m108.018 455.294c-1.147 4.589-.464 9.633-.464 14.297 0 1.62.039 3.256-.154 4.868-.001.003-.016 1.867-.232 1.005"/><path d="m119.533 456.067c0-1.369-.387 20.297-.387 19.938"/><path d="m109.211 466.027c.941 0 7.454.239 7.96-.773"/><path d="m137.27 460.799c0 1.572-5.545 13.609-6.505 13.609"/><path d="m128.516 461.728c-.212 2.646 2.984 5.339 3.718 6.439"/><path d="m144.506 462.591c0 4.809.332 9.596.332 14.406"/><path d="m144.772 463.188c1.529-2.293 5.507.445 6.705 1.793 4.592 5.166 1.426 10.572-4.846 11.617"/><path d="m160.904 476.466c0 .131-.492-4.099-.531-5.311-.108-3.331.652-9.509 5.377-9.294 6.816.31-3.941 8.643-3.718 9.758.018.091 4.864.207 8.366 4.96"/><path d="m180.393 463.191c-4.435.159-6.988 15.936 1.432 14.916 6.525-.791 5.006-15.017-1.048-15.017"/><path d="m198.346 462.802c-4.674-4.674-10.436 11.911-3.33 13.64 1.393.339 2.78.262 3.843-.705"/><path d="m205.008 463.259c-.012 2.884.544 11.767.318 13.119"/><path d="m213.832 463.118c0-.363 1.059 13.324.908 13.324"/><path d="m207.069 471.845c1.784-.595 3.303-.371 5.187-.64"/><path d="m220.29 463.461c.01 3.632-1.542 12.778 2.781 13.582 1.161.216 2.7.775 4.86-.665"/><path d="m235.703 463.998c-6.343-.099-6.274 15.494.706 14.845 5.424-.505 5.18-14.052-.061-14.801"/><path d="m247.981 474.884c.402.803-2.281-14.668 3.229-13.461 2.274.498 4.926 2.309 3.619 5.199-.98 2.167-6.085 3.902-6.081 3.941.09.903 7.197 3.651 7.639 5.417"/><path d="m263.483 461.446c0-.229 1.357 12.173.356 14.175"/><path d="m270.637 474.22c.147.588-.348-4.889-.45-6.424-.311-4.66-1.15-6.4 5.297-6.142 5.994.24 4.515 13.299-1.691 13.299"/><path d="m295.32 459.343c0-3.528-8.937-.666-9.535 3.12-.299 1.899-.563 7.931.687 9.616 2.47 3.329 8.04 1.377 8.904-2.367"/><path d="m287.712 466.444c-.419.209 5.745-1.271 7.213-1.691"/><path d="m109.55 491.73c0 3.093-.848 6.974-.259 14.343"/><path d="m109.439 492.057c1.168-2.336 8.701-2.27 10.763-1.583"/><path d="m111.944 499.785c1.892 0 3.656.027 5.54.316"/><path d="m126.279 493.489c-2.94-4.009-6.258 9.443-2.167 12.17 2.525 1.683 5.304-2.143 5.156-6.105-.104-2.76-2.835-5.854-2.989-6.065z"/><path d="m133.767 496.162c.442 1.767.764 8.14.903 9.949.499 6.488-2.506-15.694 3.371-14.223 8.541 2.138-2.373 9.976-1.731 10.618 1.373 1.373 4.04 3.81 5.846 4.894"/><path d="m157.193 495.529c0 3.733-.123 7.74.791 11.396"/><path d="m164.632 507.241c0-1.259-1.16-9.961.475-10.288 3.73-.746 11.977 18.512 12.979 6.49.157-1.884.317-3.803.317-5.699"/><path d="m191.224 497.586c1.074-4.295 1.387 8.58 1.044 9.542-2.113 5.917-6.575 1.584-6.221-1.604"/><path d="m186.317 496.478c3.121 0 6.073-.791 9.18-.791"/><path d="m200.879 496.795c1.193-2.387-.828 6.837.874 9.127 1.684 2.266 5.728 1.93 8.337.625"/><path d="m201.436 496.711c2.567-.855 5.414-2.68 8.231-1.741"/><path d="m202.778 501.543c1.36.68 3.002-.367 4.274-.791"/><path d="m220.189 496.636c2.373-7.116-11.531 4.385-5.065 10.447 2.084 1.953 10.131-1.282 10.131-3.957"/><path d="m231.111 496.32c.437-.219-.101 5.711 1.108 9.339"/><path d="m226.521 495.529c2.068-2.068 9.498-1.9 12.346-1.583"/><path d="m243.483 494.283c0 3.574.242 7.142 1.108 10.605"/><path d="m254.663 494.509c-4.519-2.99-8.515 6.058-3.877 8.513 6.81 3.605 8.896-5.192 3.877-8.513z"/><path d="m263.018 502.294c.336.673-.612-8.169-.337-8.261 1.39-.463 5.282 2.726 6.161 3.898 2.616 3.487 5.085 7.805 5.948 2.919.08-.449.145-.977.197-1.591.173-2.083.238-3.886-.338-5.9"/></g><g stroke-width="4.5"><path d="m110.908 529.657c0 1.118-1.657 8.908-.823 9.464 2.433 1.622 13.176-1.954 12.57 5.324-.384 4.612-11.952 8.289-11.952 1.465"/><path d="m110.703 530.685c3.002-1.501 9.541-1.44 12.962-1.44"/><path d="m138.469 531.092c-1.391-1.044-5.436-1.911-6.658-1.147-3.553 2.22-5.897 9.09-4.044 13.68.825 2.043 3.365 3.827 5.484 4.219 8.849 1.639 10.469-12.809 5.218-16.752z"/><path d="m160.529 534.497c-9.323-14.443-20.202 10.74-6.019 13.4 8.506 1.595 8.667-9.297 6.019-13.4z"/><path d="m171.842 547.391c0 1.217.111-7.709 1.94-8.624 3.986-1.993 4.959 6.816 4.959 7.977 0 .875 1.359-6.861 3.234-7.33 3.771-.943 3.021 7.12 3.881 8.84"/><path d="m199.487 541.22c0-6.834-10.066-1.426-8.026 4.015 2.572 6.857 8.843-3.231 8.193-3.881-.385-.384-.862 6.973-.862 7.115 0 3.279 2.563 15.97-.647 18.111-6.707 4.471-4.743-11.436-4.743-12.936"/><path d="m217.98 530.143c0-2.638-12.03 24.449-10.564 23.716"/><path d="m221.214 537.042c0 3.193.431 14.585.431 13.152"/><path d="m244.468 537.254c-.125-.13-.482-4.727-7.515-2.583-5.153 1.571-6.811 13.642-2.372 16.601 7.089 4.726 14.504-9.169 9.887-14.018z"/><path d="m255.063 549.332c0 .039-.913-7.341 2.372-6.684 2.342.469 2.587 6.684 2.587 6.684s1.163-6.418 3.449-6.037c2.791.465 2.803 5.766 2.803 7.977"/><path d="m273.978 537.129c-.376 4.512-.887 12.513.574 13.609 1.246.935 5.843.498 7.03.103"/></g><g stroke-width="4.56"><path d="m118.899 561.131c-3.259 2.878-6.73 7.517-7.919 18.48-.424 3.914 1.115 11.269 6.24 13.054"/><path d="m122.469 573.263c-4.355 8.711 7.182 6.437 8.399 10.613 1.954 6.703-7.083 7.942-8.827 4.454"/><path d="m121.822 573.694c3.147-1.573 6.904-1.724 10.349-1.724"/><path d="m145.862 575.096c-8.47-3.755-12.52 11.084-4.42 14.122 7.902 2.963 9.843-11.718 4.42-14.122z"/><path d="m160.781 590.45c-.348-2.931-.797-7.9 2.221-8.563 2.966-.651 3.517 8.278 3.665 6.684.479-5.172 4.959-13.614 4.959 0"/><path d="m182.557 582.553c-4.548-3.638-7.585 5.033-5.39 6.253.857.476 2.78-.158 3.718-.493 4.084-1.462 2.211-3.34 2.847-4.823.339-.793 2.508 21.857-3.977 24.289-7.013 2.629 1.199-11.764 2.156-12.721"/><path d="m199.157 574.072c.864-2.593-7.546 21.19-7.546 19.188"/><path d="m203.679 590.37c-.442-.573-2.605-8.896 1.796-8.267 3.875.553 3.822 7.328 3.729 6.766-1.328-8.044 4.739-10.95 5.298.871"/><path d="m222.394 576.959c.42-.839-1.32 9.973-.749 12.259.915 3.657 5.496 2.696 7.546.646"/><path d="m237.168 567.658c1.578-4.326 5.02 5.557 5.821 9.055 1.599 6.974.416 11.596-3.233 17.679"/></g><g stroke-width="4.8177"><path d="m45.2697 605.136c-4.6598-2.33-4.8827 5.09-1.7889 7.411 11.5958 8.697 24.2322 2.882 13.5444-10.478"/><path d="m54.9388 608.974c-.4355.871-2.5956-6.08-1.7889-7.155 1.1273-1.503 7.6349-1.278 9.2-1.278"/><path d="m63.2261 592.321c.989 0-20.1102-.963-21.4666-6.388-1.2378-4.952 22.2729-7.485 20.9555-7.156"/><path d="m56.3878 589.963c-.6804-2.042-.5304-6.792-.5304-8.937"/><path d="m45.0141 561.947c-5.6693 1.89-.2143 9.99 4.6 9.455 6.3627-.707 1.0435-12.555 10.2222-11.244 4.7581.68 3.5804 9.967-.5111 9.967"/><path d="m43.7484 551.928c-.6323 1.265 20.1462-.571 17.8768.563"/><path d="m43.7006 552.071c6.4891-2.163 28.6376-14.657 11.5357-14.657-3.1756 0-8.6809-.531-11.6549.956"/><path d="m45.3015 519.718c-.0325 1.318-.2666 4.561 3.0349 6.962 4.0469 2.944 12.4236 5.029 15.2331-.941 1.8037-3.833 2.0003-5.042.1096-8.089-4.4722-7.209-18.2499-3.121-18.3776 2.068z"/><path d="m48.6817 501.672c6.24.58 11.9982 1.587 14.7324.22"/><path d="m47.565 508.448c-.4317-2.17-.5064-10.986-.5064-13.456"/><path d="m48.8058 487.593c-1.3168 0 11.2189.399 13.193.395 4.694-.008 3.0403-7.067 1.7266-11.008"/><path d="m48.3364 486.814c-1.078-3.234-1.7889-7.07-1.7889-10.478"/><path d="m55.712 486.182c0-2.54-1.1385-6.308-1.4979-8.824"/><path d="m48.0808 457.681c-6.6575 0-2.9942 11.125 2.0444 11.755 7.3043.913 1.9268-12.509 10.2222-11.755 6.0818.553 6.6507 10.834.7667 12.011"/><path d="m48.835 424.022c-.8025 1.605 14.4055-.474 15.1201.955"/><path d="m66.6571 415.769c-2.0523-.342-15.2771 1.138-16.1089-.345-1.662-2.963 16.0214-12.59 15.1471-13.464-1.8198-1.82-13.3178-.338-15.8899-.338"/><path d="m53.6003 385.354c-5.8003-2.9-5.3216 7.385.8182 9 1.5933.42 3.2158.561 4.7509.476.9277-.051 1.8234-.185 2.6615-.389 5.942-1.453 8.9847-6.479-.0488-10.996"/><path d="m64.7295 374.709-.2727.546-.2727.545.2727.546h1.0909l1.0909-.546.5455-1.363v-.546l-.2727-.545h-.8182-.8182"/></g></g></g></svg>