<svg clip-rule="evenodd" stroke-linecap="round" stroke-linejoin="round" stroke-miterlimit="10" viewBox="0 0 859 1386" xmlns="http://www.w3.org/2000/svg" xmlns:xlink="http://www.w3.org/1999/xlink"><clipPath id="a"><path clip-rule="evenodd" d="m0 0h859v1386h-859z"/></clipPath><g clip-path="url(#a)"><g stroke="#000" stroke-linecap="round" stroke-linejoin="round"><path d="m722.749 113.483s-80.656 179.999-155.057 331.128-189.632 330.444-200.6 340.273-76.869 110.68-81.366 112.068c-4.497 1.389 60.027 85.738 60.027 85.738s79.022-138.547 96.505-158.808c17.483-20.262 148.813-238.171 167.331-281.494 18.517-43.324 170.073-323.473 193.694-389.483.833-2.327-80.534-39.422-80.534-39.422z" fill="#e4dbce" stroke-width="8.82253"/><path d="m325.567 869.641s20.114-51.874 28.75-97.549c8.841-46.762 49.848-184.898 101.979-247.389 52.132-62.491 148.354-91.205 226.856-57.3 78.503 33.905 104.175 162.625 89.091 241.814-15.29 80.268-39.522 127.031-39.522 127.031s-7.712-2.191-11.191-4.562c-1.81-1.234 43.429-115.213 41.523-164.876s-6.581-106.877-44.379-156.669c-37.798-49.793-127.704-57.179-193.542-24.37-78.222 38.98-125.99 175.715-133.043 203.199-7.053 27.483-31.717 107.772-37.461 138.096-5.743 30.324-16.404 48.444-16.404 48.444" fill="#fff" stroke-width="5.82253"/><path d="m307.228 892.966s9.694-25.335 12.938-24.743c3.244.591 21.288 7.075 21.188 8.756-.101 1.681-13.195 27.436-13.195 27.436" fill="#fff" stroke-width="5.82253"/><g stroke-width="8.82253"><path d="m267.303 884.65s94.478 2.822 111.887 115.171-89.682 266.179-130.878 292.539-174.0416 125.51-216.3992 81.54-30.1989-212 4.0808-305.21c34.2797-93.215 107.8094-191.239 231.3094-184.04z" fill="#cfa87d"/><path d="m87.5568 1287.46c2.9138 5.67 95.7142-45.33 150.2012-109.88 54.488-64.55 77.267-189.648 16.569-208.663-60.698-19.016-108.34 65.123-134.571 130.353-26.2301 65.22-35.8616 181.08-32.1992 188.19z" fill="#bf905c"/><g fill="#834538"><path d="m208.686 1005.49c-13.598-1.31-25.073 23.07-27.739 29.89-2.666 6.81-8.979 31.35 5.267 33.53 14.247 2.18 26.908-26.77 31.563-42.88 3.344-11.58 4.507-19.22-9.091-20.54z"/><path d="m226.629 1042.48c-7.678 15.31-30.572 49.57-21.36 57.79 4.804 4.28 14.84 8.83 27.82-21.79 13.468-31.77 31.284-58.82 19.507-68.24-11.776-9.42-18.289 16.93-25.967 32.24z"/><path d="m252.706 1068.52c-2.334 6.39-16.147 37.49-6.862 39.59 9.285 2.09 11.214-1.82 14.6-10.53 3.387-8.71 15.814-49.65 9.624-52.18s-12.893 10.9-17.362 23.12z"/></g><path d="m725.596 108.568s45.332-100.00771 50.797-101.91309 73.996 21.00099 76.732 32.49219c2.737 11.4912-45.911 112.8929-46.214 113.0909" fill="#f1f1f1"/></g><g stroke-width="4.82253"><path d="m777.351 7.93848s19.012 34.05912 76.927 33.92792" fill="none"/><g fill="#5a63c2"><path d="m711.942 831.124s20.622.522 25.158 7.83c4.536 7.307-10.475 31.893-10.475 31.893s9.05 28.617 3.594 50.639c-6.175 24.925-18.383 43.715-42.435 61.095-24.051 17.38-36.874-13.233-36.874-13.233s-10.351-30.529-.015-55.194c11.595-27.666 18.667-42.733 48.918-53.335 1.951-.684 12.18-28.995 12.129-29.695z"/><path d="m648.386 977.162s-10.76 25.928-10.861 26.178c-.102.25-14.047-1.77-20.844 8.44-6.798 10.2-22.82 58.06-21.614 62.05 1.207 3.98.282 8.6 7.864 12.08 7.581 3.48 34.631 14.83 37.307 15.25 2.677.42 12.225 4.63 21.16-10.52 8.935-15.16 23.572-52.39 20.452-60.75s-5.436-12.75-5.436-12.75 10.928-28.589 10.978-28.691"/><path d="m674.803 968.716c7.333 1.961 23.007 11.769 22.552 16.597-.454 4.828-3.892 7.951-9.438 4.928-5.546-3.024-9.91-6.454-19.557-9.527-8.896-2.834-25.094 2.589-26.741-7.13-1.646-9.72 14.209-9.94 33.184-4.868z"/><path d="m593.087 1113.31c-.039-.06 10.626-28.84 11.826-30.73 1.201-1.89 28.916.93 33.786 13 .249.62-13.214 32.44-13.214 32.44s-21.609 2.03-32.398-14.71z"/></g></g></g><path d="m626.64 1127.66s-9.7-14.55-25.429-15.8" fill="#5a63c2"/><path d="m601.219 1111.88c5.819.98 11.044 3.57 15.437 7.53 1.688 1.52 3.196 3.2 4.656 4.93 1.212 1.44 2.545 2.91 3.5 4.54.677 1 2.058 1.27 3.063.59s1.27-2.03.594-3.03c-2.632-3.76-6.311-6.81-10.188-9.19-5.222-3.21-10.915-5.22-17.062-5.37z"/><path d="m771.698 123.404c33.863 17.348 61.472 28.883 62.752 33.135s-3.05 13.779-9.825 12.444c-5.639-1.111-39.321-13.379-79.536-34.843-32.743-17.475-44.94-28.928-37.421-38.0882 6.02-7.3341 11.345-.7416 18.715 3.4551 7.371 4.1971 44.921 23.6951 45.315 23.8971z"/></g></svg>