<?xml version="1.0" encoding="UTF-8" standalone="no"?>
<!DOCTYPE svg PUBLIC "-//W3C//DTD SVG 1.1//EN" "http://www.w3.org/Graphics/SVG/1.1/DTD/svg11.dtd">
<svg width="100%" height="100%" viewBox="0 0 63 62" version="1.1" xmlns="http://www.w3.org/2000/svg" xmlns:xlink="http://www.w3.org/1999/xlink" xml:space="preserve" xmlns:serif="http://www.serif.com/" style="fill-rule:evenodd;clip-rule:evenodd;stroke-linecap:round;stroke-linejoin:round;stroke-miterlimit:10;">
    <g transform="matrix(1,0,0,1,-333.16,-22.2841)">
        <path d="M334.722,55.323C332.83,39.879 344.156,25.784 360.019,23.841C375.882,21.898 390.275,32.844 392.166,48.288C394.058,63.732 382.732,77.827 366.869,79.77C351.006,81.713 336.613,70.768 334.722,55.323Z" style="fill:white;fill-rule:nonzero;"/>
        <rect x="379.967" y="59.651" width="2.957" height="4.858" style="fill:rgb(231,76,60);fill-rule:nonzero;"/>
        <rect x="347.813" y="59.817" width="10.599" height="4.491" style="fill:rgb(230,126,34);fill-rule:nonzero;"/>
        <g>
            <path d="M347.934,59.764C347.462,60.826 347.421,63.39 348.11,64.132C348.504,64.556 364.964,64.462 371.875,64.579C376.3,64.654 382.519,64.763 383.002,64.525C383.485,64.288 383.206,59.839 382.902,59.679C382.371,59.4 369.242,59.732 363.527,59.712L347.934,59.764Z" style="fill:none;fill-rule:nonzero;stroke:black;stroke-width:0.88px;"/>
            <path d="M358.146,64.299C358.657,62.971 358.269,61.493 358.085,60.104" style="fill:none;fill-rule:nonzero;stroke:black;stroke-width:0.88px;"/>
            <path d="M379.749,64.391C380.729,62.356 379.819,61.076 379.776,59.855" style="fill:none;fill-rule:nonzero;stroke:black;stroke-width:0.88px;"/>
        </g>
        <path d="M382.975,56.268C381.736,53.752 384.042,52.537 383.038,50.582C382.649,49.824 380.586,49.959 380.561,49.766C380.447,48.908 381.203,47.473 381.323,46.574C381.728,43.545 380.176,37.904 376.329,37.183C374.587,36.856 372.02,39.761 372.029,39.501C372.29,31.803 364.641,33.683 362.37,35.385C360.908,36.48 359.403,39.93 361.465,41.973C362.724,43.221 365.736,43.115 365.691,43.321C365.53,44.055 364.384,44.677 364.238,45.77C363.706,49.747 366.926,52.065 373.545,51.201C373.825,51.164 373.105,53.755 374.325,54.858C377.145,57.41 383.057,56.434 382.975,56.268Z" style="fill:rgb(207,207,207);fill-rule:nonzero;stroke:black;stroke-width:0.88px;"/>
        <path d="M362.98,23.225C355.623,23.166 345.68,25.247 339.004,35.385C330.732,47.948 333.346,64.864 343.681,74.104C354.385,83.674 365.783,84.013 374.557,82.047C388.845,78.845 396.497,63.18 394.581,49.717C392.86,37.627 385.034,27.429 372.197,24.384C370.881,24.072 367.394,23.261 362.98,23.225ZM364.518,28.382C368.795,28.295 373.654,29.276 378.244,32.53C385.845,37.918 390.494,47.008 389.743,56.81C389.531,59.584 385.725,71.76 381.525,71.005C380.715,70.86 351.568,32.708 351.748,32.046C351.86,31.633 357.39,28.527 364.518,28.382ZM345.92,35.534C346.398,35.098 353.665,45.35 361.225,55.447C368.815,65.584 376.696,75.568 376.565,75.631C370.161,78.681 362.312,77.501 357.133,75.603C343.056,70.446 341.03,62.225 339.952,58.831C337.399,50.788 339.962,40.963 345.92,35.534Z" style="fill:rgb(231,76,60);fill-rule:nonzero;stroke:black;stroke-width:1.88px;"/>
    </g>
</svg>
