<svg clip-rule="evenodd" stroke-linecap="round" stroke-linejoin="round" stroke-miterlimit="10" viewBox="0 0 124.676 90.5434" xmlns="http://www.w3.org/2000/svg"><g fill="none" stroke="#000" stroke-linecap="round" stroke-linejoin="round" stroke-width="2.5"><path d="m60.3118 39.0652c-3.0604.8938-19.2949 13.3637-20.3649 15.9791-2.0081 4.9086.2757 21.6523 1.1434 23.2443.0811.1487 18.4225 9.662 22.6675 10.2948 1.0162.1515 19.7867-9.5841 21.1232-12.6531.8069-1.8528.7192-23.8519-.0589-24.1908-3.7976-1.6538-20.9665-13.7093-24.5103-12.6743z"/><path d="m66.5979 52.6631c-10.1833-5.7354-21.1357 11.0096-15.1912 18.1185 5.7071 6.8252 20.7581 7.8017 23.6456-2.6429 1.7484-6.3242 1.2513-10.0092-8.4544-15.4756z"/><path d="m61.1898 38.275c-.0564.6316-.2172-2.6306-.2591-3.0154-.1429-1.3131-.2376-2.7344-.3402-4.0786-.3505-4.5932-.7674-8.7377-.3599-13.306"/><path d="m59.7618 2.26545c-5.3184-2.063049-5.7371 12.47285 2.0418 10.13855 2.7579-.8276 1.8025-8.64726-2.0418-10.13855z"/><path d="m67.4869 3.36101c.0938-1.05112.8199 6.75329.6378 8.79419"/><path d="m73.4229 2.87461c.119-1.33349-.04 7.56509.7675 9.61849"/><path d="m69.8776 8.45091.6047.05395 1.2275-.09369.6048.05396.4212-.16562.6047.05395"/><path d="m85.8808 51.3273c-.0309.3464 12.5892-10.7706 17.0212-14.4765"/><path d="m102.771 36.8659c.414-4.6485-.183-15.9318-.494-20.1811"/><path d="m103.652 37.4999c5.994 3.6967 15.705 7.6708 18.574 10.1505"/><path d="m39.5765 54.6163c-.5795-1.4737-11.8155-6.6798-17.6264-10.2635"/><path d="m21.1688 43.0127c.0108-5.6625-.5157-19.5911-.9715-22.9022"/><path d="m21.1692 43.9066c-5.9142 4.9454-12.86041 8.8037-18.74198 13.7218"/></g></svg>