<?xml version="1.0" encoding="UTF-8" standalone="no"?>
<!DOCTYPE svg PUBLIC "-//W3C//DTD SVG 1.1//EN" "http://www.w3.org/Graphics/SVG/1.1/DTD/svg11.dtd">
<svg width="100%" height="100%" viewBox="0 0 2129 1018" version="1.1" xmlns="http://www.w3.org/2000/svg" xmlns:xlink="http://www.w3.org/1999/xlink" xml:space="preserve" xmlns:serif="http://www.serif.com/" style="fill-rule:evenodd;clip-rule:evenodd;stroke-linecap:round;stroke-linejoin:round;stroke-miterlimit:1.5;">
    <g transform="matrix(1,0,0,1,-176.06,-380.133)">
        <g transform="matrix(0.938227,0,0,0.938227,119.031,168.598)">
            <g>
                <g>
                    <g transform="matrix(0.538398,0,0,1,901.506,-37.9752)">
                        <path d="M1556.31,483.627C1556.31,483.627 1555.29,324.436 1556.31,322.119C1559.79,314.174 1644.15,277.129 1644.04,284C1643.92,290.871 1644.04,477.627 1644.04,477.627" style="fill:rgb(168,168,168);stroke:black;stroke-width:11.06px;"/>
                    </g>
                    <g transform="matrix(0.538398,0,0,1,938.391,-37.9752)">
                        <path d="M1556.31,483.627C1556.31,483.627 1555.29,324.436 1556.31,322.119C1559.79,314.174 1644.15,277.129 1644.04,284C1643.92,290.871 1644.04,477.627 1644.04,477.627" style="fill:rgb(168,168,168);stroke:black;stroke-width:11.06px;"/>
                    </g>
                    <g transform="matrix(0.538398,0,0,1,978.019,-37.9752)">
                        <path d="M1556.31,483.627C1556.31,483.627 1555.29,324.436 1556.31,322.119C1559.79,314.174 1644.15,277.129 1644.04,284C1643.92,290.871 1644.04,477.627 1644.04,477.627" style="fill:rgb(168,168,168);stroke:black;stroke-width:11.06px;"/>
                    </g>
                    <g transform="matrix(0.893541,0,0,0.876062,181.087,59.9398)">
                        <path d="M1556.31,483.627C1556.31,483.627 1555.29,324.436 1556.31,322.119C1559.79,314.174 1701.12,311.129 1701,318C1700.88,324.871 1701,477.627 1701,477.627" style="fill:white;stroke:black;stroke-width:10.04px;"/>
                    </g>
                    <g transform="matrix(1,0,0,0.746233,0,121.206)">
                        <path d="M1673,477.627C1673,477.627 1666.92,377.905 1674,377C1681.08,376.095 1981.02,369.896 1983,373C1984.98,376.104 1988,477.627 1988,477.627" style="fill:white;stroke:black;stroke-width:10.07px;"/>
                    </g>
                </g>
                <g>
                    <g transform="matrix(1,0,0,0.96056,0,18.8376)">
                        <path d="M1521,1335.75C1521,1335.75 1707.61,1335.8 1895.17,1338.56C2082.13,1341.32 2270.05,1338.8 2270,1333.75C2269.75,1307.61 2274.33,498.436 2270,489.906C2262.62,475.375 1526.62,471.789 1527,489.906C1527.38,508.023 1521,1335.75 1521,1335.75Z" style="fill:rgb(227,183,149);stroke:black;stroke-width:9.06px;"/>
                    </g>
                    <g>
                        <g transform="matrix(0.133044,0,0,0.191506,1376.64,477.158)">
                            <path d="M1521,1335.75C1521,1335.75 2270.1,1359.89 2270,1333.75C2269.9,1307.61 2274.33,498.436 2270,489.906C2262.62,475.375 1526.62,471.789 1527,489.906C1527.38,508.023 1521,1335.75 1521,1335.75Z" style="fill:rgb(76,76,76);stroke:black;stroke-width:53.87px;"/>
                        </g>
                        <g transform="matrix(-0.133044,0,0,-0.191506,2389.54,1063.04)">
                            <path d="M1521,1335.75C1521,1335.75 2270.1,1359.89 2270,1333.75C2269.9,1307.61 2274.33,498.436 2270,489.906C2262.62,475.375 1526.62,471.789 1527,489.906C1527.38,508.023 1521,1335.75 1521,1335.75Z" style="fill:rgb(76,76,76);stroke:black;stroke-width:53.87px;"/>
                        </g>
                        <g transform="matrix(0.133044,0,0,0.191506,1376.64,941.495)">
                            <path d="M1521,1335.75C1521,1335.75 2270.1,1359.89 2270,1333.75C2269.9,1307.61 2274.33,498.436 2270,489.906C2262.62,475.375 1526.62,471.789 1527,489.906C1527.38,508.023 1521,1335.75 1521,1335.75Z" style="fill:rgb(76,76,76);stroke:black;stroke-width:53.87px;"/>
                        </g>
                        <g transform="matrix(0.133044,0,0,0.191506,1546.07,477.158)">
                            <path d="M1521,1335.75C1521,1335.75 2270.1,1359.89 2270,1333.75C2269.9,1307.61 2274.33,498.436 2270,489.906C2262.62,475.375 1526.62,471.789 1527,489.906C1527.38,508.023 1521,1335.75 1521,1335.75Z" style="fill:rgb(76,76,76);stroke:black;stroke-width:53.87px;"/>
                        </g>
                        <g transform="matrix(-0.133044,0,0,-0.191506,2220.12,1063.04)">
                            <path d="M1521,1335.75C1521,1335.75 2270.1,1359.89 2270,1333.75C2269.9,1307.61 2274.33,498.436 2270,489.906C2262.62,475.375 1526.62,471.789 1527,489.906C1527.38,508.023 1521,1335.75 1521,1335.75Z" style="fill:rgb(76,76,76);stroke:black;stroke-width:53.87px;"/>
                        </g>
                        <g transform="matrix(0.133044,0,0,0.191506,1546.07,941.495)">
                            <path d="M1521,1335.75C1521,1335.75 2270.1,1359.89 2270,1333.75C2269.9,1307.61 2274.33,498.436 2270,489.906C2262.62,475.375 1526.62,471.789 1527,489.906C1527.38,508.023 1521,1335.75 1521,1335.75Z" style="fill:rgb(76,76,76);stroke:black;stroke-width:53.87px;"/>
                        </g>
                        <g transform="matrix(0.133044,0,0,-0.191506,1715.49,1290.71)">
                            <path d="M1521,1335.75C1521,1335.75 2270.1,1359.89 2270,1333.75C2269.9,1307.61 2274.33,498.436 2270,489.906C2262.62,475.375 1526.62,471.789 1527,489.906C1527.38,508.023 1521,1335.75 1521,1335.75Z" style="fill:rgb(76,76,76);stroke:black;stroke-width:53.87px;"/>
                        </g>
                        <g transform="matrix(-0.133044,0,0,0.191506,2050.69,712.827)">
                            <path d="M1521,1335.75C1521,1335.75 2270.1,1359.89 2270,1333.75C2269.9,1307.61 2274.33,498.436 2270,489.906C2262.62,475.375 1526.62,471.789 1527,489.906C1527.38,508.023 1521,1335.75 1521,1335.75Z" style="fill:rgb(76,76,76);stroke:black;stroke-width:53.87px;"/>
                        </g>
                        <g transform="matrix(0.133044,0,0,-0.191506,1715.49,826.376)">
                            <path d="M1521,1335.75C1521,1335.75 2270.1,1359.89 2270,1333.75C2269.9,1307.61 2274.33,498.436 2270,489.906C2262.62,475.375 1526.62,471.789 1527,489.906C1527.38,508.023 1521,1335.75 1521,1335.75Z" style="fill:rgb(76,76,76);stroke:black;stroke-width:53.87px;"/>
                        </g>
                        <g transform="matrix(0.133044,0,0,-0.191506,1884.92,1290.71)">
                            <path d="M1521,1335.75C1521,1335.75 2270.1,1359.89 2270,1333.75C2269.9,1307.61 2274.33,498.436 2270,489.906C2262.62,475.375 1526.62,471.789 1527,489.906C1527.38,508.023 1521,1335.75 1521,1335.75Z" style="fill:rgb(76,76,76);stroke:black;stroke-width:53.87px;"/>
                        </g>
                        <g transform="matrix(-0.133044,0,0,0.191506,1881.26,712.827)">
                            <path d="M1521,1335.75C1521,1335.75 2270.1,1359.89 2270,1333.75C2269.9,1307.61 2274.33,498.436 2270,489.906C2262.62,475.375 1526.62,471.789 1527,489.906C1527.38,508.023 1521,1335.75 1521,1335.75Z" style="fill:rgb(76,76,76);stroke:black;stroke-width:53.87px;"/>
                        </g>
                        <g transform="matrix(0.133044,0,0,-0.191506,1884.92,806.376)">
                            <path d="M1521,1335.75C1521,1335.75 2270.1,1359.89 2270,1333.75C2269.9,1307.61 2274.33,498.436 2270,489.906C2262.62,475.375 1526.62,471.789 1527,489.906C1527.38,508.023 1521,1335.75 1521,1335.75Z" style="fill:rgb(76,76,76);stroke:black;stroke-width:53.87px;"/>
                        </g>
                    </g>
                </g>
                <path d="M1557,654C1557,654 2224.09,646.384 2229.94,657.881C2235.79,669.377 2234.98,763.693 2230,762C2225.02,760.307 1559.18,762.96 1558,762C1554.9,759.482 1557,654 1557,654Z" style="fill:rgb(253,221,197);stroke:black;stroke-width:4.44px;"/>
                <path d="M1557,654C1557,654 2224.09,646.384 2229.94,657.881C2235.79,669.377 2234.98,763.693 2230,762C2225.02,760.307 1559.18,762.96 1558,762C1554.9,759.482 1557,654 1557,654Z" style="fill:rgb(253,221,197);stroke:black;stroke-width:4.44px;"/>
                <g transform="matrix(1,0,0,1,0,232.909)">
                    <path d="M1557,654C1557,654 2224.09,646.384 2229.94,657.881C2235.79,669.377 2234.98,763.693 2230,762C2225.02,760.307 1559.18,762.96 1558,762C1554.9,759.482 1557,654 1557,654Z" style="fill:rgb(253,221,197);stroke:black;stroke-width:4.44px;"/>
                </g>
                <g transform="matrix(1,0,0,1,0,232.909)">
                    <path d="M1557,654C1557,654 2224.09,646.384 2229.94,657.881C2235.79,669.377 2234.98,763.693 2230,762C2225.02,760.307 1559.18,762.96 1558,762C1554.9,759.482 1557,654 1557,654Z" style="fill:rgb(253,221,197);stroke:black;stroke-width:4.44px;"/>
                </g>
                <g transform="matrix(1,0,0,1,1.26326,455.106)">
                    <path d="M1557,654C1557,654 2224.09,646.384 2229.94,657.881C2235.79,669.377 2234.98,763.693 2230,762C2225.02,760.307 1559.18,762.96 1558,762C1554.9,759.482 1557,654 1557,654Z" style="fill:rgb(253,221,197);stroke:black;stroke-width:4.44px;"/>
                </g>
            </g>
            <g transform="matrix(1,0,0,1,1.26326,455.106)">
                <path d="M1557,654C1557,654 2224.09,646.384 2229.94,657.881C2235.79,669.377 2234.98,763.693 2230,762C2225.02,760.307 1559.18,762.96 1558,762C1554.9,759.482 1557,654 1557,654Z" style="fill:rgb(253,221,197);stroke:black;stroke-width:4.44px;"/>
            </g>
            <g transform="matrix(1,0,0,1,-49.328,-24.5281)">
                <g transform="matrix(1,0,0,0.762283,-2.84217e-14,60.4827)">
                    <path d="M1967.81,262C1967.81,262 1954.25,872.257 1967.81,874.016C1981.36,875.775 2362.31,888.561 2364,874.016C2365.69,859.471 2382.13,262.653 2370,259C2357.87,255.347 1968.4,249.586 1967.81,262Z" style="fill:rgb(243,243,243);stroke:black;stroke-width:9.99px;"/>
                </g>
                <g opacity="0.1">
                    <g transform="matrix(1,0,0,0.766654,2.13163e-13,59.1421)">
                        <path d="M2014.99,256.292C2013.87,432.208 2010.77,875.824 2010.77,875.824" style="fill:none;stroke:black;stroke-width:4.98px;"/>
                        <g transform="matrix(1,0,0,1,8,0.343663)">
                            <path d="M2049,875.824L2052.48,255.191" style="fill:none;stroke:black;stroke-width:4.98px;"/>
                        </g>
                        <g transform="matrix(1,0,0,1,53.6284,0)">
                            <path d="M2049,875.824C2049,875.824 2054.32,601.069 2052.48,255.191" style="fill:none;stroke:black;stroke-width:4.98px;"/>
                        </g>
                        <g transform="matrix(1,0,0,1,100.306,0)">
                            <path d="M2049,875.824C2049,875.824 2054.32,601.069 2052.48,255.191" style="fill:none;stroke:black;stroke-width:4.98px;"/>
                        </g>
                        <g transform="matrix(1,0,0,1,143.716,0.343663)">
                            <path d="M2049,875.824C2049,875.824 2054.32,601.069 2052.48,255.191" style="fill:none;stroke:black;stroke-width:4.98px;"/>
                        </g>
                        <g transform="matrix(1,0,0,1,186.734,-1.01135)">
                            <path d="M2049,875.824C2049,875.824 2054.32,601.069 2052.48,255.191" style="fill:none;stroke:black;stroke-width:4.98px;"/>
                        </g>
                        <g transform="matrix(1,0,0,1,230.409,-1.01135)">
                            <path d="M2049,875.824C2049,875.824 2054.32,601.069 2052.48,255.191" style="fill:none;stroke:black;stroke-width:4.98px;"/>
                        </g>
                        <g transform="matrix(1,0,0,1,277.794,-1.73795)">
                            <path d="M2049,875.824C2049,875.824 2054.32,601.069 2052.48,255.191" style="fill:none;stroke:black;stroke-width:4.98px;"/>
                        </g>
                    </g>
                    <g>
                        <path d="M1964.74,423.585C1964.74,423.585 2223.59,425.847 2374.43,424" style="fill:none;stroke:black;stroke-width:4.44px;"/>
                        <path d="M1964.74,576C1964.74,576 2271.13,577.413 2371.91,576.904" style="fill:none;stroke:black;stroke-width:4.44px;"/>
                    </g>
                </g>
                <g transform="matrix(0.459345,0,0,0.459345,1274.56,158.078)">
                    <g transform="matrix(1.49903,0,0,1,-1083.51,0)">
                        <path d="M2137.23,320C2137.23,320 2131.35,615.716 2137.23,615C2143.12,614.284 2203.62,618.939 2204,613C2204.38,607.061 2210.96,321.264 2206,320C2201.04,318.736 2139.7,316.854 2137.23,320Z" style="fill:rgb(231,76,60);"/>
                    </g>
                    <g transform="matrix(8.16498e-17,1.33344,-1,6.12323e-17,2638.4,-2432.04)">
                        <path d="M2137.23,320C2137.23,320 2131.35,615.716 2137.23,615C2143.12,614.284 2203.62,618.939 2204,613C2204.38,607.061 2210.96,321.264 2206,320C2201.04,318.736 2139.7,316.854 2137.23,320Z" style="fill:rgb(231,76,60);"/>
                    </g>
                </g>
                <g transform="matrix(1.06584,0,0,1.06584,-62.5387,-135.985)">
                    <g transform="matrix(1.20052,0,0,1.20052,-372.727,104.755)">
                        <g transform="matrix(61.426,0,0,61.426,2063.39,482)">
                        </g>
                        <text x="1928px" y="482px" style="font-family:'Helvetica-Bold', 'Helvetica';font-weight:700;font-size:61.426px;">Y<tspan x="1964.44px 2001.96px " y="482px 482px ">ou</tspan>r</text>
                    </g>
                    <g transform="matrix(1.20052,0,0,1.20052,-372.727,183.852)">
                        <g transform="matrix(61.426,0,0,61.426,2170.31,482)">
                        </g>
                        <text x="1928px" y="482px" style="font-family:'Helvetica-Bold', 'Helvetica';font-weight:700;font-size:61.426px;">Hospital</text>
                    </g>
                </g>
            </g>
        </g>
        <g id="Machine" transform="matrix(1,0,0,1,-565.656,68.0354)">
            <g transform="matrix(0.739901,0,0,0.739901,274.352,183.565)">
                <path d="M863,902.146C863,902.146 818.77,950.66 819,1021C819.23,1091.34 862.781,1103.25 866,1124C869.219,1144.75 867.568,1144.48 870,1148C873.677,1153.33 878.709,1151.67 879,1140C879.291,1128.33 881.256,1122.88 884,1119C892.187,1107.42 929.489,1083.16 926.528,1014.23C924.216,960.397 891.554,911.751 883,903.34" style="fill:rgb(26,188,156);stroke:black;stroke-width:8.33px;"/>
            </g>
            <g transform="matrix(0.80156,0,0,0.739901,219.281,185.163)">
                <path d="M1058.81,945.416C1058.81,945.416 912.782,870.327 890,874.016C888.933,874.189 890,899.451 890,899.451L856,899.451L856,845.329C856,845.329 889.284,842.31 922,850C954.716,857.69 1096,936.284 1096,936.284" style="fill:rgb(217,217,217);stroke:black;stroke-width:8.33px;"/>
            </g>
            <g transform="matrix(0.398447,0,0,0.426993,623.855,509.829)">
                <path d="M941.456,936.326C941.456,936.326 940.1,919.142 944,916C947.9,912.858 949.358,914.243 951,910C952.537,906.029 951.163,864.587 956,861.378C961.748,857.565 999.932,858.939 1003,861.378C1006.95,864.519 1005.07,907.46 1007,911C1009.61,915.79 1012.94,913.547 1015.39,917C1017.41,919.838 1017.07,937.038 1017.07,937.038" style="fill:rgb(26,188,156);stroke:black;stroke-width:8.33px;"/>
            </g>
            <g transform="matrix(0.739901,0,0,0.739901,344.438,217.179)">
                <g transform="matrix(1,0,0,1,0,-47)">
                    <path d="M920,1085.1C920,1085.1 918.154,1237.28 920,1243.53C921.846,1249.78 924.667,1251.26 931,1252.36C937.333,1253.46 1059.59,1256.44 1065,1252.36C1070.41,1248.29 1070.04,1243.05 1070,1235.51C1069.96,1227.96 1070.48,1087 1070.48,1087" style="fill:white;stroke:black;stroke-width:11.26px;"/>
                </g>
                <g transform="matrix(1,0,0,1,0,-47)">
                    <path d="M939,1102C939,1102 933.809,1108.26 938,1116C942.191,1123.74 943.229,1132.5 940,1141C936.771,1149.5 932.672,1157.76 936,1166.64C939.328,1175.52 944.394,1182.33 940,1192C935.606,1201.67 930.72,1211.57 935,1221C939.28,1230.43 933.794,1239.03 950,1235.51C966.206,1231.98 977.716,1231.39 988,1235.51C998.284,1239.62 1006.63,1229.75 1022.41,1233.81C1038.18,1237.86 1053.5,1236.76 1052,1226C1050.5,1215.24 1042.44,1214.21 1047,1201C1051.56,1187.79 1058.24,1187.37 1052,1169.78C1045.76,1152.18 1045.05,1149.49 1048,1139C1050.95,1128.51 1059.11,1124.97 1051,1111.31C1042.89,1097.64 1044.18,1097.71 1032,1100C1019.82,1102.29 1015.85,1104.24 1006.2,1102C996.55,1099.76 993.573,1093.47 979,1098C964.427,1102.53 953.828,1091.27 946,1096C938.172,1100.73 939,1102 939,1102Z" style="fill:rgb(248,229,255);"/>
                </g>
                <g transform="matrix(1,0,0,1,0,-47)">
                    <path d="M982,1087C982,1087 967.757,1182.81 982.919,1254C983.106,1254.88 1006.41,1254.44 1006.41,1254.44C1006.41,1254.44 995.046,1180.17 1007.41,1087" style="fill:rgb(117,117,117);stroke:black;stroke-width:11.26px;"/>
                </g>
                <g transform="matrix(1,0,0,1,0,-47)">
                    <path d="M905.393,1045.41C905.393,1045.41 904.021,1075.1 906,1078C907.979,1080.9 908.136,1084.75 915,1085C921.864,1085.25 1066.04,1087.07 1073,1087C1079.96,1086.93 1084.06,1085.01 1084,1078C1083.94,1070.99 1084.06,1048.36 1084.06,1048.36" style="fill:rgb(117,117,117);stroke:black;stroke-width:11.26px;"/>
                </g>
            </g>
            <g transform="matrix(0.682247,0,0,0.682247,375.613,273.508)">
                <g transform="matrix(0.753599,0,0,0.753599,414.51,312.138)">
                    <g transform="matrix(0.847252,0,0,1,659.189,-2.13163e-14)">
                        <path d="M1197.91,1522.74L1198.28,1443.94L1127.28,1443.57L1127.28,1522.74L1197.91,1522.74Z" style="fill:rgb(185,185,185);stroke:black;stroke-width:17.49px;"/>
                    </g>
                    <g transform="matrix(1,0,0,1,512.46,-16)">
                        <circle cx="1101.82" cy="1546" r="71" style="fill:rgb(109,109,109);stroke:black;stroke-width:16.21px;"/>
                    </g>
                    <g transform="matrix(1,0,0,1,512.46,-16)">
                        <circle cx="1101.82" cy="1546" r="38.473" style="fill:white;"/>
                    </g>
                </g>
                <g transform="matrix(0.753599,0,0,0.753599,90.0787,308.698)">
                    <g transform="matrix(0.847252,0,0,1,659.189,-2.13163e-14)">
                        <path d="M1197.91,1522.74L1198.28,1443.94L1127.28,1443.57L1127.28,1522.74L1197.91,1522.74Z" style="fill:rgb(185,185,185);stroke:black;stroke-width:17.49px;"/>
                    </g>
                    <g transform="matrix(1,0,0,1,512.46,-16)">
                        <circle cx="1101.82" cy="1546" r="71" style="fill:rgb(109,109,109);stroke:black;stroke-width:16.21px;"/>
                    </g>
                    <g transform="matrix(1,0,0,1,512.46,-16)">
                        <circle cx="1101.82" cy="1546" r="38.473" style="fill:white;"/>
                    </g>
                </g>
                <g transform="matrix(0.773789,0,0,1,356.679,-77)">
                    <path d="M1841.99,1087.51C1841.99,1087.51 1803.14,1414.16 1797,1433C1790.86,1451.84 1795.33,1477.63 1742,1477C1688.67,1476.37 1177.81,1473.22 1153,1473C1128.19,1472.78 1106.1,1468.13 1101,1443C1095.9,1417.87 1050,1054 1050,1054" style="fill:rgb(236,240,241);stroke:black;stroke-width:13.66px;"/>
                </g>
                <g transform="matrix(0.936038,0,0,1,113.981,-47)">
                    <g>
                        <g transform="matrix(1,0,0,1,0,-4.35452)">
                            <path d="M1142.17,1165.67C1142.17,1165.67 1145.19,1182.62 1222.61,1184.31C1300.03,1186 1667.66,1191.21 1714.07,1190C1760.47,1188.79 1770.66,1170.78 1770.66,1170.78" style="fill:none;stroke:black;stroke-width:9.46px;"/>
                        </g>
                        <g transform="matrix(0.956163,0,0,1,64.3133,133.293)">
                            <path d="M1142.17,1165.67C1142.17,1165.67 1145.19,1182.62 1222.61,1184.31C1300.03,1186 1667.66,1190.21 1714.07,1189C1760.47,1187.79 1770.66,1169.78 1770.66,1169.78" style="fill:none;stroke:black;stroke-width:9.65px;"/>
                        </g>
                        <g transform="matrix(1,0,0,1,12.6261,-0.813573)">
                            <path d="M1362.8,1186.64C1362.8,1186.64 1367.1,1213.29 1401.18,1215.75C1432.33,1218 1476.71,1219.46 1496,1213C1515.29,1206.54 1521.22,1188.75 1521.22,1188.75" style="fill:rgb(26,188,156);stroke:black;stroke-width:12.61px;"/>
                        </g>
                        <g transform="matrix(1,0,0,1,12.6261,-130.537)">
                            <path d="M1362.8,1186.64C1362.8,1186.64 1367.1,1213.29 1401.18,1215.75C1432.33,1218 1476.71,1219.46 1496,1213C1515.29,1206.54 1521.22,1188.75 1521.22,1188.75" style="fill:rgb(26,188,156);stroke:black;stroke-width:12.61px;"/>
                        </g>
                        <g transform="matrix(1,0,0,1,12.6261,135.868)">
                            <path d="M1362.8,1186.64C1362.8,1186.64 1367.1,1213.29 1401.18,1215.75C1432.33,1218 1476.71,1219.46 1496,1213C1515.29,1206.54 1521.22,1188.75 1521.22,1188.75" style="fill:rgb(26,188,156);stroke:black;stroke-width:12.61px;"/>
                        </g>
                    </g>
                </g>
            </g>
            <g transform="matrix(0.58179,0,0,0.664733,533.672,288.459)">
                <path d="M1782.14,948.268C1782.14,948.268 1790.43,457.532 1782,450C1773.57,442.468 1137.78,436.037 1135,445C1132.22,453.963 1124.24,920.392 1128.51,936.748" style="fill:white;stroke:black;stroke-width:13.34px;"/>
            </g>
            <g id="Bellows" transform="matrix(0.650049,0,0,0.650049,457.029,301.306)">
                <g transform="matrix(1,0,0,0.915106,-5.68434e-14,79.4849)">
                    <path d="M1090.03,936.285C1090.03,936.285 1095.37,740.849 1090.03,741C1084.69,741.151 920,742 920,742L920,934.612" style="fill:rgb(219,255,242);stroke:black;stroke-width:12.04px;"/>
                </g>
                <g transform="matrix(1,0,0,1,-0.206081,17.7634)">
                    <path d="M957,748C957,748 1090.68,746.578 1096.4,745.972C1101.87,745.392 1106.12,736.042 1094.03,734C1081.93,731.958 920,734 920,734C920,734 910.665,734.886 911,741C911.335,747.114 915.915,747.997 928,748C940.085,748.003 957,748 957,748Z" style="fill:rgb(117,117,117);stroke:black;stroke-width:11.54px;"/>
                </g>
                <g transform="matrix(1.13822,0,0,1.13822,-250.288,-129.416)">
                    <g transform="matrix(1,0,0,0.528709,0,444.263)">
                        <path d="M1044,936.284L1050,926L1043,913.769L1051.91,899.451L1044,886L1051.91,870L1046,855L1051.91,843L1046,824.217L1051.91,809.109L1046,793L1162.34,793.891L1157,808.891L1163.34,823.474L1156,838L1163.34,854.026L1156,870L1163.34,886L1156,900.808L1163.34,913.769L1156,925L1160.14,936.284" style="fill:rgb(91,213,169);stroke:rgb(119,119,119);stroke-width:2.6px;"/>
                    </g>
                    <rect x="1041" y="860" width="127" height="5" style="fill:white;stroke:rgb(119,119,119);stroke-width:2.08px;"/>
                </g>
            </g>
            <g id="Table" transform="matrix(0.636659,0,0,0.449796,429.037,474.651)">
                <path d="M874.219,967.744C847.157,967.311 869.898,1074.09 887,1075C904.102,1075.91 1844.81,1090.36 1855,1087C1865.19,1083.64 1875.88,1079.85 1879,1066C1882.12,1052.15 1893.81,997.817 1875,987.455C1861.88,980.232 893.36,968.05 874.219,967.744Z" style="fill:rgb(236,240,241);stroke:black;stroke-width:15.12px;"/>
            </g>
            <g id="Cap" transform="matrix(0.452197,0,0,0.40537,758.265,174.95)">
                <path d="M847,1003C855.478,1025.25 869.898,1074.09 887,1075C904.102,1075.91 1844.81,1100.36 1855,1097C1865.19,1093.64 1875.88,1089.85 1879,1076C1882.12,1062.15 1903.81,993.362 1885,983C1871.88,975.776 880.062,962.143 861,965C841.938,967.857 838.522,980.746 847,1003Z" style="fill:rgb(236,240,241);stroke:black;stroke-width:19.41px;"/>
            </g>
            <g id="Flux-Capacitor" serif:id="Flux Capacitor" transform="matrix(0.519364,0,0,0.553785,627.905,309.528)">
                <g transform="matrix(1.03416,0,0,1.04098,-50.7297,-8.12081)">
                    <path d="M1488,832C1485.5,791.667 1483.61,620.143 1486,609C1488.39,597.857 1491.94,588.401 1508,588.609C1524.06,588.816 1696.36,589.338 1702,590.106C1713.48,591.667 1718.29,598.118 1719,620C1719.39,631.946 1717.97,827.619 1717,838.643C1716.03,849.666 1712.48,857.236 1697,857C1681.52,856.764 1517.51,857.908 1506,855C1496.59,852.623 1489.26,852.384 1488,832Z" style="fill:rgb(56,56,56);stroke:black;stroke-width:13.46px;"/>
                </g>
                <g transform="matrix(-0.803559,-9.84075e-17,1.01934e-16,-0.832356,2893.27,1346.96)">
                    <path d="M1488,832C1485.5,791.667 1487.34,621.841 1489.73,610.698C1492.13,599.555 1500.65,588.401 1516.71,588.609C1532.78,588.816 1686.4,589.338 1692.04,590.106C1703.52,591.667 1714.56,598.118 1715.27,620C1715.65,631.946 1717.97,827.619 1717,838.643C1716.03,849.666 1706.25,858.437 1690.78,858.201C1675.3,857.966 1523.87,857.261 1512.03,856.201C1498.88,855.025 1489.26,852.384 1488,832Z" style="fill:rgb(119,119,119);stroke:black;stroke-width:17.06px;"/>
                </g>
                <g transform="matrix(1.36762,0,0,1,-586.779,-1.33608)">
                    <path d="M1605.98,822L1605.99,744C1605.99,744 1605,736.549 1602.4,736C1597.88,735.045 1596.22,737.202 1596,744C1595.78,750.798 1594.88,823.135 1596,824.435" style="fill:rgb(255,238,178);stroke:rgb(249,202,36);stroke-width:5.23px;"/>
                </g>
                <g transform="matrix(-0.879882,-0.937576,0.655566,-0.615225,2536.7,2680.78)">
                    <path d="M1605.98,822L1605.99,744C1605.99,744 1605,736.549 1602.4,736C1597.88,735.045 1596.22,737.202 1596,744C1595.78,750.798 1594.88,823.135 1596,824.435" style="fill:rgb(255,238,178);stroke:rgb(249,202,36);stroke-width:5.43px;"/>
                </g>
                <g transform="matrix(-1.04809,0.846862,-0.549861,-0.680517,3679.06,-128.482)">
                    <path d="M1605.98,822L1605.99,744C1605.99,744 1605,736.549 1602.4,736C1597.88,735.045 1596.22,737.202 1596,744C1595.78,750.798 1594.88,823.135 1596,824.435" style="fill:rgb(255,238,178);stroke:rgb(249,202,36);stroke-width:5.65px;"/>
                </g>
                <g transform="matrix(1,0,0,1,0,3.43315)">
                    <path d="M1549,660C1549,660 1560.74,655.435 1568,663C1575.26,670.565 1574.14,684.608 1564,688C1553.86,691.392 1544.19,692.235 1540,680C1535.81,667.765 1544.32,661.661 1549,660Z" style="fill:rgb(231,76,60);stroke:black;stroke-width:15.52px;"/>
                </g>
                <g transform="matrix(1,0,0,1,105.6,3.43315)">
                    <path d="M1549,660C1549,660 1560.74,655.435 1568,663C1575.26,670.565 1574.14,684.608 1564,688C1553.86,691.392 1544.19,692.235 1540,680C1535.81,667.765 1544.32,661.661 1549,660Z" style="fill:rgb(231,76,60);stroke:black;stroke-width:15.52px;"/>
                </g>
                <g transform="matrix(1,0,0,1,46.6306,144.68)">
                    <path d="M1549,660C1549,660 1560.74,655.435 1568,663C1575.26,670.565 1574.14,684.608 1564,688C1553.86,691.392 1544.19,692.235 1540,680C1535.81,667.765 1544.32,661.661 1549,660Z" style="fill:rgb(231,76,60);stroke:black;stroke-width:15.52px;"/>
                </g>
            </g>
            <g transform="matrix(0.554783,0,0,0.554783,742.026,396.975)">
                <g transform="matrix(1,0,0,1,0,183)">
                    <path d="M1218,694.451C1241.76,694.847 1355.98,696.912 1381,694.451C1406.01,691.99 1416.67,686.242 1417,657C1417.24,635.749 1417.29,635.212 1417,621.727C1416.63,604.31 1413.74,588.658 1381,588C1350.23,587.382 1233.41,588.31 1214,589C1194.59,589.69 1178.73,592.002 1179,620C1179.22,642.988 1177.31,640.445 1179,666C1180.69,691.555 1195.81,694.08 1218,694.451Z" style="fill:rgb(255,228,90);stroke:black;stroke-width:15.02px;"/>
                </g>
                <g transform="matrix(1,0,0,1,4,3)">
                    <circle cx="1235" cy="820" r="28" style="fill:rgb(56,56,56);stroke:black;stroke-width:15.02px;"/>
                </g>
                <g transform="matrix(0.795323,0,0,1,341.126,0)">
                    <path d="M1280.96,878.358L1280.68,771.102L1309.5,771.045L1310.41,877.207L1280.96,878.358Z" style="fill:rgb(56,56,56);stroke:black;stroke-width:16.63px;"/>
                </g>
                <g transform="matrix(0.762486,0,0,0.848485,309.581,120.758)">
                    <path d="M1296,797L1295,863L1325,863L1326,797L1296,797Z" style="fill:rgb(224,255,254);stroke:black;stroke-width:18.62px;"/>
                </g>
            </g>
            <g id="Extra-Oxygen" serif:id="Extra Oxygen" transform="matrix(0.682647,0,0,0.682647,399.587,379.666)">
                <g transform="matrix(1,0,0,1,3.68141,-18)">
                    <g transform="matrix(0.999631,-0.0271494,0.0271494,0.999631,-20.1764,33.5782)">
                        <path d="M1211,598.19C1211,598.19 1207.95,699.078 1209,703C1209.95,706.56 1213.19,710.807 1221,711C1228.81,711.193 1236.65,711.992 1239,711C1241.35,710.008 1243.62,708.321 1245,703C1246.69,696.51 1247.58,600.989 1247,596C1246.42,591.011 1243.84,588.802 1239,588C1235.11,587.355 1219.62,586.54 1216,588C1212.38,589.46 1210.89,593.01 1211,598.19Z" style="fill:rgb(223,249,251);stroke:black;stroke-width:12.21px;"/>
                    </g>
                    <g transform="matrix(1,0,0,1,-0.681406,0.279233)">
                        <rect x="1222" y="600" width="8" height="98" style="fill-opacity:0.5;"/>
                    </g>
                    <g transform="matrix(1,0,0,1,-3,0)">
                        <path d="M1223,642C1223,642 1222.56,652.32 1223,653C1223.44,653.68 1227.54,657.068 1228.32,657C1229.1,656.932 1234.12,653.775 1234,653C1233.88,652.225 1234,642 1234,642C1234,642 1223.48,641.334 1223,642Z" style="fill:rgb(235,77,75);stroke:black;stroke-width:6.1px;"/>
                    </g>
                </g>
                <g transform="matrix(0.662303,-0.749236,0.749236,0.662303,-137.67,1170.6)">
                    <path d="M1239,712C1246.89,711.727 1257.47,716.752 1257.61,728.054C1257.74,739.357 1250.17,746.281 1239,744.318C1227.83,742.356 1224.28,734.863 1224,728.054C1223.72,721.246 1227.41,712.402 1239,712Z" style="fill:rgb(26,188,156);stroke:black;stroke-width:12.21px;"/>
                    <g transform="matrix(1,0,0,0.293263,1.32461,505.229)">
                        <path d="M1240.16,717L1239.98,744.766" style="fill:none;stroke:black;stroke-opacity:0.49;stroke-width:8.28px;"/>
                    </g>
                </g>
            </g>
            <g id="Backup-Gas" serif:id="Backup Gas" transform="matrix(0.682647,0,0,0.682647,404.618,381.636)">
                <g transform="matrix(0.550223,0.835018,-0.835018,0.550223,1296.87,-740.759)">
                    <path d="M1239,712C1246.89,711.727 1257.47,716.752 1257.61,728.054C1257.74,739.357 1250.17,746.281 1239,744.318C1227.83,742.356 1224.28,734.863 1224,728.054C1223.72,721.246 1227.41,712.402 1239,712Z" style="fill:rgb(26,188,156);stroke:black;stroke-width:12.21px;"/>
                    <g transform="matrix(1,0,0,0.293263,1.32461,505.229)">
                        <path d="M1240.16,717L1239.98,744.766" style="fill:none;stroke:black;stroke-opacity:0.49;stroke-width:8.28px;"/>
                    </g>
                </g>
                <g transform="matrix(0.550223,0.835018,-0.835018,0.550223,1246.42,-740.759)">
                    <path d="M1239,712C1246.89,711.727 1257.47,716.752 1257.61,728.054C1257.74,739.357 1250.17,746.281 1239,744.318C1227.83,742.356 1224.28,734.863 1224,728.054C1223.72,721.246 1227.41,712.402 1239,712Z" style="fill:rgb(200,200,200);stroke:black;stroke-width:12.21px;"/>
                    <g transform="matrix(0.734295,-1.11436,1.11436,0.734295,-504.861,1689.27)">
                        <ellipse cx="1321.01" cy="696.039" rx="2.989" ry="2.961" style="fill:rgb(117,117,117);"/>
                    </g>
                </g>
                <g transform="matrix(2.2261,0,0,2.2261,-1414.6,-996.875)">
                    <path d="M1239.9,711.102C1247.79,710.828 1257.47,716.752 1257.61,728.054C1257.74,739.357 1249.83,745.936 1238.55,744.768C1228.28,743.704 1224.28,734.863 1224,728.054C1223.72,721.246 1228.31,711.503 1239.9,711.102Z" style="fill:white;stroke:black;stroke-width:5.48px;"/>
                    <g transform="matrix(0.449217,0,0,0.449217,635.462,447.813)">
                        <ellipse cx="1347.53" cy="623.717" rx="5.466" ry="5.283" style="fill:rgb(235,77,75);"/>
                    </g>
                    <g transform="matrix(0.449217,0,0,0.449217,633.666,448.711)">
                        <path d="M1347.53,622C1347.53,622 1370.59,609 1375,607C1375.96,606.565 1379.1,607.56 1375.5,610C1371.91,612.44 1349,625 1349,625L1347.53,622Z" style="fill:rgb(235,77,75);"/>
                    </g>
                </g>
                <path d="M1285,715.412C1285,725.416 1288.73,733.179 1305.78,733.092C1322.83,733.006 1386.49,735.127 1394,733.092C1401.51,731.058 1406.73,724.028 1407,715.412C1407.3,705.819 1407.31,593.896 1407,582C1406.69,570.104 1397.9,565.617 1388.92,564.948C1378.93,564.203 1321.09,563.435 1308.82,564C1296.55,564.565 1287.09,565.085 1286,580C1284.91,594.915 1285,705.408 1285,715.412Z" style="fill:none;stroke:black;stroke-width:12.21px;"/>
                <path d="M1293.87,715.412C1293.87,705.456 1293.76,595.491 1294.85,580.647C1295.02,578.293 1295.33,576.548 1296.22,575.352C1297.21,574.008 1298.9,573.833 1300.72,573.536C1303.29,573.118 1306.16,573.002 1309.23,572.861C1321.33,572.303 1378.4,573.059 1388.26,573.794C1392.95,574.144 1397.97,576.016 1398.13,582.232C1398.44,594.083 1398.43,705.579 1398.13,715.134C1397.99,719.61 1395.58,723.474 1391.68,724.53C1384.36,726.513 1322.35,724.138 1305.74,724.222C1300.58,724.248 1297.24,723.807 1295.38,721.882C1293.85,720.286 1293.87,717.922 1293.87,715.412Z" style="fill:none;stroke:rgb(231,76,60);stroke-opacity:0.68;stroke-width:6.1px;"/>
            </g>
            <g transform="matrix(0.609841,0,0,0.648859,491.239,339.92)">
                <g transform="matrix(1,0,0,1,30,30)">
                    <path d="M426,565C426,565 817.498,566.511 842.624,566C867.751,565.489 888.421,561.037 888,529C887.579,496.963 888.956,232.94 891,202C893.044,171.06 875.905,163.179 842.624,164C809.344,164.821 468.179,164.336 426,164C383.821,163.664 386.771,196.004 387,215C387.229,233.996 391.335,501.157 390,528C388.665,554.843 407.356,565.526 426,565Z" style="fill:rgb(236,240,241);stroke:black;stroke-width:11.91px;"/>
                    <path d="M412,194L416,535L860,535L860,195L412,194Z" style="stroke:black;stroke-width:11.91px;"/>
                    <g transform="matrix(0.36423,0,0,0.36423,321.205,172.55)">
                        <g transform="matrix(2.74552,0,0,2.74552,-2524.92,-124.847)">
                            <path d="M1054.54,361C1054.54,361 1070.98,361.8 1074.73,356C1079.24,349.034 1081.86,329.25 1094.4,328C1102.98,327.145 1112.17,326.795 1113,331C1113.83,335.205 1114.62,359.244 1121,360C1127.38,360.756 1139.43,361.373 1148,360C1156.57,358.627 1156.57,359.004 1160.16,350.589C1163.75,342.174 1168.99,326.335 1182.3,325.493C1195.6,324.652 1196.16,323.757 1198.26,328.371C1200.36,332.985 1198.77,359.615 1206,361C1214.11,362.552 1230.6,360.914 1238.8,360C1247,359.086 1250.44,351.805 1253,344.109C1256.01,335.059 1259.3,326.414 1271,325.493C1282.7,324.572 1285.3,322.323 1287.17,329.473C1289.04,336.623 1287.2,359.26 1293.12,360C1299.03,360.74 1321.01,360 1321.01,360" style="fill:rgb(74,59,4);stroke:rgb(249,202,36);stroke-width:4.17px;"/>
                        </g>
                    </g>
                    <g transform="matrix(0.330601,0,0,0.330601,254.732,227.125)">
                        <g transform="matrix(1,0,0,1,841.874,-380.154)">
                            <g transform="matrix(1,0,0,1,0,9)">
                                <path d="M813.103,1040.38C813.103,1040.38 783.549,1125.56 796.879,1125.61C810.209,1125.65 873.841,1125.86 873.841,1125.86" style="fill:none;stroke:rgb(249,202,36);stroke-width:18.9px;"/>
                            </g>
                            <g transform="matrix(1,0,0,1,-6,0)">
                                <path d="M847.226,1172.75C847.226,1172.75 847.375,1104.39 846.47,1091.46" style="fill:none;stroke:rgb(249,202,36);stroke-width:18.9px;"/>
                            </g>
                        </g>
                        <g transform="matrix(1.25491,0,0,1.13774,277.66,-526.713)">
                            <path d="M1005.49,1063.66C1005.49,1063.66 1008.61,1046.49 1026.51,1046.43C1039.68,1046.39 1062.02,1058.62 1049.53,1080.41C1044.39,1089.36 1028.36,1101.4 1028.36,1101.4C1028.36,1101.4 1057.04,1094.8 1054.45,1134.28C1053.59,1147.38 1043.33,1159.96 1027.46,1159.04C1017.72,1158.47 1011.17,1154.16 1007.54,1143.82" style="fill:none;stroke:rgb(249,202,36);stroke-width:15.78px;"/>
                        </g>
                    </g>
                    <g transform="matrix(0.36423,0,0,0.36423,326.666,74.4069)">
                        <g>
                            <g transform="matrix(1,0,0,1,27.3181,0)">
                                <g transform="matrix(0.579282,-0.0549257,0.0633676,0.668316,451.047,254.271)">
                                    <path d="M1154.04,641.281C1154.04,641.281 1284.92,573.463 1289.19,485.915C1289.77,473.957 1288.15,461.072 1283.71,447.232C1260.43,374.714 1175.4,391.279 1155.76,416.548C1139.71,437.186 1123.67,465.654 1161.65,503.54C1183.4,525.242 1289.82,538.237 1289.08,472.307" style="fill:none;stroke:rgb(0,178,6);stroke-width:33.16px;"/>
                                </g>
                                <g transform="matrix(-0.58188,3.46945e-17,-2.77556e-17,-0.671313,2013.41,882.885)">
                                    <path d="M1171.95,632.206C1171.95,632.206 1284.92,573.463 1289.19,485.915C1289.77,473.957 1288.15,461.072 1283.71,447.232C1260.43,374.714 1175.4,391.279 1155.76,416.548C1139.71,437.186 1123.67,465.654 1161.65,503.54C1183.4,525.242 1289.82,538.237 1289.08,472.307" style="fill:none;stroke:rgb(0,178,6);stroke-width:33.16px;"/>
                                </g>
                            </g>
                            <g transform="matrix(0.776571,0,0,0.776571,-299.307,219.612)">
                                <path d="M785.874,472.477C785.874,472.477 809.719,471.949 820.082,472.278C830.444,472.606 831.028,450.836 840.953,447.37C859.482,440.899 865.353,472.143 865.353,472.143L883.985,497.131L906.099,318.036L917.007,504.158C917.007,504.158 928.737,474.484 933.604,473.305C954.017,468.358 944.361,434.236 965.568,427.483C995.535,417.941 993.725,473.009 1011.84,473.027C1029.95,473.044 1056.02,472.28 1066.39,472.608C1076.75,472.937 1077.33,451.167 1087.26,447.701C1105.79,441.23 1111.66,472.474 1111.66,472.474L1130.29,497.462L1141.16,323.874L1163.31,504.489C1163.31,504.489 1175.96,476.716 1179.91,473.636C1195.13,461.756 1197.57,425.451 1219.76,427.134C1241.95,428.817 1240.03,473.34 1258.14,473.357C1276.26,473.375 1303.46,470.497 1321.1,464.593C1352.81,453.985 1395.05,411.149 1405.86,375.46C1418.96,332.184 1375.98,314.502 1350.75,350.148C1331.64,314.529 1288.66,329.631 1295.91,369.994C1302.41,406.204 1334.31,442.501 1370.84,462.192C1387.84,471.355 1465.9,473.632 1468.11,469.994C1477.59,454.391 1478.88,444.11 1494.56,445.816C1504.34,446.879 1509.38,460.429 1518.26,467.123C1527.31,473.951 1525.43,495.875 1530.45,495.54C1539.65,494.925 1550.09,326.17 1550.09,326.17L1562.04,473.751C1562.04,473.751 1564.05,491.098 1567.6,497.679C1568.03,498.477 1572.16,469.211 1583.54,465.638C1596.41,461.599 1603.52,425.262 1625.35,423.534C1644.15,422.045 1647.14,450.202 1659.69,461.841C1667.72,469.297 1729.44,462.583 1729.44,462.583" style="fill:none;stroke:rgb(0,178,6);stroke-width:8.05px;"/>
                            </g>
                        </g>
                        <g transform="matrix(1,0,0,1,-23.9722,7.93815)">
                            <g transform="matrix(1,0,0,1,-8.82627,-0.00466391)">
                                <path d="M1223.4,744.605C1223.4,744.605 1224.85,863.804 1224.18,874.016" style="fill:none;stroke:rgb(0,178,173);stroke-width:20.83px;"/>
                                <path d="M1288.27,744.605C1270.84,746.332 1262.26,774.586 1261.01,809.31C1259.77,844.035 1275.69,874.453 1296.46,874.016C1317.23,873.578 1328.22,831.326 1327.5,809.31C1326.78,787.295 1316.11,741.845 1288.27,744.605Z" style="fill:none;stroke:rgb(0,178,173);stroke-width:20.83px;"/>
                                <g transform="matrix(-1,-1.22465e-16,1.22465e-16,-1,2681.1,1618.5)">
                                    <path d="M1288.27,744.605C1273.17,746.025 1262.26,774.586 1261.01,809.31C1259.77,844.035 1275.69,874.453 1296.46,874.016C1317.23,873.578 1328,847.937 1327.5,809.31C1327.22,787.285 1316.12,741.983 1288.27,744.605Z" style="fill:none;stroke:rgb(0,178,173);stroke-width:20.83px;"/>
                                </g>
                            </g>
                            <g transform="matrix(0.999751,0.0223111,-0.0223111,0.999751,18.6271,-21.205)">
                                <path d="M369.627,856.679C369.627,856.679 383.795,809.12 395.04,804.279C410.186,797.757 462.052,871.262 466.416,860.043C470.781,848.823 482.967,806.119 498.637,806.914C514.308,807.71 546.813,859.975 556.309,853.741C565.805,847.507 574.317,804.471 582.273,801.403C602.154,793.735 636.431,858.873 647.813,854.669C659.196,850.466 659.369,792.614 678.566,800.519C697.764,808.424 728.878,860.558 738.63,853.878C748.381,847.198 750.821,797.198 767.045,798.848C783.269,800.498 817.691,855.543 827.627,850.499C837.563,845.454 838.393,798.56 856.058,798.731C873.722,798.902 902.135,848.599 914.228,849.92C926.322,851.242 934.345,796.819 949.256,797.557C964.168,798.294 997.695,849.576 1010.64,849.97C1023.59,850.364 1027.04,789.904 1045.15,792.197C1063.26,794.491 1088.61,849.075 1101.46,849.615" style="fill:none;stroke:rgb(0,178,173);stroke-width:12.5px;"/>
                            </g>
                        </g>
                    </g>
                </g>
                <g transform="matrix(-1,0,0,-1,1827.76,760.049)">
                    <path d="M426,565C426,565 817.498,566.511 842.624,566C867.751,565.489 888.421,561.037 888,529C887.579,496.963 888.956,232.94 891,202C893.044,171.06 875.905,163.179 842.624,164C809.344,164.821 468.179,164.336 426,164C383.821,163.664 386.771,196.004 387,215C387.229,233.996 391.335,501.157 390,528C388.665,554.843 407.356,565.526 426,565Z" style="fill:rgb(236,240,241);stroke:black;stroke-width:11.91px;"/>
                    <path d="M412,194L416,535L860,535L860,195L412,194Z" style="stroke:black;stroke-width:11.91px;"/>
                    <g transform="matrix(-0.36423,0,0,-0.36423,943.391,671.606)">
                        <g transform="matrix(0.713593,0,0,0.713593,92.2988,300.741)">
                            <g>
                                <path d="M386.821,1050.43C386.821,1050.43 388.07,1160.82 388.399,1172.75" style="fill:none;stroke:rgb(224,86,253);stroke-width:23.36px;"/>
                                <g transform="matrix(1,0,0,1,187.613,0)">
                                    <path d="M386.821,1050.43C386.821,1050.43 388.07,1160.82 388.399,1172.75" style="fill:none;stroke:rgb(224,86,253);stroke-width:23.36px;"/>
                                </g>
                                <g transform="matrix(1.83692,0.736034,-0.472003,1.17798,473.811,-484.183)">
                                    <path d="M386.821,1050.43C386.821,1050.43 388.07,1160.82 388.399,1172.75" style="fill:none;stroke:rgb(224,86,253);stroke-width:14.05px;"/>
                                </g>
                                <path d="M440.101,1066.99C449.74,1047.11 484.651,1024.06 508.139,1061.98C524.423,1088.27 441.15,1172.75 441.15,1172.75C441.15,1172.75 523.469,1173.23 520.206,1172.75" style="fill:none;stroke:rgb(224,86,253);stroke-width:23.36px;"/>
                                <g transform="matrix(-0.454711,2.7112e-17,-2.16896e-17,-0.524598,1309.41,1379.98)">
                                    <path d="M1171.95,632.206C1171.95,632.206 1284.92,573.463 1289.19,485.915C1289.77,473.957 1288.15,461.072 1283.71,447.232C1260.43,374.714 1175.4,391.279 1155.76,416.548C1139.71,437.186 1123.67,465.654 1161.65,503.54C1183.4,525.242 1289.82,538.237 1289.08,472.307" style="fill:none;stroke:rgb(224,86,253);stroke-width:47.58px;"/>
                                </g>
                                <g transform="matrix(1,0,0,1,30,0)">
                                    <g transform="matrix(1,0,0,1,0,9)">
                                        <path d="M813.103,1040.38C813.103,1040.38 783.549,1125.56 796.879,1125.61C810.209,1125.65 873.841,1125.86 873.841,1125.86" style="fill:none;stroke:rgb(224,86,253);stroke-width:23.36px;"/>
                                    </g>
                                    <g transform="matrix(1,0,0,1,-6,0)">
                                        <path d="M847.226,1172.75C847.226,1172.75 847.375,1104.39 846.47,1091.46" style="fill:none;stroke:rgb(224,86,253);stroke-width:23.36px;"/>
                                    </g>
                                </g>
                                <g transform="matrix(1.25491,0,0,1.25491,-76.303,-275.271)">
                                    <path d="M873.969,1046.43C873.969,1046.43 836.242,1098.95 874.321,1153.88" style="fill:none;stroke:rgb(224,86,253);stroke-width:18.61px;"/>
                                </g>
                                <g transform="matrix(-1.25491,-1.53682e-16,1.53682e-16,-1.25491,2398.11,2485.93)">
                                    <path d="M873.969,1046.43C873.969,1046.43 836.242,1098.95 874.321,1153.88" style="fill:none;stroke:rgb(224,86,253);stroke-width:18.61px;"/>
                                </g>
                                <g transform="matrix(1.03468,-0.0465845,0.0465845,1.03468,79.6928,3.96167)">
                                    <path d="M942.165,1046.43C942.165,1046.43 914.315,1047.58 916.025,1073.76C917.776,1100.56 967.412,1113 970.525,1137.35C974.39,1167.58 950.219,1171.25 939.218,1170.12C928.216,1168.99 911.015,1159.1 914.357,1137.38C917.949,1114.02 970.357,1101.6 971.58,1074.28C972.067,1063.42 962.479,1047.49 942.165,1046.43Z" style="fill:none;stroke:rgb(224,86,253);stroke-width:22.55px;"/>
                                </g>
                                <g transform="matrix(1.25491,0,0,1.13774,-76.303,-147.773)">
                                    <path d="M1005.49,1063.66C1005.49,1063.66 1008.61,1046.49 1026.51,1046.43C1039.68,1046.39 1062.02,1058.62 1049.53,1080.41C1044.39,1089.36 1028.36,1101.4 1028.36,1101.4C1028.36,1101.4 1057.04,1094.8 1054.45,1134.28C1053.59,1147.38 1043.33,1159.96 1027.46,1159.04C1017.72,1158.47 1011.17,1154.16 1007.54,1143.82" style="fill:none;stroke:rgb(224,86,253);stroke-width:19.5px;"/>
                                </g>
                            </g>
                        </g>
                        <g transform="matrix(1,0,0,1,-23.9722,-0.223324)">
                            <g transform="matrix(0.429164,0,0,0.429164,1020.12,283.061)">
                                <g transform="matrix(1,0,0,1,-19.1921,0)">
                                    <path d="M386.821,1050.43C386.821,1050.43 388.07,1160.82 388.399,1172.75" style="fill:none;stroke:rgb(235,77,75);stroke-width:23.36px;"/>
                                </g>
                                <g transform="matrix(1,0,0,1,484.965,0.439681)">
                                    <path d="M386.821,1050.43C386.821,1050.43 388.07,1160.82 388.399,1172.75" style="fill:none;stroke:rgb(235,77,75);stroke-width:23.36px;"/>
                                </g>
                                <g transform="matrix(1.83692,0.736034,-0.472003,1.17798,499.401,-484.183)">
                                    <path d="M386.821,1050.43C386.821,1050.43 388.07,1160.82 388.399,1172.75" style="fill:none;stroke:rgb(235,77,75);stroke-width:14.05px;"/>
                                </g>
                                <g transform="matrix(1,0,0,1,-19.1921,0)">
                                    <path d="M440.101,1066.99C449.74,1047.11 484.651,1024.06 508.139,1061.98C524.423,1088.27 441.15,1172.75 441.15,1172.75C441.15,1172.75 523.469,1173.23 520.206,1172.75" style="fill:none;stroke:rgb(235,77,75);stroke-width:23.36px;"/>
                                </g>
                                <g transform="matrix(-0.454711,2.7112e-17,-2.16896e-17,-0.524598,1335,1379.98)">
                                    <path d="M1171.95,632.206C1171.95,632.206 1284.92,573.463 1289.19,485.915C1289.77,473.957 1288.15,461.072 1283.71,447.232C1260.43,374.714 1175.4,391.279 1155.76,416.548C1139.71,437.186 1123.67,465.654 1161.65,503.54C1183.4,525.242 1289.82,538.237 1289.08,472.307" style="fill:none;stroke:rgb(235,77,75);stroke-width:47.58px;"/>
                                </g>
                                <g transform="matrix(1,0,0,1,-233.795,194.554)">
                                    <g transform="matrix(1,0,0,1,0,9)">
                                        <path d="M813.103,1040.38C813.103,1040.38 783.549,1125.56 796.879,1125.61C810.209,1125.65 873.841,1125.86 873.841,1125.86" style="fill:none;stroke:rgb(235,77,75);stroke-width:23.36px;"/>
                                    </g>
                                    <g transform="matrix(1,0,0,1,-6,0)">
                                        <path d="M847.226,1172.75C847.226,1172.75 847.375,1104.39 846.47,1091.46" style="fill:none;stroke:rgb(235,77,75);stroke-width:23.36px;"/>
                                    </g>
                                </g>
                                <g transform="matrix(1.25491,0,0,1.25491,-699.591,-78.9325)">
                                    <path d="M873.969,1046.43C873.969,1046.43 836.242,1098.95 874.321,1153.88" style="fill:none;stroke:rgb(235,77,75);stroke-width:18.61px;"/>
                                </g>
                                <g transform="matrix(-1.25491,-1.53682e-16,1.53682e-16,-1.25491,1774.82,2682.27)">
                                    <path d="M873.969,1046.43C873.969,1046.43 836.242,1098.95 874.321,1153.88" style="fill:none;stroke:rgb(235,77,75);stroke-width:18.61px;"/>
                                </g>
                                <g transform="matrix(1.03468,-0.0465845,0.0465845,1.03468,-543.595,200.3)">
                                    <path d="M942.165,1046.43C942.165,1046.43 914.315,1047.58 916.025,1073.76C917.776,1100.56 967.412,1113 970.525,1137.35C974.39,1167.58 950.219,1171.25 939.218,1170.12C928.216,1168.99 911.015,1159.1 914.357,1137.38C917.949,1114.02 970.357,1101.6 971.58,1074.28C972.067,1063.42 962.479,1047.49 942.165,1046.43Z" style="fill:none;stroke:rgb(235,77,75);stroke-width:22.55px;"/>
                                </g>
                                <g transform="matrix(1.25491,0,0,1.13774,-718.497,-145.549)">
                                    <path d="M1005.49,1063.66C1005.49,1063.66 1008.61,1046.49 1026.51,1046.43C1039.68,1046.39 1062.02,1058.62 1049.53,1080.41C1044.39,1089.36 1028.36,1101.4 1028.36,1101.4C1028.36,1101.4 1057.04,1094.8 1054.45,1134.28C1053.59,1147.38 1043.33,1159.96 1027.46,1159.04C1017.72,1158.47 1011.17,1154.16 1007.54,1143.82" style="fill:none;stroke:rgb(235,77,75);stroke-width:19.5px;"/>
                                </g>
                            </g>
                            <g transform="matrix(-0.999751,0.0223111,0.0223111,0.999751,1451.28,-21.205)">
                                <path d="M369.627,856.679C369.627,856.679 380.131,768.009 395.04,804.279C401.309,819.531 462.052,871.262 466.416,860.043C470.781,848.823 470.946,759.702 498.637,806.914C506.575,820.449 546.813,859.975 556.309,853.741C565.805,847.507 562.603,771.778 582.273,801.403C594.059,819.155 636.431,858.873 647.813,854.669C659.196,850.466 658.695,762.421 678.566,800.519C688.167,818.927 728.878,860.558 738.63,853.878C748.381,847.198 744.413,756.147 767.045,798.848C774.682,813.256 817.691,855.543 827.627,850.499C837.563,845.454 834.668,754.703 856.058,798.731C863.777,814.62 902.135,848.599 914.228,849.92C926.322,851.242 925.007,747.596 949.256,797.557C955.775,810.988 997.695,849.576 1010.64,849.97C1023.59,850.364 1031.74,754.099 1045.15,792.197C1051.22,809.416 1088.61,849.075 1101.46,849.615" style="fill:none;stroke:rgb(235,77,75);stroke-width:12.5px;"/>
                            </g>
                        </g>
                        <g transform="matrix(1,0,0,1,-23.9722,-263.43)">
                            <g transform="matrix(3.33105,0,0,3.13075,-3300.55,-530.049)">
                                <path d="M1101,434C1101,434 1105.07,437.118 1107.08,435C1109.09,432.882 1109.85,430.909 1113.04,431.451C1116.22,431.993 1115.3,432.634 1119,435C1122.7,437.366 1131,435 1131,435L1133.62,430.489L1145,435C1145,435 1144.12,442.547 1149,441.691C1153.88,440.835 1157.05,437.248 1160,435C1162.95,432.752 1165,430.489 1165,430.489C1165,430.489 1167.98,428.664 1170.08,430.489C1172.18,432.314 1175,436 1175,436L1182.44,436.854L1186.91,435L1190.91,430.692L1197.12,429.44L1201,430.489L1203,435L1205,438L1208.51,432.851C1208.51,432.851 1206.8,428.551 1211.48,430.489C1216.17,432.427 1220.42,433.722 1220.42,433.722C1220.42,433.722 1228.19,440.612 1230,439C1231.81,437.388 1233,434 1233,434C1233,434 1231.24,430.014 1234.5,429.44C1237.76,428.867 1246,424.694 1246,424.694L1248.91,427L1251.85,429.44L1255.62,433L1262.93,430.489L1267,427C1267,427 1268.14,425.065 1270,427C1271.86,428.935 1273.97,431.085 1275.66,432.117C1277.35,433.149 1282,434 1282,434C1282,434 1285.62,433.473 1289,434C1292.38,434.527 1299,430.489 1299,430.489L1305,429.44L1313.27,422.387L1316,433L1320.76,435.002L1324,430.489" style="fill:none;stroke:rgb(240,147,43);stroke-width:6.25px;"/>
                            </g>
                            <g transform="matrix(2.52813,0,0,2.37611,-2209.95,-199.293)">
                                <path d="M1350,408C1350,408 1352.12,395.109 1363,397C1373.88,398.891 1371.91,412.773 1365,417C1358.09,421.227 1360,430 1360,430" style="fill:none;stroke:rgb(240,147,43);stroke-width:6.25px;"/>
                            </g>
                            <g transform="matrix(2.52813,0,0,2.37611,-2121.68,-199.293)">
                                <path d="M1350,408C1350,408 1352.12,395.109 1363,397C1373.88,398.891 1371.91,412.773 1365,417C1358.09,421.227 1360,430 1360,430" style="fill:none;stroke:rgb(240,147,43);stroke-width:6.25px;"/>
                            </g>
                            <g transform="matrix(2.81152,0,0,2.5463,-2592.85,-282.664)">
                                <circle cx="1360" cy="442.675" r="3.325" style="fill:rgb(240,147,43);"/>
                            </g>
                            <g transform="matrix(2.81152,0,0,2.5463,-2504.57,-282.664)">
                                <circle cx="1360" cy="442.675" r="3.325" style="fill:rgb(240,147,43);"/>
                            </g>
                        </g>
                        <g transform="matrix(1.18368,0,0,1.18368,-268.718,-209.622)">
                            <g transform="matrix(0.488335,0,0,0.488335,626.955,709.925)">
                                <path d="M1223.4,744.605C1223.4,744.605 1224.85,863.804 1224.18,874.016" style="fill:none;stroke:white;stroke-width:21.63px;"/>
                            </g>
                            <g transform="matrix(0.488335,0,0,0.488335,626.955,709.925)">
                                <path d="M1288.27,744.605C1270.84,746.332 1262.26,774.586 1261.01,809.31C1259.77,844.035 1275.69,874.453 1296.46,874.016C1317.23,873.578 1328.22,831.326 1327.5,809.31C1326.78,787.295 1316.11,741.845 1288.27,744.605Z" style="fill:none;stroke:white;stroke-width:21.63px;"/>
                            </g>
                            <g transform="matrix(0.612515,0,0,0.555323,697.495,493.431)">
                                <path d="M1005.49,1063.66C1005.49,1063.66 1008.61,1046.49 1026.51,1046.43C1039.68,1046.39 1062.02,1058.62 1049.53,1080.41C1044.39,1089.36 1028.36,1101.4 1028.36,1101.4C1028.36,1101.4 1057.04,1094.8 1054.45,1134.28C1053.59,1147.38 1043.33,1159.96 1027.46,1159.04C1017.72,1158.47 1011.17,1154.16 1007.54,1143.82" style="fill:none;stroke:white;stroke-width:18.06px;"/>
                            </g>
                            <g transform="matrix(0.488094,0,0,0.488094,972.578,563.773)">
                                <g transform="matrix(1,0,0,1,0,9)">
                                    <path d="M813.103,1040.38C813.103,1040.38 783.549,1125.56 796.879,1125.61C810.209,1125.65 873.841,1125.86 873.841,1125.86" style="fill:none;stroke:white;stroke-width:21.64px;"/>
                                </g>
                                <g transform="matrix(1,0,0,1,-6,0)">
                                    <path d="M847.226,1172.75C847.226,1172.75 847.375,1104.39 846.47,1091.46" style="fill:none;stroke:white;stroke-width:21.64px;"/>
                                </g>
                            </g>
                            <g transform="matrix(1,0,0,1,0,-0.221354)">
                                <circle cx="1293.14" cy="1086" r="4.477" style="fill:white;"/>
                            </g>
                            <g transform="matrix(1,0,0,1,0,34.4461)">
                                <circle cx="1293.14" cy="1086" r="4.477" style="fill:white;"/>
                            </g>
                        </g>
                    </g>
                </g>
            </g>
            <g transform="matrix(3.63211e-17,0.593168,-0.593168,3.63211e-17,1853.96,564.94)">
                <g transform="matrix(1,0,0,1,0,17.7776)">
                    <path d="M45.27,605.136C40.61,602.806 40.387,610.226 43.481,612.547C55.077,621.244 67.713,615.429 57.025,602.069" style="fill:none;fill-rule:nonzero;stroke:black;stroke-width:4.82px;stroke-miterlimit:10;"/>
                </g>
                <g transform="matrix(1,0,0,1,0,17.7776)">
                    <path d="M54.939,608.974C54.503,609.845 52.343,602.894 53.15,601.819C54.277,600.316 60.785,600.541 62.35,600.541" style="fill:none;fill-rule:nonzero;stroke:black;stroke-width:4.82px;stroke-miterlimit:10;"/>
                </g>
                <g transform="matrix(1,0,0,1,0,17.7776)">
                    <path d="M63.226,592.321C64.215,592.321 43.116,591.358 41.76,585.933C40.522,580.981 64.032,578.448 62.715,578.777" style="fill:none;fill-rule:nonzero;stroke:black;stroke-width:4.82px;stroke-miterlimit:10;"/>
                </g>
                <g transform="matrix(1,0,0,1,0,17.7776)">
                    <path d="M56.388,589.963C55.707,587.921 55.857,583.171 55.857,581.026" style="fill:none;fill-rule:nonzero;stroke:black;stroke-width:4.82px;stroke-miterlimit:10;"/>
                </g>
                <g transform="matrix(1,0,0,1,0,17.7776)">
                    <path d="M45.014,561.947C39.345,563.837 44.8,571.937 49.614,571.402C55.977,570.695 50.658,558.847 59.836,560.158C64.594,560.838 63.417,570.125 59.325,570.125" style="fill:none;fill-rule:nonzero;stroke:black;stroke-width:4.82px;stroke-miterlimit:10;"/>
                </g>
                <path d="M43.748,551.928C43.116,553.193 63.895,551.357 61.625,552.491" style="fill:none;fill-rule:nonzero;stroke:black;stroke-width:4.82px;stroke-miterlimit:10;"/>
                <path d="M43.701,552.071C50.19,549.908 72.338,537.414 55.236,537.414C52.061,537.414 46.555,536.883 43.581,538.37" style="fill:none;fill-rule:nonzero;stroke:black;stroke-width:4.82px;stroke-miterlimit:10;"/>
                <path d="M45.301,519.718C45.269,521.036 45.035,524.279 48.336,526.68C52.383,529.624 60.76,531.709 63.57,525.739C65.373,521.906 65.57,520.697 63.679,517.65C59.207,510.441 45.429,514.529 45.301,519.718Z" style="fill:none;fill-rule:nonzero;stroke:black;stroke-width:4.82px;stroke-miterlimit:10;"/>
                <path d="M48.682,501.672C54.922,502.252 60.68,503.259 63.414,501.892" style="fill:none;fill-rule:nonzero;stroke:black;stroke-width:4.82px;stroke-miterlimit:10;"/>
                <path d="M47.565,508.448C47.133,506.278 47.059,497.462 47.059,494.992" style="fill:none;fill-rule:nonzero;stroke:black;stroke-width:4.82px;stroke-miterlimit:10;"/>
                <path d="M48.806,487.593C47.489,487.593 60.025,487.992 61.999,487.988C66.693,487.98 65.039,480.921 63.725,476.98" style="fill:none;fill-rule:nonzero;stroke:black;stroke-width:4.82px;stroke-miterlimit:10;"/>
                <path d="M48.336,486.814C47.258,483.58 46.548,479.744 46.548,476.336" style="fill:none;fill-rule:nonzero;stroke:black;stroke-width:4.82px;stroke-miterlimit:10;"/>
                <path d="M55.712,486.182C55.712,483.642 54.574,479.874 54.214,477.358" style="fill:none;fill-rule:nonzero;stroke:black;stroke-width:4.82px;stroke-miterlimit:10;"/>
                <path d="M48.081,457.681C41.423,457.681 45.087,468.806 50.125,469.436C57.43,470.349 52.052,456.927 60.347,457.681C66.429,458.234 66.998,468.515 61.114,469.692" style="fill:none;fill-rule:nonzero;stroke:black;stroke-width:4.82px;stroke-miterlimit:10;"/>
            </g>
            <g transform="matrix(0.739901,0,0,0.739901,188.329,214.96)">
                <g transform="matrix(1.22709,0,0,1.22709,-250.688,-224.612)">
                    <path d="M1104,974C1103,981.604 1109.33,988.401 1129.4,989.04C1145.33,989.547 1152.38,984.277 1152.34,977C1152.3,969.723 1145.68,961 1130,961C1119.32,961 1105.09,965.699 1104,974Z" style="fill:none;stroke:black;stroke-width:6.25px;"/>
                </g>
                <g transform="matrix(1,0,0,1,5,0)">
                    <path d="M1125,963C1125,963 1121.55,962.814 1121,967.946C1120.45,973.079 1121.38,979.169 1126,979C1130.62,978.831 1131.57,973.151 1131,970C1130.43,966.849 1129.23,962.228 1125,963Z" style="fill:none;stroke:black;stroke-width:2.08px;"/>
                </g>
                <g transform="matrix(1,0,0,1,3,0)">
                    <path d="M1136,974C1136,974 1136.65,971.501 1139,971.849C1141.35,972.198 1141.93,974.665 1140,977C1138.07,979.335 1136,981 1136,981L1142,981" style="fill:none;stroke:black;stroke-width:2.08px;"/>
                </g>
            </g>
            <g transform="matrix(0.739901,0,0,0.739901,292.11,217.179)">
                <path d="M853,899.451C853,899.451 874.564,950.723 857,1023" style="fill:none;stroke:black;stroke-width:8.33px;"/>
            </g>
        </g>
        <g transform="matrix(0.537223,0,0,0.537223,542.601,370.816)">
            <g transform="matrix(580.755,0,0,580.755,1560.15,1180)">
            </g>
            <text x="1221px" y="1180px" style="font-family:'ArialMT', 'Arial', sans-serif;font-size:580.755px;">+</text>
        </g>
    </g>
</svg>
