<svg clip-rule="evenodd" stroke-linecap="round" stroke-linejoin="round" stroke-miterlimit="10" viewBox="0 0 973.983 1287.92" xmlns="http://www.w3.org/2000/svg"><path d="m813.343 302.21c14.056 8.592 6.819 23.449 3.135 27.133-17.003 17.002-48.722 10.716-48.722 44.604 0 30.328-2.313 59.329-4.803 89.207-3.404 40.843-12.414 492.536-16.376 591.576-1.547 38.67-7.265 188.72-5.113 194.08 7.48 18.65 78.472 24.96 97.85 26.64 66.649 5.78 95.482-14.95 97.937-21.09 3.408-8.52 8.187-279.559 9.607-312.228 2.467-56.734 6.232-277.924 9.385-337.824 2.579-49.006.822-113.26 5.703-162.068 2.156-21.566 1.395-78.521.695-82.018-1.759-8.797-26.62-19.689-38.908-27.69-14.672-9.553-2.955-24.636 6.331-31.192" fill="#dbdbdb"/><path d="m959.499 430.285c-14.999-9.669-62.501-18.35-100.784-16.009-40.938 2.503-80.375 17.141-91.676 23.832l1.384-37.544c13.631-10.943 41.485-19.807 71.689-23.218 9.326-1.053 18.876-1.586 28.301-1.5 19.213.176 38.633 3.098 54.714 6.613 19.505 4.263 34.1 9.398 37.461 11.565" fill="#24a840"/><g stroke="#000" stroke-linecap="round" stroke-linejoin="round" stroke-width="11.2403"><path d="m928.131 121.561c-1.786-10.173-.8-22.3426-1.733-32.5982-1.235-13.5813-1.287-30.6624-8.177-43.408-5.986-11.0732-52.771-13.1665-64.54-15.2979-64.461-11.6739-124.8-15.7135-191.474-18.1999-43.068-1.6061-148.724-9.83365-289.334 25.1641-61.359 15.2723-170.926 71.7249-223.065 110.6229-79.6821 59.446-138.4192 137.523-138.4192 137.523s243.8952-193.3928 424.6792-201.8743 448.18 57.2053 448.18 57.2053z" fill="#b5b5b5"/><g fill="none"><path d="m813.568 302.007c14.056 8.593 6.819 23.449 3.135 27.133-17.003 17.002-48.722 10.717-48.722 44.604 0 30.328-2.313 59.33-4.803 89.208-3.404 40.843-12.414 492.535-16.376 591.568-1.547 38.68-7.265 188.73-5.113 194.09 7.48 18.64 78.472 24.95 97.85 26.63 66.649 5.79 95.482-14.94 97.937-21.08 3.408-8.52 8.187-279.562 9.607-312.231 2.467-56.733 6.232-277.923 9.385-337.823 2.579-49.007.822-113.26 5.703-162.069 2.156-21.566 1.394-78.521.695-82.017-1.759-8.798-26.62-19.69-38.908-27.691-14.672-9.553-2.955-24.636 6.331-31.191"/><path d="m745.336 1217.1c49.905 16.64 142.21 30 191.363 5.42"/><path d="m961.363 427.922c-14.999-9.669-72.391-16.282-110.673-13.941-40.939 2.503-67.343 14.743-78.644 21.434"/><path d="m960.026 392.013c-6.132-3.953-46.121-16.073-88.639-16.461-39.948-.366-84.574 10.693-102.413 25.014"/></g><path d="m783.908 121.814c1.901-6.375-106.218-57.4387-253.821-59.8232-121.373-1.9606-267.651 55.4772-372.61 110.9402-32.029 16.926-144.8872 115.322-144.8872 115.322 2.4245-2.038 128.2662-78.2 167.1322-99.21 135.966-73.501 285.386-108.011 438.798-79.836 100.48 18.453 145.402 50.405 163.525 55.81" fill="#dbdbdb"/><path d="m822.846 208.157c-8.565-4.283-37.296-22.042-37.768-22.986-1.945-3.889-2.367-65.975-1.006-65.975 21.028 0 56.277 1.685 77.284 2.64 23.582 1.072 56.319 4.341 79.737 6.292 3.234.27 1.026 63.254-2.321 76.646-2.263 9.051-13.585 11.577-20.21 18.202" fill="#24a840"/><g fill="#dbdbdb"><path d="m821.785 204.188c-1.983.114-11.399 7.836-20.663 16.908-7.131 6.983-17.206 11.272-17.206 13.484 0 10.035.208 59.634 3.417 66.052.619 1.238 32.145 1.138 35.303 1.138 29.616 0 113.438-.518 115.719-5.225 2.282-4.707.441-39.775.441-44.883 0-6.611 1.748-39.819-1.138-42.706-2.142-2.142-89.317-6.301-115.873-4.768z"/><path d="m6.74982 273.71c0-12.59 10.20618-22.796 22.79618-22.796s22.7962 10.206 22.7962 22.796-10.2062 22.796-22.7962 22.796-22.79618-10.206-22.79618-22.796z"/></g></g></svg>