<svg clip-rule="evenodd" stroke-linecap="round" stroke-linejoin="round" stroke-miterlimit="10" viewBox="0 0 304.54 631.268" xmlns="http://www.w3.org/2000/svg"><path d="m87.7583 123c-1.2759 20.949 3.4468 42.353-5.7726 49.771-17.9625 14.453-63.097 29.677-68.7442 64.842-7.35576 45.803-4.71385 137.707-6.38837 215.58-.62355 28.999-7.354009 115.752 6.45557 137.42 13.5282 21.227 60.3768 35.083 124.0863 35.017 33.655-.035 99.277-10.214 119.512-18.762 20.234-8.548 28.039-18.975 31.969-30.22 8.374-23.962 3.574-182.504 8.307-245.775 3.12-41.716 4.032-87.59-7.001-110.317-11.781-24.269-42.201-32.002-57.094-45.588-13.642-12.445-8.811-25.963-8.811-49.939" fill="#5f1a00"/><path d="m22.6428 515.851c-2.3165 2.316-2.5657 34.851-2.5657 34.851s.6405 25.716 8.6991 33.02c19.8125 17.958 63.1046 22.287 90.5148 22.53 40.127.356 87.202-1.921 125.013-15.761 21.73-7.954 30.07-15.864 32.801-34.927.913-6.371.705-37.824-2.3-44.131" fill="#6c1d00"/><path d="m26.6829 291.442c-6.3817-31.129 14.9301-40.297 50.7393-48.296 25.5358-5.704 71.5888-11.126 132.7538-.709 26.565 4.525 65.951 10.318 71.26 36.496 5.358 26.424-17.861 57.278-134.864 59.941-116.1966 2.645-119.8891-47.432-119.8891-47.432z" fill="#6c1d00"/><path d="m296.909 276.558c-49.682 23.353-103.3 29.568-150.601 28.33-76.5425-2.003-136.54066-23.524-136.54066-23.524l-6.95454 245.444s67.1533 26.799 145.4122 25.664c71.174-1.032 115.996-12.985 143.716-23.2" fill="#fff"/><g stroke="#000" stroke-linejoin="round"><g fill="none" stroke-linecap="butt" stroke-width="8"><path d="m87.8253 123.273c-1.2759 20.949 3.4468 42.353-5.7726 49.771-17.9626 14.453-63.0971 29.677-68.7443 64.842-7.35571 45.803-4.7138 137.707-6.38832 215.58-.62356 28.999-7.354015 115.752 6.45562 137.42 13.5282 21.227 60.3767 35.082 124.0863 35.016 33.655-.034 99.277-10.213 119.512-18.761 20.234-8.548 28.039-18.975 31.969-30.22 8.374-23.962 3.574-182.504 8.307-245.775 3.12-41.716 4.032-87.59-7.001-110.317-11.782-24.269-42.201-32.002-57.094-45.589-13.642-12.444-8.811-25.962-8.811-49.938"/><path d="m11.1261 280.82s59.9981 21.52 136.5409 23.524c47.3 1.238 100.919-4.978 150.601-28.33"/><path d="m4.17153 526.264s67.15327 26.799 145.41147 25.664c71.174-1.032 115.997-12.985 143.717-23.2"/></g><g stroke-linecap="round"><path d="m248.837 60.5006c0-.1209.092 10.8425-.21 13.0765-.878 6.4801.976 29.6619-3.062 38.2899-4.549 9.718-21.723 12.278-30.744 13.586-32.897 4.767-67.39 5.267-100.249.457-14.9833-2.193-37.8816-1.938-45.8447-18.055-6.3916-12.9359-4.4695-35.2593-4.4695-49.687" fill="#bcbdb6" stroke-width="7"/><path d="m60.0924 17.9662c-1.74 2.2505-2.4321 7.1619-2.854 9.2586-1.3711 6.8135-1.6065 23.2952 5.5528 27.4114 10.2433 5.8893 56.6398 13.9813 100.2488 14.7754 34.582.6296 58.746-1.6315 81.262-6.2509 10.037-2.0593 8.974-16.8977 8.974-20.66 0-9.6997-2.107-19.7595-7.62-23.89-18.759-14.05678-80.384-14.28544-121.263-14.0662-22.846.12252-54.5287.78224-64.3006 13.4217z" fill="#ff5900" stroke-width="7"/><path d="m62.8989 18.7582c18.2867 10.2007 71.4621 13.5747 100.5541 13.9752 28.593.3937 64.9-2.2784 85.922-10.3173" fill="none" stroke-width="5"/></g></g><path d="m27.7482 485.238c-.7916 21.305 9.6608 27.058 18.7597 29.539 20.2879 5.533 47.2553 4.819 67.9891 6.144 14.372.918 41.864 1.316 56.255 1.351 19.118.047 33.825-.476 34.749-32.96.735-25.856-22.761-31.085-43.522-32.322-26.437-1.576-59.391-2.952-85.8803-2.952-34.0715 0-47.2869 2.579-48.3505 31.2z" fill="#ff5900"/><g fill="none" stroke="#000" stroke-linecap="round" stroke-linejoin="round"><g stroke-width="6"><path d="m36.5156 388.897c0-12.634 1.3322-25.376 1.3322-38.165 0-4.993-.0551-9.978.2284-14.953.0035-.061.4505-5.464.6661-5.135 6.1248 9.333 5.1916 25.725 13.1809 33.699.3441.343 2.3467 2.099 3.1195 1.569 3.6976-2.536 5.4474-11.723 7.3544-16.961.1361-.374 6.8177-21.079 7.029-20.868 1.3517 1.352.461 13.725.44 15.241-.1423 10.271-.8928 21.315-1.1426 32.909-.1012 4.7-.5156 20.045-.5156 17.127"/><path d="m79.0869 356.1s-.1 7.439 0 11.156c.1379 5.123 0 10.271 0 15.396 0 .594 0 7.053 0 6.248"/><path d="m89.1036 356.286c0 7.399-.5294 15.098-.8928 22.543-.1452 2.975-.6651 6.335.211 8.93.0242.071.2267.075.2267 0"/><path d="m90.6392 356.122c15.5338-5.313 16.5828 31.129-.8117 31.881"/><path d="m110.298 388.511c0-9.372 2.95-17.656 6.347-26.18.019-.048 2.826-8.543 4.243-7.362 4.191 3.496 10.604 35.806 10.197 35.005"/><path d="m114.631 376.074c3.453 0 6.4-.19 9.833-.657"/><path d="m140.355 357.248c5.124 0 12.472-2.939 17.448-.035 2.712 1.583-6.19 11.455-8.398 14.278-4.215 5.389-7.745 9.224-8.917 11.886-1.762 4 1.799 5.353 16.364 5.353"/><path d="m171.94 354.766c-5.479 1.256-6.688 10.984-6.84 13.695-.325 5.802-.483 25.92 10.573 19.277 5.576-3.35 5.928-17.736 4.829-22.708-1.789-8.09-4.2-11.264-8.562-10.264z"/><path d="m189.331 356.778v10.713c0 4.624-1.194 13.681 1.34 17.903 2.205 3.672 11.475 2.327 14.507 1.287"/><path d="m212.277 385.753c-2.063 2.136 3.899-31.14 9.817-29.46 3.913 1.11 5.233 20.443 6.028 23.882.48 2.074 1.334 8.377 1.334 6.247"/><path d="m216.07 375.881c3.06 0 6.106.111 9.149-.215"/><path d="m238.655 386.277c-1.878-8.809-1.76-18.879 0-27.676.062-.313.278-2.875 1.121-2.672 2.702.654 5.637 17.56 8.028 16.738 2.421-.832 3.221-18.297 10.272-16.066.554.175.651 2.993.666 3.125.687 6.067.913 12.407 1.122 18.518.028.824.046 7.641 0 7.59"/></g><g stroke-width="4"><path d="m36.4595 413.971c0 2.296.2425 13.185-.0406 12.07"/><path d="m36.4595 412.391c2.9496 0 8.3575-3.76 11.2326-.813"/><path d="m37.5979 418.287c2.5494 0 5.6995-.218 8.1512-.912"/><path d="m57.1934 413.071c-8.385-2.315-6.681 15.064 1.2446 14.051 5.4468-.696 3.9677-12.611-1.2446-14.051z"/><path d="m69.0979 416.694c0-4.334 0 7.724 0 9.286 0 1.966.0275-3.961.4462-5.882.3437-1.577 1.7613-8.492 4.5377-7.707 7.9131 2.24-5.091 9.393-.6746 11.33 1.0236.449 4.2192 2.986 5.2123 2.039"/><path d="m96.2922 414.651-.2302.449h-.2302v.232"/><path d="m95.3857 414.883c-1.2371 3.635-.2319 8.864-.2319 12.688 0 .261-.3507 3.169.2319 2.043"/><path d="m103.999 417.375c-1.518.757-.676 16.301-.676 7.256"/><path d="m103.091 423.271c0-14.198 3.582 3.356 10.43 5.881 1.083.4 1.973-11.535.906-12.69"/><path d="m124.617 417.177c0-1.803 1.488 12.61-1.501 12.195-.566-.078-1.815-.382-1.815-1.131"/><path d="m119.907 415.746c2.457-1.158 5.943-1.13 8.613-1.13"/><path d="m132.316 417.605c0-2.707-1.15 7.467-.677 9.056.823 2.765 8.596 1.863 10.428.91"/><path d="m133.686 415.782c.571-1.116 5.031-2.125 5.658-.899"/><path d="m133.686 420.778v.682h.444l1.139-.232 1.354-.45h.23"/><path d="m155.157 416.947c1.009-6.936-7.242 3.077-7.919 6.113-1.536 6.883 8.939 4.562 11.318.912"/><path d="m165.418 415.332c0 3.409.3 9.258.3 12.665"/><path d="m160.648 415.782s7.908-.761 11.569.462"/><path d="m176.432 416.736c0-2.106.441 11.741.441 11.382"/><path d="m184.457 418.068c-5.011 5.628 2.272 14.331 7.143 7.026 2.97-4.452-2.929-11.76-7.143-7.026z"/><path d="m197.364 416.926c.993 2.909.432 6.63.907 9.735.666 4.361-1.072-6.824-.232-9.286.294-.862 1.342 1.264 1.818 2.042.319.522 7.676 9.153 7.935 8.386 1.508-4.466.908-9.391.908-14.05"/><path d="m42.7341 471.082c-4.3235 17.161 10.5704 5.601 12.0091 18.264.7897 6.95-12.2741 8.303-12.2741 4.187"/><path d="m43.2662 470.832c4.9748 0 14.1269-1.095 14.1269-.149"/><path d="m66.2182 492.999c0 4.561-.1018-6.203 2.8703-6.772 2.6329-.505 4.0272 4.024 4.9578 5.738.4855.894 1.0437 3.886 1.0437 2.868 0-2.901-.3099-8.055 3.4024-9.14 5.8006-1.697 5.8251 8.358 5.4735 8.358"/><path d="m99.887 487.794c-2.5709-5.181-8.2178 2.965-7.3143 6.52 1.1694 4.601 11.1943-3.983 8.6043-6.787-.527-.571-.894 1.323-1.043 2.086-1.0422 5.308 3.127 16.069 0 20.098-5.6655 7.298-5.6935-6.229-4.6951-9.406"/><path d="m124.415 470.832c-2.483 6.569-5.395 12.97-7.828 19.566-.532 1.442-3.581 9.922-3.135 8.606"/><path d="m138.495 474.22c0 2.361-1.463 5.211-.514 7.569.162.401.475.73.781 1.035 4.496 4.481 13.104 4.806 10.418 10.963-2.685 6.156-11.711 3.015-12.844 2.453"/><path d="m138.515 473.982c2.534 0 15.096-.713 15.096.25"/><path d="m159.376 490.398c.893 13.932-1.208-1.427 3.135-2.871 2.508-.833 3.647 7.039 3.647 7.039s1.061-6.503 3.649-7.039c2.865-.593 3.401 11.017 3.401 8.091"/><path d="m180.85 477.888c0 12.554-3.919 21.038 9.901 18.798"/></g></g></svg>