<?xml version="1.0" encoding="UTF-8" standalone="no"?>
<!DOCTYPE svg PUBLIC "-//W3C//DTD SVG 1.1//EN" "http://www.w3.org/Graphics/SVG/1.1/DTD/svg11.dtd">
<svg width="100%" height="100%" viewBox="0 0 851 575" version="1.1" xmlns="http://www.w3.org/2000/svg" xmlns:xlink="http://www.w3.org/1999/xlink" xml:space="preserve" xmlns:serif="http://www.serif.com/" style="fill-rule:evenodd;clip-rule:evenodd;stroke-linecap:round;stroke-linejoin:round;stroke-miterlimit:10;">
    <g transform="matrix(1,0,0,1,-983.262,-563.013)">
        <g transform="matrix(4.16667,0,0,4.16667,-643.417,426.059)">
            <g>
                <path d="M477.901,149.519C478.792,149.523 480.121,148.876 481.05,148.405C481.332,148.262 478.733,126.905 478.373,123.682C476.776,109.357 472.855,68.776 472.559,67.87C472.249,66.918 465.029,66.414 462.756,66.756C462.552,66.786 459.322,69.26 459.631,69.55" style="fill:rgb(243,156,18);fill-rule:nonzero;stroke:black;stroke-width:1.88px;"/>
                <path d="M459.552,70.028C459.495,70.829 463.262,104.148 464.007,109.594C464.977,116.676 468.103,147.123 468.619,147.719C469.257,148.455 477.47,149.905 477.638,149.519C477.94,148.824 474.289,116.357 474.195,115.466C472.918,103.318 470.379,70.752 469.543,70.197C468.795,69.699 466.189,69.689 464.034,69.719C461.65,69.752 459.593,69.453 459.552,70.028Z" style="fill:rgb(243,156,18);fill-rule:nonzero;stroke:black;stroke-width:1.88px;"/>
                <path d="M469.423,70.117L472.042,68.161" style="fill:none;fill-rule:nonzero;stroke:black;stroke-width:1.88px;stroke-linecap:butt;"/>
                <path d="M542.15,160.3C543.041,160.301 544.537,158.715 544.56,158.142C544.583,157.569 542.761,135.465 542.391,131.979C540.75,116.487 537.447,73.735 537.148,72.755C536.834,71.727 529.016,71.473 527.958,71.622C527.753,71.651 523.872,73.682 524.182,73.996" style="fill:rgb(243,156,18);fill-rule:nonzero;stroke:black;stroke-width:1.88px;"/>
                <path d="M524.105,74.513C524.051,75.379 527.766,111.413 528.528,117.302C529.519,124.962 532.257,158.361 532.775,159.004C533.415,159.799 541.743,160.786 541.91,160.368C542.21,159.615 538.742,124.525 538.646,123.561C537.332,110.423 534.734,75.498 533.896,74.899C533.583,74.675 531.871,74.741 529.932,74.614C527.23,74.438 524.128,74.151 524.105,74.513Z" style="fill:rgb(243,156,18);fill-rule:nonzero;stroke:black;stroke-width:1.88px;"/>
                <path d="M534.083,74.817L536.506,73.149" style="fill:none;fill-rule:nonzero;stroke:black;stroke-width:1.88px;stroke-linecap:butt;"/>
                <g>
                    <path d="M453.193,156.633C454.08,156.725 455.879,155.971 456.851,155.59C457.146,155.474 458.97,141.227 459.409,137.979C460.783,127.802 465.523,97.449 465.916,88.935C466.032,86.436 467.808,70.91 467.605,69.969C467.392,68.981 459.941,68.579 457.646,68.696C457.44,68.707 455.772,69.712 454.544,70.991" style="fill:rgb(243,156,18);fill-rule:nonzero;stroke:black;stroke-width:1.88px;"/>
                    <path d="M520.385,169.739C521.273,169.831 523.605,167.84 523.689,167.69C523.774,167.539 525.381,152.323 525.783,148.76C527.042,137.596 531.529,104.39 531.827,95.058C531.914,92.318 533.398,75.58 533.184,74.551C533.061,73.959 530.881,73.842 528.558,73.696C526.642,73.576 524.631,73.37 523.594,73.439C523.388,73.452 521.943,74.197 520.729,75.611" style="fill:rgb(243,156,18);fill-rule:nonzero;stroke:black;stroke-width:1.88px;"/>
                    <path d="M454.093,71.528C453.955,72.327 449.977,103.099 449.428,109.329C448.775,116.738 443.554,153.231 444.007,153.882C444.567,154.686 447.609,155.199 448.383,155.491C448.852,155.667 453.106,156.951 453.312,156.579C453.683,155.91 455.995,135.88 456.087,134.979C456.945,126.6 465.609,72.481 464.068,71.974C463.212,71.693 461.033,71.656 458.886,71.471C456.511,71.267 454.191,70.954 454.093,71.528Z" style="fill:rgb(243,156,18);fill-rule:nonzero;stroke:black;stroke-width:1.88px;"/>
                    <path d="M520.283,76.203C520.155,77.081 516.088,110.741 515.609,117.573C515.04,125.698 509.983,166.84 510.444,167.548C511.013,168.423 520.188,170.222 520.39,169.812C520.752,169.075 522.914,146.691 522.996,145.703C523.759,136.514 531.81,77.129 530.263,76.59C529.404,76.29 527.225,76.272 525.076,76.092C522.699,75.893 520.375,75.573 520.283,76.203Z" style="fill:rgb(243,156,18);fill-rule:nonzero;stroke:black;stroke-width:1.88px;"/>
                    <path d="M434.535,122.245C434.944,123.137 435.939,124.543 436.599,124.796C437.259,125.048 488.744,133.692 494.612,134.481C499.147,135.092 545.615,142.203 546.225,141.352C547.081,140.159 548.747,119.291 547.879,118.851C547.012,118.41 546,117.932 544.663,117.267" style="fill:rgb(243,156,18);fill-rule:nonzero;stroke:black;stroke-width:1.88px;"/>
                    <path d="M437.062,92.207C437.501,93.085 440.643,94.893 441.312,95.123C441.98,95.353 491.812,102.042 497.703,102.631C502.257,103.086 548.758,108.367 549.339,107.497C550.153,106.275 550.649,90.047 550.225,84.952C550.097,83.417 548.077,82.923 546.718,82.304" style="fill:rgb(243,156,18);fill-rule:nonzero;stroke:black;stroke-width:1.88px;"/>
                    <path d="M546.898,82.4C544.907,80.409 501.442,78.879 484.82,77.435C474.57,76.544 438.516,74.55 438.516,74.673C438.516,77.36 436.838,91.888 437.006,92.113C437.812,93.187 464.067,95.214 472.537,96.587C494.155,100.093 544.45,105.515 546.164,104.657C547.42,104.03 546.898,82.4 546.898,82.4Z" style="fill:rgb(241,196,15);fill-rule:nonzero;stroke:black;stroke-width:1.88px;"/>
                    <path d="M545.431,117.622C543.509,115.565 499.332,111.119 482.769,109.108C472.555,107.869 438.762,102.357 437.186,103.795C435.61,105.232 434.35,121.727 434.511,121.957C435.28,123.059 479.246,129.543 486.967,130.586C509.062,133.569 541.455,138.998 543.198,138.2C544.474,137.616 545.431,117.622 545.431,117.622Z" style="fill:rgb(241,196,15);fill-rule:nonzero;stroke:black;stroke-width:1.88px;"/>
                    <path d="M455.076,72.233C455.076,72.932 454.844,70.853 454.761,70.158C454.704,69.678 454.677,69.195 454.636,68.713" style="fill:none;fill-rule:nonzero;stroke:black;stroke-opacity:0;stroke-width:1.88px;"/>
                    <path d="M458.155,72.547C458.155,71.378 457.96,70.199 457.59,69.09" style="fill:none;fill-rule:nonzero;stroke:black;stroke-opacity:0;stroke-width:1.88px;"/>
                    <path d="M454.447,67.707C456.088,68.528 458.196,67.554 459.727,67.016C465.299,65.055 467.136,55.601 461.361,52.936C454.755,49.887 447.143,57.433 450.173,64.25C450.874,65.828 453.034,67.001 454.447,67.707Z" style="fill:none;fill-rule:nonzero;stroke:black;stroke-opacity:0;stroke-width:1.88px;"/>
                    <path d="M530.339,80.488C530.229,80.269 530.377,80.982 530.46,81.213C530.912,82.474 531.418,83.715 531.91,84.961C532.247,85.814 532.712,86.564 533.119,87.378C535.493,92.125 537.639,96.899 539.768,101.763C544.746,113.142 549.265,124.69 554.153,136.094C554.727,137.435 558.741,146.868 558.384,147.941C558.136,148.685 554.844,148.459 554.274,149.029C554.138,149.164 552.794,145.663 552.581,144.919C551.695,141.818 550.514,138.971 549.076,136.094C545.721,129.384 541.832,122.698 538.921,115.786C535.634,107.979 533.37,99.122 529.613,91.609" style="fill:none;fill-rule:nonzero;stroke:black;stroke-opacity:0;stroke-width:1.88px;"/>
                    <path d="M465.787,74.927C465.053,77.128 467.372,79.289 468.204,81.455C469.543,84.942 470.757,88.476 472.072,91.972C473.963,96.997 476.442,101.921 478.842,106.72C482.807,114.649 485.93,123.063 489.601,131.138C491.304,134.885 493.155,138.525 494.557,142.38C494.618,142.549 495.847,145.06 495.403,145.282C494.709,145.628 492.817,144.919 492.018,144.919C491.755,144.919 488.151,145.163 488.029,144.798C486.235,139.415 483.497,133.74 481.622,128.116C479.952,123.106 476.683,118.602 474.007,114.094C469.487,106.481 466.444,98.364 462.523,90.521" style="fill:none;fill-rule:nonzero;stroke:black;stroke-opacity:0;stroke-width:1.88px;"/>
                    <path d="M547.081,89.735C545.057,90.992 542.387,90.625 540.009,90.763C535.342,91.034 530.662,91.027 525.987,91.126C507.831,91.509 489.347,90.037 471.226,88.95C465.066,88.58 458.858,88.355 452.731,87.62C451.951,87.526 447.52,86.545 446.808,87.257C446.068,87.997 446.916,92.883 447.17,94.027C447.451,95.291 447.208,98.83 448.379,99.708C449.104,100.252 453.105,100.072 454.061,100.192C458.959,100.804 463.894,100.92 468.809,101.28C488.601,102.728 508.695,103.577 528.525,103.577C534.47,103.577 540.365,103.813 546.295,104.06C548.353,104.146 550.404,104.423 552.46,104.423L555.603,104.423C555.603,104.423 554.158,102.324 553.428,101.28C551.964,99.189 550.023,96.878 549.076,94.51C548.445,92.934 548.857,90.901 547.383,89.796C547.154,89.624 547.216,89.652 547.081,89.735Z" style="fill:none;fill-rule:nonzero;stroke:black;stroke-opacity:0;stroke-width:1.88px;"/>
                    <path d="M555.241,117.901C554.784,117.12 552.47,118.097 550.768,118.204C548.613,118.338 546.399,118.204 544.24,118.204C536.2,118.204 528.207,117.722 520.184,117.357C502.818,116.568 485.437,115.024 468.083,113.973C464.084,113.73 460.09,113.391 456.116,113.126C455.626,113.094 452.489,112.523 452.006,113.006C451.564,113.447 454.581,118.779 454.907,119.292C456.144,121.236 456.955,124.603 458.533,126.182C460.183,127.831 469.421,127.63 471.831,127.753C483.56,128.355 495.384,128.162 507.129,128.358C519.507,128.564 531.866,129.285 544.24,129.567C548.019,129.653 551.828,129.516 555.603,129.688C556.814,129.743 558.381,130.078 559.593,129.808C560.539,129.598 563.629,128.863 563.098,127.27C562.514,125.517 559.602,123.493 558.384,122.072C557.333,120.846 556.07,119.321 555.241,117.901Z" style="fill:none;fill-rule:nonzero;stroke:black;stroke-opacity:0;stroke-width:1.88px;"/>
                </g>
                <path d="M546.266,104.682L549.596,107.842" style="fill:none;fill-rule:nonzero;stroke:black;stroke-width:1.88px;stroke-linecap:butt;"/>
                <path d="M543.541,138.285L546.231,140.891" style="fill:none;fill-rule:nonzero;stroke:black;stroke-width:1.88px;stroke-linecap:butt;"/>
                <path d="M464.243,72.078L467.393,70.64" style="fill:none;fill-rule:nonzero;stroke:black;stroke-width:1.88px;stroke-linecap:butt;"/>
                <path d="M530.439,76.701C530.439,76.701 532.671,75.034 532.855,74.798" style="fill:none;fill-rule:nonzero;stroke:black;stroke-width:1.88px;stroke-linecap:butt;"/>
                <path d="M459.482,69.672L459.162,63.286L463.064,63.617L464.724,63.757L464.159,69.935" style="fill:rgb(243,156,18);fill-rule:nonzero;stroke:black;stroke-width:1.88px;"/>
                <path d="M525.139,74.568L524.819,68.182L528.721,68.512L530.381,68.652L529.816,74.831" style="fill:rgb(243,156,18);fill-rule:nonzero;stroke:black;stroke-width:1.88px;"/>
            </g>
            <path d="M534.785,67.989C537.824,62.224 535.348,52.944 527.818,52.85C521.28,52.769 517.72,57.718 518.811,63.463C519.563,67.418 522.014,69.51 524.416,70.596C527.332,71.915 533.316,70.777 534.785,67.989Z" style="fill:rgb(243,156,18);fill-rule:nonzero;stroke:black;stroke-width:1.88px;"/>
            <path d="M532.158,65.82C534.137,62.066 532.525,56.022 527.62,55.961C523.363,55.908 521.044,59.131 521.755,62.872C522.245,65.448 523.841,66.81 525.405,67.518C527.304,68.377 531.201,67.635 532.158,65.82Z" style="fill:rgb(241,196,15);fill-rule:nonzero;"/>
            <path d="M454.993,51.268C451.955,57.033 454.43,66.314 461.961,66.407C468.499,66.488 472.059,61.539 470.967,55.794C470.215,51.839 467.765,49.748 465.363,48.661C462.446,47.342 456.462,48.481 454.993,51.268Z" style="fill:rgb(243,156,18);fill-rule:nonzero;stroke:black;stroke-width:1.88px;"/>
            <path d="M457.621,53.437C455.642,57.192 457.254,63.235 462.158,63.296C466.416,63.349 468.735,60.126 468.024,56.385C467.534,53.809 465.938,52.447 464.374,51.74C462.474,50.881 458.577,51.622 457.621,53.437Z" style="fill:rgb(241,196,15);fill-rule:nonzero;"/>
            <g>
                <path d="M460.548,81.245C456.298,79.472 453.904,88.975 458.613,90.544C462.266,91.762 463.503,82.477 460.548,81.245Z" style="fill:none;fill-rule:nonzero;stroke:black;stroke-width:1.88px;"/>
                <path d="M464.859,91.091C464.928,90.105 465.097,84.986 465.158,84.372C465.333,82.624 465.159,81.505 467.507,81.62C469.466,81.716 470.553,84.384 469.498,85.792C468.643,86.931 466.76,87.108 465.417,86.956" style="fill:none;fill-rule:nonzero;stroke:black;stroke-width:1.88px;"/>
                <path d="M476.946,82.79C476.946,82.79 473.218,82.009 472.77,82.907C472.23,83.985 471.628,89.974 472.109,91.176C472.524,92.214 476.417,92.18 476.417,91.8" style="fill:none;fill-rule:nonzero;stroke:black;stroke-width:1.88px;"/>
                <path d="M472.812,87.138C473.744,87.138 474.675,87.318 475.607,87.318" style="fill:none;fill-rule:nonzero;stroke:black;stroke-width:1.88px;"/>
                <path d="M479.636,92.501C479.652,91.297 479.929,85.13 480.117,84.144C480.304,83.159 482.751,82.563 484.119,83.893C486.412,86.123 483.649,88.087 480.064,88.344C479.987,88.35 484.058,90.201 484.471,92.889" style="fill:none;fill-rule:nonzero;stroke:black;stroke-width:1.88px;"/>
                <path d="M487.984,93.665C487.984,93.141 488.322,89.725 488.416,89.211C488.62,88.085 488.89,84.312 490.495,84.044C493.455,83.551 493.437,92.56 494.184,94.055" style="fill:none;fill-rule:nonzero;stroke:black;stroke-width:1.88px;"/>
                <path d="M489.186,89.548C489.558,89.548 491.899,89.947 492.668,89.947" style="fill:none;fill-rule:nonzero;stroke:black;stroke-width:1.88px;"/>
                <path d="M498.924,94.768C498.924,91.689 499.135,88.537 499.135,85.47" style="fill:none;fill-rule:nonzero;stroke:black;stroke-width:1.88px;"/>
                <path d="M496.688,84.588C498.285,84.543 500.09,84.947 501.788,84.947" style="fill:none;fill-rule:nonzero;stroke:black;stroke-width:1.88px;"/>
                <path d="M505.502,85.518C505.502,85.303 505.162,93.511 505.104,95.507" style="fill:none;fill-rule:nonzero;stroke:black;stroke-width:1.88px;"/>
                <path d="M513.978,90.222C513.847,87.142 512.652,86.309 511.936,86.19C508.674,85.646 507.969,94.292 510.31,96.048C512.922,98.007 514.072,92.434 513.978,90.222Z" style="fill:none;fill-rule:nonzero;stroke:black;stroke-width:1.88px;"/>
                <path d="M517.48,96.859C517.48,98.93 517.166,87.143 517.662,86.786C518.928,85.873 523.731,103.403 524.078,96.103C524.112,95.387 524.144,88.195 524.144,87.035" style="fill:none;fill-rule:nonzero;stroke:black;stroke-width:1.88px;"/>
                <path d="M457.821,112.184C455.213,107.099 450.063,117.686 454.093,120.506C454.792,120.995 456.371,120.91 457.031,120.395" style="fill:none;fill-rule:nonzero;stroke:black;stroke-width:1.88px;"/>
                <path d="M459.496,120.953C460.245,117.863 461.52,111.215 463.217,111.709C464.882,112.194 465.307,116.969 464.755,121.924" style="fill:none;fill-rule:nonzero;stroke:black;stroke-width:1.88px;"/>
                <path d="M461.266,117.128C462.148,117.11 463.498,117.695 464.373,117.591" style="fill:none;fill-rule:nonzero;stroke:black;stroke-width:1.88px;"/>
                <path d="M467.658,122.308C467.772,120.295 468.216,113.333 468.647,113.321C468.763,113.317 471.262,121.131 471.877,122.414C473.586,125.978 473.596,116.012 473.82,113.839" style="fill:none;fill-rule:nonzero;stroke:black;stroke-width:1.88px;"/>
                <path d="M481.031,116.779C480.798,113.96 476.989,112.257 476.073,118.546C475.298,123.868 478.765,125.989 480.764,122.375" style="fill:none;fill-rule:nonzero;stroke:black;stroke-width:1.88px;"/>
                <path d="M483.905,115.637C483.258,116.51 482.998,123.344 483.493,124.169C484.029,125.063 486.425,124.935 488.083,124.803" style="fill:none;fill-rule:nonzero;stroke:black;stroke-width:1.88px;"/>
                <path d="M483.945,115.638C485.073,115.38 487.266,115.827 488.354,115.979" style="fill:none;fill-rule:nonzero;stroke:black;stroke-width:1.88px;"/>
                <path d="M483.85,119.904C484.964,120.058 486.541,120.172 487.239,120.199" style="fill:none;fill-rule:nonzero;stroke:black;stroke-width:1.88px;"/>
                <path d="M491.327,116.341C491.309,115.621 490.071,124.103 490.699,125.28C491.238,126.292 494.36,126.115 494.893,126.234" style="fill:none;fill-rule:nonzero;stroke:black;stroke-width:1.88px;"/>
                <path d="M497.856,117.072C497.475,119.561 497.05,123.332 497.213,125.913C497.287,127.077 500.636,127.08 501.491,127.059" style="fill:none;fill-rule:nonzero;stroke:black;stroke-width:1.88px;"/>
                <path d="M504.691,118.199C504.503,119.134 503.646,126.651 504.074,127.23C504.816,128.231 508.124,128.152 508.647,128.241" style="fill:none;fill-rule:nonzero;stroke:black;stroke-width:1.88px;"/>
                <path d="M504.766,118.134C506.879,118.081 507.392,118.159 509.479,118.638" style="fill:none;fill-rule:nonzero;stroke:black;stroke-width:1.88px;"/>
                <path d="M504.674,122.618C505.634,122.851 506.443,123.034 507.77,123" style="fill:none;fill-rule:nonzero;stroke:black;stroke-width:1.88px;"/>
                <path d="M512.468,128.553C512.229,127 513.12,119.6 513.402,119.494C518.159,117.701 520.738,125.127 517.626,127.73C515.903,129.17 512.585,129.314 512.468,128.553Z" style="fill:none;fill-rule:nonzero;stroke:black;stroke-width:1.88px;"/>
            </g>
        </g>
        <g transform="matrix(4.16667,0,0,4.16667,335.245,-43.4012)">
            <path d="M334.58,147.627C332.88,149.061 333.486,165.686 334.184,168.555C334.539,170.016 335.604,169.971 337.063,169.272C337.848,168.895 340.056,151.524 338.562,147.556C337.944,145.916 336.129,146.32 334.58,147.627Z" style="fill:rgb(243,156,18);fill-rule:nonzero;stroke:black;stroke-width:1.88px;"/>
            <path d="M336.61,175C334.908,171.307 331.887,179.088 334.425,179.24C338.558,179.488 337.338,176.58 336.61,175Z" style="fill:rgb(243,156,18);fill-rule:nonzero;stroke:black;stroke-width:1.88px;"/>
        </g>
        <g transform="matrix(4.16667,0,0,4.16667,-402.193,304.663)">
            <path d="M334.58,147.627C332.88,149.061 333.486,165.686 334.184,168.555C334.539,170.016 335.604,169.971 337.063,169.272C337.848,168.895 340.056,151.524 338.562,147.556C337.944,145.916 336.129,146.32 334.58,147.627Z" style="fill:rgb(243,156,18);fill-rule:nonzero;stroke:black;stroke-width:1.88px;"/>
            <path d="M336.61,175C334.908,171.307 331.887,179.088 334.425,179.24C338.558,179.488 337.338,176.58 336.61,175Z" style="fill:rgb(243,156,18);fill-rule:nonzero;stroke:black;stroke-width:1.88px;"/>
        </g>
        <g transform="matrix(4.16667,0,0,4.16667,240.157,560.06)">
            <path d="M186.113,11.166C185.495,7.034 187.893,4.568 189.719,3.279C195.442,-0.761 202.136,3.494 202.916,7.507C204.226,14.245 199.612,15.967 199.394,19.616C199.319,20.873 199.822,23.27 199.983,24.255C200.142,25.235 197.231,26.088 196.515,25.316C195.799,24.544 194.475,20.191 194.942,17.661C195.41,15.13 198.742,11.834 198.34,9.71C197.857,7.156 195.463,5.552 193.224,6.778C190.985,8.003 190.577,12.646 189.985,12.811C189.502,12.945 186.21,11.814 186.113,11.166Z" style="fill:rgb(243,156,18);fill-rule:nonzero;stroke:black;stroke-width:1.88px;"/>
            <path d="M200.676,29.718C198.028,28.456 196.242,35.233 200.687,35.18C203.898,35.142 202.577,30.624 200.676,29.718Z" style="fill:rgb(243,156,18);fill-rule:nonzero;stroke:black;stroke-width:1.88px;"/>
        </g>
        <g transform="matrix(3.69267,1.9301,-1.9301,3.69267,1094.62,543.953)">
            <path d="M186.113,11.166C185.495,7.034 187.893,4.568 189.719,3.279C195.442,-0.761 202.136,3.494 202.916,7.507C204.226,14.245 199.612,15.967 199.394,19.616C199.319,20.873 199.822,23.27 199.983,24.255C200.142,25.235 197.231,26.088 196.515,25.316C195.799,24.544 194.475,20.191 194.942,17.661C195.41,15.13 198.742,11.834 198.34,9.71C197.857,7.156 195.463,5.552 193.224,6.778C190.985,8.003 190.577,12.646 189.985,12.811C189.502,12.945 186.21,11.814 186.113,11.166Z" style="fill:rgb(243,156,18);fill-rule:nonzero;stroke:black;stroke-width:1.88px;"/>
            <path d="M200.676,29.718C198.028,28.456 196.242,35.233 200.687,35.18C203.898,35.142 202.577,30.624 200.676,29.718Z" style="fill:rgb(243,156,18);fill-rule:nonzero;stroke:black;stroke-width:1.88px;"/>
        </g>
    </g>
</svg>
