<svg clip-rule="evenodd" stroke-linecap="round" stroke-linejoin="round" stroke-miterlimit="10" viewBox="0 0 292 654" xmlns="http://www.w3.org/2000/svg" xmlns:xlink="http://www.w3.org/1999/xlink"><clipPath id="a"><path clip-rule="evenodd" d="m0 0h292v654h-292z"/></clipPath><g clip-path="url(#a)"><path d="m64.054 159.187c0 8.93 3.1488 45.136-3.0907 51.375-4.0617 4.062-18.7565 13.169-22.6191 15.487-11.8534 7.112-25.1346 18.964-29.01438 32.543-6.41278 22.445-3.69673 190.687-3.69673 251.512 0 19.966-3.59445 88.448.39209 98.414 10.92892 27.322 71.39072 42.162 137.95382 39.669 76.392-2.86 126.855-14.414 136.788-43.066 10.16-29.302 6.026-162.95 6.878-200.281.3-13.123.923-121.89-5.983-146.063-7.272-25.451-36.937-32.246-51.064-51.081-3.062-4.083-1.928-42.86-2.377-52.554" fill="#fff" stroke="#000" stroke-linecap="round" stroke-linejoin="round" stroke-width="5.3493"/><path d="m283.801 583.273c-10.691 8.726-54.571 23.949-71.845 25.183-36.958 2.639-75.333 5.622-112.2823 1.517-11.5479-1.283-62.2007-4.904-75.8006-20.619-7.5916-8.771-4.9908-68.838-5.2727-83.568-.2366-12.363-1.3208-54.987-2.3497-96.243-1.0107-40.526-2.0198-79.752 3.5589-85.444 9.9994-10.201 26.5546-2.623 33.629-1.444 18.959 3.159 25.9217 5.73 48.5874 7.345 43.514 3.1 92.621 3.206 135.171-6.613 16.838-3.886 34.473-7.527 48.501-16.879" fill="#ff676e" stroke="#000" stroke-linecap="round" stroke-linejoin="round" stroke-width="3.3493"/><path d="m35.4521 479.358c-.2171 1.699-2.4224 30.144 1.5651 42.594 1.9393 6.055 8.4962 8.18 21.698 10.588 16.9813 3.098 23.4772 3.225 39.3443 5.491 9.6985 1.386 33.9255 5.088 37.1575 1.432 4.729-5.348 4.68-18.31 4.68-24.984 0-8.449.75-19.857-3.294-27.541-2.885-5.481-10.635-7.456-16.417-8.586-18.722-3.659-36.7532-6.038-54.436-7.783-9.3945-.927-28.3592-6.385-30.2979 8.789z" fill="#fff"/><g stroke="#000" stroke-linecap="round" stroke-linejoin="round"><g stroke-width="5.3493"><path d="m-155.514 164.676c0-8.638-2.188-13.293-9.803-17.644" fill="none"/><path d="m33.9264 78.95c-1.0506-2.1011-1.2124 48.31.0837 54.79 3.5768 17.884 27.486 28.585 91.1239 27.746 27.238-.359 107.554 3.004 130.47-20.778 7.669-7.96 4.135-39.345 4.135-63.3159" fill="#c8c8c8"/><path d="m28.1635 30.4224c-3.7988 4.4319-4.4605 35.7892.6703 42.6303 3.3293 4.439 23.6001 18.1983 82.3582 21.0294 28.429 1.3698 112.042.7175 145.473-15.7236 3.407-1.6752 7.139-4.5361 9.563-7.5656 3.748-4.6859 3.002-26.9014 3.087-32.5791.144-9.5788-43.179-28.31194-146.185-26.9279-5.228.0703-83.2224 5.435-94.9665 19.1365z" fill="#ff2739"/></g><g fill="none"><path d="m28.0271 32.3612c1.4505 10.5699 58.792 26.0794 126.6029 24.3676 102.831-2.5959 110.418-22.1176 113.131-23.1437" stroke-width="5.3493"/><g stroke-width="3.92676"><path d="m29.11 427.578c0-1.285-.1243 2.568-.1243 3.854v10.442c0 .57-.5715 5.369.3729 3.481"/><path d="m29.1579 427.899c.576-1.152 6.4788-4.862 7.5116-1.441 1.0983 3.638-5.8191 12.059-5.8191 12.059s6.8195-2.499 7.5829.249c1.3805 4.97-1.5102 9.239-8.6696 7.58"/><path d="m45.3912 430.895c0-.855-.529 19.078-.529 17.576"/><path d="m46.5047 432.424c.7259-1.451 5.9854-8.309 6.7117-2.982.5658 4.149-2.7763 8.99-5.5931 11.807"/><path d="m47.8245 442.393c3.1672 1.584 5.0165 4.125 7.0819 6.879"/><path d="m62.476 433.046c-4.0583 2.609-4.9626 16.217.3794 18.146 5.6459 2.038 8.3105-23.734-.3794-18.146z"/><path d="m73.8484 450.819c0-4.408-.2544-15.183 1.9034-17.18 1.4625-1.353 4.1749 11.551 4.5796 10.742.5403-1.081 4.3931-9.802 6.1946-8.601.9364.625.9633 15.94.9633 17.842"/><path d="m94.8137 437.152c.5621 0 .4562 19.603.164 18.142"/><path d="m101.913 438.481c0-2.442.586 12.641-.099 16.067"/><path d="m101.988 438.077c5.987.965 7.499 4.422 7.922 6.973 1.212 7.296-.902 12.059-7.952 10.922"/><path d="m115.724 438.441c-.101 3.336-.804 12.44-.023 15.719 1.009 4.236 6.706 3.497 8.991 1.974"/><path d="m116.076 438c2.367-.789 4.927-.696 7.24-.107"/><path d="m117.075 446.774c.463.232 4.766.466 5.894.032"/></g></g></g><path d="m148.375 438.562c-1.08-.101-2.023.671-2.125 1.75-.633 6.715-.185 13.463-.656 20.188-.076 1.082.731 2.018 1.812 2.094 1.082.075 2.018-.731 2.094-1.813.469-6.692.025-13.413.656-20.093.102-1.08-.701-2.024-1.781-2.126z"/><path d="m153.656 435.344c-2.71-.478-5.729 1.237-7 3.687-.494.965-.121 2.162.844 2.657.965.494 2.162.121 2.656-.844-1.139 4.609-1.462 6.011-1.125 4.594.39-1.641.833-3.25 1.281-4.876.051-.181.277-.405.407-.531.286-.277.627-.516 1-.656 2.061-.775 2.539.968 2.125 2.75-.49 2.108-2.133 3.812-3.594 5.313-.497.51-.984 1.008-1.469 1.531-.112.121-.235.25-.343.375-.108.124-.337.537-.313.375.215-1.441-.008.013-.25.343-.638.877-.439 2.082.437 2.719.877.638 2.113.471 2.75-.406.819-1.137 1.929-2.066 2.876-3.094 2.206-2.396 4.224-5.365 3.937-8.781-.067-.803-.26-1.638-.594-2.375-.26-.574-.632-1.101-1.093-1.531-.757-.707-1.628-1.091-2.532-1.25z"/><path d="m167.469 437.594c-3.011-.667-5.198 1.731-6.281 4.25-1.589 3.69-1.906 8.23-1.032 12.125.407 1.81 1.188 3.702 2.782 4.781.555.376 1.142.699 1.781.906 3.518 1.143 6.099-1.37 7.343-4.406 1.358-3.311.162-1.12-1.75-13.969.456-.779.255-1.69-.374-2.312-.012-.085-.021-.102-.032-.188-.036-.029-.087-.005-.125-.031-.02-.015-.01-.048-.031-.062-2.285-1.083-1.402-.899-2.281-1.094zm-1.813 4.344c.179-.211.191-.007 1.813 0 1.654 3.479 1.463 2.352 1.687 3.624.427 2.423.302 5.024-.437 7.376-.511 1.623-1.693 4.199-3.688 2.468-.839-.728-1.071-2.18-1.219-3.187-.365-2.501-.156-5.17.563-7.594.278-.937.64-1.932 1.281-2.687z"/><path d="m193.688 435.875c-1.041.304-1.648 1.396-1.344 2.437 1.242 4.241 1.201 8.788.781 13.157-.092.96-.205 3.381-1.406 3.812-.651.234-1.205-1.251-1.313-1.593-.103-.329-.194-.668-.281-1-.093-.358-.173-.702-.25-1.063-.109-.514-.244-1.201-.344-1.75-.104-.577-.2-1.143-.312-1.719-.334-1.706-.973-4.76-3.281-4.594-.158.012-.265.043-.344.063-.001-.001-.029 0-.032 0-.017.005-.093.031-.093.031.002.01-.003.022 0 .032-.155.054-.476.172-.5.187-.31.193-.666.544-.781.906-.382 1.193-.101 2.23-.032 3.438.081 1.414-.016 2.913-.156 4.312-.089.884-.265 1.835-.625 2.688-1.188-.95-1.677-2.676-1.969-4.094-.67-3.26-.627-6.663-.406-9.969.072-1.082-.731-2.021-1.812-2.094-1.082-.072-2.022.762-2.094 1.844-.309 4.617-.412 10.155 1.531 14.438.87 1.917 2.537 4.009 4.813 4.156 2.094.135 3.202-1.404 3.812-3.25.801 1.575 2.025 2.808 4.062 2.969.346.027.721-.001 1.063-.063 4.654-.833 4.754-7.134 4.875-10.75.016-.484.028-.953.031-1.437.006-.928-.012-2.011-.062-2.938-.053-.984-.119-1.929-.25-2.906-.18-1.342-.467-2.608-.844-3.906-.304-1.041-1.397-1.648-2.437-1.344z"/><path d="m200.844 437.625c-1.08.101-1.882 1.077-1.782 2.156.469 4.997.159 10.024.469 15.031.067 1.083 1.012 1.911 2.094 1.844s1.879-1.011 1.813-2.094c-.313-5.049.001-10.116-.469-15.156-.101-1.079-1.046-1.882-2.125-1.781z"/><path d="m203.375 434.938c-.7.008-1.443.203-2.187.624-.643.364-1.124.845-1.626 1.376-.741.791-.728 2.039.063 2.781.791.741 2.04.697 2.781-.094.247-.266.551-.669.938-.75.397-.083.835.376 1.062.625.707.773 1.201 1.777 1.563 2.75.881 2.369 1.267 5.185.593 7.656-.336 1.233-1.061 2.438-2.312 2.906-.631.237-1.24.245-1.906.25-1.085.012-1.981.916-1.969 2 .012 1.085.916 1.95 2 1.938 1.127-.015 2.217-.128 3.281-.531 6.038-2.286 5.842-10.569 3.969-15.594-.318-.852-.683-1.691-1.156-2.469-1.159-1.905-2.993-3.495-5.094-3.468z"/><path d="m212.812 436.594c-1.082.057-1.901.979-1.843 2.062.214 4.015-.107 8.088.843 12.032.914 3.789 3.681 6.033 7.594 5.75 1.17-.085 2.292-.371 3.406-.719 1.035-.324 1.606-1.434 1.282-2.469s-1.434-1.605-2.469-1.281c-1.253.393-2.721.845-4.031.437-1.684-.524-2.094-2.829-2.313-4.281-.48-3.194-.235-6.471-.406-9.687-.058-1.083-.98-1.902-2.063-1.844z"/><path d="m219.344 434.531c.448-.314-1.114.021-1.656.094-1.142.154-2.236.579-3.344.875-.187.05-.374.082-.563.125-.175.04-.709.145-.531.125 1.169-.132.02-.011-.562.062-1.076.139-1.858 1.113-1.719 2.188s1.143 1.858 2.219 1.719c.716-.109.217-.015.718-.094.095-.013.186-.05.282-.063.182-.034.312-.058.468-.093.237-.053.453-.126.688-.188.962-.255 1.92-.593 2.906-.75.288-.046 1.145-.174.875-.062-.787.325.011-.006 1.063.187 1.068.183 2.067-.556 2.25-1.625.182-1.069-.525-2.067-1.594-2.25-4.084.517-5.248.729-4.094.5.878-.174 1.86-.236 2.594-.75z"/><path d="m218.844 441.75c-2.396.557-3.07.728-2.406.562.478-.119.945-.28 1.437-.312.31-.02-.578.19-.875.281-.613.188-1.211.358-1.844.469-.113.02-.23.049-.344.062-.112.014-.452.066-.343.032.652-.205-.02.02-.438.031-1.084.032-1.906.916-1.875 2 .032 1.084.916 1.938 2 1.906 2.835-.62 3.494-.777 2.844-.625-.771.18-1.559.384-2.312.625-.184.059.402-.039.593-.062.182-.022.352-.063.531-.094.795-.138 1.575-.358 2.344-.594.272-.083 1.094-.285.813-.25-.663.082.004-.022.875-.25 1.049-.274 1.68-1.326 1.406-2.375s-1.357-1.68-2.406-1.406z"/><path d="m231.75 432.5c-1.906.163-3.01 1.457-3.75 3.062-.263-.16-.484-.385-.812-.406-1.083-.068-2.026.731-2.094 1.813-.11 1.751-.005 3.531.062 5.281.091 2.356.218 4.71.375 7.062.057.848.102 1.717.188 2.563.083.823.172 1.641.843 2.187.356.29.822.44 1.282.438.174-.001.408-.023.406-.031.201-.08.405-.146.594-.25.302-.168.588-.496.75-.813.535-1.049.624-2.216.687-3.375.028-.507.018-1.021.031-1.531.795.136 1.665.27 2.219.375.337.064.665.147 1 .219.415.088.824.126 1.219.281 1.352.531 2.259 1.827 3.406 2.656.886.626 2.093.417 2.719-.469.626-.885.417-2.092-.469-2.718-.399-.259-.742-.682-1.094-1-.595-.538-1.192-1.044-1.874-1.469-.97-.605-2.037-.895-3.126-1.125 1.598-1.791 2.474-4.396 2.626-6.656.169-2.53-.712-5.097-3.313-5.875-.598-.179-1.251-.273-1.875-.219zm.531 3.938c1.338.254.682 2.854.375 3.812-.348 1.087-.94 2.39-1.968 3-.044.026-.111.01-.157.031.07-1.434.121-2.873.407-4.281.055-.275.113-.573.187-.844.106-.386.455-1.852 1.156-1.718z"/><path d="m53.2188 479.75c-.4298.048-.8363.236-1.2188.438-1.005.53-1.682 2.062-2.1562 3-.9704 1.917-1.7831 3.909-2.7188 5.843-.5135 1.062-1.0353 2.141-1.7812 3.063-.805 1.005-.6307 2.476.375 3.281 1.0056.805 2.4762.662 3.2812-.344 1.0322-1.298 1.7912-2.792 2.5-4.312.0055 2.135.0174 4.271 0 6.406-.0328 4.028-.0906 8.067-.2188 12.094-.0429 1.35-.0704 2.683-.1562 4.031-.0219.344-.0595.688-.0938 1.031-.0052.053-.0254.104-.0312.157-.1231.378-.3082.739-.2188 1.156.1328.618.3619 1.179.875 1.594.1101.088.2236.175.3438.25.0585.036.1312.082.1875.093-.0038.009.0038.023 0 .031-.0003.001.0542-.003.0625 0 .0472.022.1711.089.3125.126.3582.092.7321.109 1.0937.031.9882-.213 1.4743-.87 1.8126-1.719.2278-.572.2049-1.333.25-1.938.097-1.3.1418-2.603.1874-3.906.2523-7.196.3351-14.394.2813-21.594-.0065-.868-.016-1.725-.0313-2.593-.0217-1.238-.0242-2.517-.1562-3.75-.0317-.297-.0559-.84-.25-1.063-.3942-.453-.7891-.925-1.3125-1.218-.3577-.201-.811-.233-1.2187-.188z"/><path d="m49.1875 514.312c-1.2745-.186-2.4697.695-2.6563 1.969-.1865 1.275.6943 2.47 1.9688 2.657 4.7032.102 5.8028.11 4.7188.093-1.296-.02-2.611-.014-3.9063.031-.2861.011.5898.038.875.063.2786.024.5333.047.8125.063 1.3219.073 2.6461.067 3.9688.031.4934-.014 1.9912-.015 1.5-.063-1.079-.106-.0158-.007 1.4374-.031 1.288-.022 2.3342-1.087 2.3126-2.375-.0217-1.288-1.0871-2.303-2.375-2.281-4.3263-.078-5.5454-.077-4.3438-.063.9466.011 1.903-.011 2.8438.094.4948.055-1.0023.018-1.5.031-1.1942.033-2.3689.066-3.5626 0-.23-.012-.4579-.011-.6874-.031-.2263-.02-.9145-.086-.6876-.094 1.201-.04.0026.012-.7187-.094z"/><path d="m68.8125 482.906c-2.5958-.431-4.5973 1.4-5.7813 3.5-.3276.581-.6477 1.216-.7812 1.875-.5571 2.752-.6152 5.704-.6875 8.5-.1079 4.171-.0329 8.354.4687 12.5.3737 3.089.8993 6.757 2.8126 9.344.4175.565.9079 1.054 1.5 1.437.6516.423 1.3795.691 2.1562.75 4.2551.324 6.9096-4.44 7.9062-7.906 1.1539-4.012.0032-.742-3.2812-25 .1229-.492-.0049-.985-.2188-1.468-.0398-.091.021-.195-.0312-.282-.0181-.03-.0116-.064-.0312-.094-4.0293-3.172-2.2276-2.856-4.0313-3.156zm-.7187 4.594c.0513-.031.1493.135.8124 1.062.0057.01-.0057.022 0 .032 3.4934 10.444 2.9751 6.805 3.5 10.437.4227 2.925.5334 5.903.2188 8.844-.2232 2.087-.655 4.289-1.6562 6.156-.3404.635-.7438 1.236-1.3126 1.688-.1258.1-.8654.468-.75.469.007 0 .0056-.028 0-.032-.1195-.089-.2244-.191-.3124-.312-.1302-.18-.2414-.333-.3438-.532-.2966-.575-.5045-1.192-.6875-1.812-.6122-2.073-.8672-4.229-1.0625-6.375-.1547-1.7-.2426-3.418-.2812-5.125-.0266-1.171-.0469-2.267-.0313-3.438.0303-2.277.1333-4.543.3437-6.812.0737-.794.3461-1.772.3438-2.562.0192-.049.0177-.066.0312-.094.0657-.138.1124-.242.1876-.375.2446-.435.5601-.952 1-1.219z"/><path d="m88.8125 498.125c-2.4769.004-3.7927 2.337-4.4375 4.406-.8644 2.774-1.0988 5.768-1.2188 8.657-.0603 1.454-.1532 3.023.0938 4.468.226 1.268 1.4194 2.101 2.6875 1.875s2.1322-1.45 1.9063-2.719c-.2274-.978-.0722-2.446-.0313-3.437.0724-1.752.238-3.489.5313-5.219.1143-.674.3052-1.337.5-2 .1683.5.3304.992.4687 1.5.6051 2.225 1.0415 4.506 1.4063 6.782.0572.356.1268.816.1874 1.25-.0698.83-.0981 1.664.1563 2.374.0504.141.272.71.4375.844.3923.318.8338.59 1.25.875.1495.103.4894.097.6562.094.3845-.006.7878-.128 1.125-.313 1.2855-.702 1.2471-2.043 1.0938-3.343.1218-2.714 1.0357-5.727 2.125-8.125.4063-.895.8804-1.895 1.5938-2.594.7702 1.098.9092 3.02 1.0002 4.25.204 2.777-.027 5.653.437 8.406.219 1.27 1.418 2.125 2.688 1.906 1.269-.218 2.125-1.449 1.906-2.718-.263-1.474-.148-3.046-.187-4.532-.038-1.443-.093-2.875-.25-4.312-.35-3.183-1.535-8.021-5.688-7.844-.5596.024-1.0865.172-1.5938.406-.589.273-1.134.672-1.5937 1.126-1.0179 1.005-1.796 2.355-2.4687 3.781-.6974-2.636-1.7489-5.849-4.7813-5.844z"/><path d="m114.188 499.469c-.707.161-1.402.485-2.063 1.031-.49.405-.929.91-1.281 1.438-2.372 3.551-2.86 9.382-2.094 13.5.339 1.823 1.059 3.832 2.781 4.781 2.715 1.496 4.956-.57 6.5-2.813.006.7-.008 1.398 0 2.094.039 3.29.211 6.748-.593 9.969-.186.742-.453 1.464-.844 2.125-.123.207-.306.421-.5.594-1.514-.909-2.734-3.495-3.219-5.126-.37-1.233-1.672-1.932-2.906-1.562s-1.932 1.672-1.563 2.906c.208.691.454 1.373.75 2.032 1.463 3.254 4.938 8.306 9.125 5.968.56-.312 1.05-.736 1.469-1.218.606-.698 1.098-1.532 1.469-2.376 2.487-5.659.984-12.111 1.562-18.062.207-2.131.464-4.267.563-6.406.034-.754.151-1.715-.125-2.438-.289-.757-.646-1.387-1.469-1.687-.07-.026-.147-.043-.219-.063-.472-.805-.836-1.677-1.469-2.375-1.564-1.726-3.756-2.797-5.874-2.312zm.843 4.625c.258-.167.582-.059 1.094.375.173.146.316.268.469.437.301.334.568.717.812 1.094.208.32.354.665.532 1-.082.209-.17.433-.25.625-.659 1.561-1.304 3.109-2.063 4.625-.472.943-.981 1.889-1.594 2.75-.125.175-.267.335-.406.5-.243-.657-.38-1.399-.437-2.031-.199-2.202-.028-4.493.562-6.625.15-.541.36-1.052.594-1.563.263-.574.43-1.021.687-1.187z"/><path d="m43.1875 542.969c-1.0197-.02-2.0886.197-3.1563.719-.7239.353-1.4676.822-1.9687 1.468-.8003 1.033-.7193 2.863-.75 4.063-.068 2.657-.0212 5.313.0625 7.969.0411 1.305.0951 2.6.125 3.906.0088.383.0328.772.0312 1.156-.0004.114.0041.228 0 .344-.0014.042-.0421.165-.0312.125.0203-.075.1023-.116.125-.188-.1175.37-.2183.758-.0938 1.157.3232 1.035 1.4337 1.635 2.4688 1.312-.0701.02.1219-.062.1875-.094.1119-.054.2398-.119.3437-.187.2139-.14.3876-.322.5313-.531.4934-.721.3858-1.675.375-2.5-.0124-.949-.0321-1.896-.0625-2.844.9437.715 1.9168 1.391 2.7188 2.281.4473.497.8549 1.045 1.0624 1.687.0296.092.1774.235.0938.282-.8233.465-.0285-.016.0312.375.171 1.071 1.1793 1.796 2.25 1.625 1.0708-.171 1.8273-1.18 1.6563-2.25-.4034-2.459-1.843-4.23-3.7187-5.813-.2988-.252-.6238-.485-.9376-.719.4636-.27.9409-.528 1.375-.843 2.1609-1.571 3.7976-3.914 3.4063-6.688-.486-3.445-3.0658-5.754-6.125-5.812zm.5625 4c.9629.289 1.5551 1.411 1.6875 2.343.1588 1.118-.6556 2.032-1.4687 2.688-.8291.669-1.7858 1.157-2.7188 1.656-.0041-.219-.0285-.437-.0312-.656-.0184-1.466-.0534-2.942.0312-4.406.0283-.491.0639-.658.125-1.125.0013-.01-.0035-.02 0-.031.1273-.083.2388-.153.375-.219.6026-.294 1.3412-.448 2-.25zm-4.9375 14.25c.0033-.001.0034.03 0 .031-.3394.106-.5247.382-.75.625.1027-.124.0865-.299.25-.406.1021-.067.2026-.103.3125-.157.0607-.029.1243-.07.1875-.093z"/><path d="m56.75 545.344c-1.2036-.147-2.3981.014-3.5625.75-1.7179 1.085-2.3738 3.473-2.7813 5.312-.8333 3.761-.9664 7.976.0313 11.719.3573 1.34.8828 2.816 1.9687 3.75 1.8512 1.593 4.4115.728 6.5938.687 1.0841-.021 1.9273-.915 1.9062-2-.021-1.084-.9158-1.927-2-1.906-1.1007.022-2.1549.169-3.25.25-.0199.002-.6828.009-.6874 0-1.5675-3.053-1.4668-6.891-.9688-10.218.1612-1.078.3672-2.166.75-3.188.1332-.356.2004-.483.375-.812.0251-.048.0949-.177.125-.219.0319-.045.1712-.155.125-.125-.2311.149.3182-.113.4375-.125.2788-.029.539.008.8125.062.8376.167 1.6334.503 2.4375.781 1.0246.355 2.145-.194 2.5-1.218.355-1.025-.1941-2.145-1.2187-2.5-1.1804-.409-2.3902-.853-3.5938-1z"/><path d="m54.5312 555c-1.0788-.109-2.0473.671-2.1562 1.75s.6711 2.047 1.75 2.156c.4099.021.1727.02.4062.032.0359.001.0304-.002.0626 0 .0769.008.1451.023.2187.031.3647.039.7263.092 1.0937.093.1368.001.5395.032.4063 0-.242-.056.012.003.7187 0 1.0844-.003 1.9413-.884 1.9376-1.968-.0038-1.085-.8845-1.973-1.9688-1.969-1.2445-.062-1.562-.086-1.2188-.063.1785.013.3671-.008.5313.063.1151.05-.2496 0-.375 0-.2795-.001-.5662-.033-.8437-.063-.0547-.005-.1016-.025-.1563-.031-.0629-.006-.2507-.001-.1875 0 .3439.009-.0055-.01-.2188-.031z"/><path d="m66.4688 548.281c-1.7066.277-3.354 1.308-4.25 2.844-.7181 1.231-1.0929 2.676-1.375 4.063-.5955 2.926-.663 6.153.2187 9.031.86 2.807 2.9287 5.197 6.0625 5.156.9661-.013 1.8809-.265 2.7812-.594 1.0178-.374 1.5305-1.513 1.1563-2.531s-1.4823-1.53-2.5-1.156c-1.7951.665-2.816.38-3.5625-1.438-.1645-.4-.2808-.828-.375-1.25-.5712-2.556-.3482-5.417.4375-7.906.3709-1.175.7673-2.106 2.0625-2.344.348-.064.8314-.01 1.0625.282.6991.828 1.9212.917 2.75.218s.9492-1.921.25-2.75c-1.2211-1.418-3.0122-1.901-4.7187-1.625z"/><path d="m75.4062 550.062c-.4146-.001-.8077.24-1.1562.5-.0555-.014-.0686-.016-.125-.031-.0305.026-.034.066-.0625.094-.018.017-.0449.014-.0625.031-.1404.403-.1212.235-.25.594-.1128.244-.2741.453-.2812.719-2.5424 6.831-2.7736 5.281-2.8438 8.437-.0429 1.928.1282 3.884.75 5.719 1.0382 3.064 3.5672 5.389 6.9375 3.969.8102-.342 1.5595-.861 2.2187-1.438 3.2577-2.849 3.2906-9.044 2.5626-12.844-.2045-1.067-.5221-2.09-.9376-3.093-.8565-2.07-.5902-.835-5.1874-1.625-.0828-.143-.0661-.316-.1876-.438-.3822-.384-.8725-.592-1.375-.594zm2.2188 2.876c.9946.936 1.3387 2.257 1.5938 3.593.4279 2.242.4618 4.688-.125 6.907-.2072.782-.5153 1.702-1.1563 2.25-1.1269.961-1.8957 1.406-2.5625-.157-.0945-.221-.2034-.428-.2812-.656-.27-.79.015-.016 1.6874-11.406.6653-.447.7652-.606.8438-.531z"/><path d="m86.75 552.312c-1.0843-.009-1.9901.854-2 1.938-.0509 5.635-.4838 11.213-.0625 16.844.0809 1.081 1.0124 1.893 2.0937 1.812 1.0814-.081 1.8934-1.012 1.8126-2.094-.413-5.519.0433-11.007.0937-16.531.0098-1.084-.8532-1.959-1.9375-1.969z"/><path d="m97 552.062c-1.0843.001-1.9692.854-1.9688 1.938-3.2365-.062-4.3098-.167-3.25-.062 1.0988.108 2.2426.266 3.25.718.2276.102.0002.501 0 .75-.0003.566.003 1.186 0 1.75-.0125 2.458-.0649 4.92-.1874 7.375-.0449.899-.0581 1.793-.0626 2.688-.2827-.453-.5526-.909-.8124-1.375-1.3672-2.451-2.5455-4.987-3.6563-7.563-.3998-.927-.785-1.873-1.1563-2.812-.1446-.366-.3029-.724-.4374-1.094-.0855-.235-.1252-.344-.125-.344 1.0622-.076.0109-.024-.0313-.156-.3317-1.032-1.4364-1.582-2.4687-1.25-1.0324.332-1.613 1.436-1.2813 2.469.7367 2.288 1.7623 4.503 2.75 6.687 1.3133 2.904 2.7156 5.772 4.4687 8.438 1.0776 1.638 2.972 3.553 5.0313 2.125 1.82-1.263 1.627-3.661 1.625-5.594-.0015-1.419.1436-2.832.1875-4.25.0876-2.83.0949-5.669.0938-8.5-.0005-1.084-.8844-1.938-1.9688-1.938z"/><path d="m107.656 551.906c-3.364-.537-5.757 3.526-5.656 6.438.101 2.907 1.749 5.358 2.812 7.968.318.78.588 1.596.907 2.376.164.402.415.84.437 1.281-.003.017-.025.016-.031.031-.082.198-.195.378-.344.531-.377.388-.927.702-1.469.781-.058.009-.345.049-.374 0-.081-.132-.091-.186-.157-.374-.375-1.018-1.482-1.532-2.5-1.157-1.017.375-1.5621 1.483-1.187 2.5.308.814.709 1.544 1.406 2.094 2.877 2.271 7.719-.165 8.469-3.5.344-1.532-.3-2.961-.875-4.344-.382-.917-.711-1.844-1.125-2.75-.664-1.449-1.437-2.885-1.844-4.437-.322-1.229-.214-2.736 1-3.469.285.175.499.357.781.625.791.742 2.04.697 2.782-.094.741-.791.697-2.039-.094-2.781-.863-.802-1.734-1.526-2.938-1.719z"/><path d="m117.094 554.312c-1.085-.006-1.994.885-2 1.969-.032 5.762-.131 11.498.281 17.25.078 1.082 1.012 1.89 2.094 1.813 1.081-.078 1.921-1.012 1.843-2.094-.404-5.651-.312-11.308-.281-16.969.006-1.084-.853-1.962-1.937-1.969z"/><path d="m116.469 553.844c-.367.007-1.46.004-1.094.031.701.051.007.012-1.063.094-1.081.083-1.895 1.012-1.812 2.093.083 1.082 1.044 1.896 2.125 1.813 3.012-.041 3.657-.033 3-.031-.675.002-1.358.012-2.031-.032-.32-.02.648-.024.968-.031.635-.012 1.367-.008 2 0 .346.005 1.376-.023 1.032 0-.655.045-.011.024 1.031.031 1.084.008 1.992-.884 2-1.968.008-1.085-.884-1.961-1.969-1.969-1.038.015-.484-.007-1.031 0 .343-.021-.688-.027-1.031-.031-.676-.009-1.45-.014-2.125 0z"/><path d="m125.188 555.656c-1.067-.196-2.086.496-2.282 1.563-.852 4.64-.237 9.291-.344 13.969-.02.894-.105 1.762-.156 2.656-.061 1.082.761 2.032 1.844 2.094 1.083.061 2.032-.762 2.094-1.844.107-1.89.168-3.764.125-5.656-.08-3.52-.361-7.018.281-10.5.196-1.067-.496-2.086-1.562-2.282z"/><path d="m134.688 556.594c-1.081-.093-2.032.701-2.126 1.781-.441 5.13-.761 10.257-.812 15.406-.011 1.085.853 1.958 1.938 1.969 1.084.011 1.989-.853 2-1.938.049-5.05.347-10.062.781-15.093.093-1.081-.701-2.032-1.781-2.125z"/><path d="m137.938 554.469c-3.573.568-4.346.686-3.563.562.786-.124 1.581-.237 2.375-.187.395.025-.77.199-1.156.281-.738.157-1.593.297-2.344.375-.396.041-1.557.241-1.188.094.737-.293.006.002-1.25.031-1.084.026-1.963.916-1.937 2s.947 1.932 2.031 1.906c4.098-.652 5.018-.802 4.094-.656-.925.146-1.876.29-2.75.625-.437.167.94-.045 1.406-.094.887-.092 1.879-.251 2.75-.437.46-.098 1.844-.319 1.375-.344-.934-.05.01.021 1.313-.375 1.037-.316 1.628-1.432 1.312-2.469s-1.431-1.628-2.468-1.312z"/><path d="m151.031 555.562c-1.064.207-1.738 1.249-1.531 2.313-2.078.677-2.823.862-2.094.656.697-.196 1.433-.365 2.156-.343.14.004.044.268.063.406.024.174.043.356.063.531.102.94.16 1.899.187 2.844.069 2.465.003 5.052-.687 7.437-.19.654-.582 2.039-1.407 2.282-1.431.42-2.106-2.103-2.312-3-.054-.235-.115-.482-.157-.719-.391-2.238-.394-4.553-.218-6.813.035-.457.096-.92.156-1.375.018-.133-.058-.316.062-.375.682-.331.001-.012.032-.187.184-1.069-.557-2.097-1.625-2.281-1.069-.185-2.066.556-2.25 1.624-.566 3.29-.61 6.812-.031 10.094.31 1.762.843 3.624 2 5.032 2.226 2.708 6.114 2.619 8.156-.219 1.768-2.458 2.071-5.852 2.187-8.781.1-2.507.039-5.093-.437-7.563-.207-1.064-1.248-1.769-2.313-1.563z"/><path d="m161.375 556.156c-1.078-.113-2.043.672-2.156 1.75-.549 5.254-.228 10.549-.625 15.813-.082 1.081.731 2.012 1.812 2.093 1.082.082 2.012-.731 2.094-1.812.395-5.225.079-10.473.625-15.688.113-1.078-.672-2.043-1.75-2.156z"/><path d="m165.062 554.812c-1.213.112-.482.027-1.218.094.497-.058-1.001.058-1.5.094-1.3.094-2.578.185-3.875.312-.323.032-.648.081-.969.126-.095.013-.186.016-.281.031-.091.014-.373.069-.281.062 1.318-.105 0-.013-.219.031-1.062.219-1.75 1.251-1.531 2.313.218 1.062 1.25 1.749 2.312 1.531 3.947-.351 4.84-.422 3.938-.344-1.267.111-2.515.211-3.782.313-.054.004.103-.023.156-.031.142-.022.329-.046.469-.063.416-.05.833-.088 1.25-.125 1.04-.092 2.053-.143 3.094-.218.507-.037 2.037-.182 1.531-.126-.9.102.011.014 1.25-.093 1.081-.094 1.875-1.045 1.782-2.125-.094-1.081-1.045-1.875-2.126-1.782z"/><path d="m175.906 553.188c-2.667.361-6.024-.07-7.812 2.406-.765 1.058-.978 2.528-1.156 3.781-.212 1.482-.315 2.973-.344 4.469-.019.975-.022 1.963.031 2.937.169 3.086.627 8.018 4.313 8.875 1.075.25 2.195.212 3.281.063 1.139-.157 2.241-.46 3.312-.875 1.011-.393 1.518-1.521 1.125-2.532-.393-1.01-1.52-1.518-2.531-1.124-1.045.408-2.186.686-3.313.718-.407.012-.739-.072-1.124-.156-.031-.033-.047-.034-.063-.062-.067-.12-.162-.251-.219-.376-.138-.301-.228-.652-.312-.968-.255-.958-.385-1.952-.469-2.938-.17-1.995-.145-4.006.031-6 .103-1.166.202-2.389.594-3.5.116-.328 1.336-.49 1.625-.531 1.178-.166 2.384-.125 3.563-.281 1.074-.144 1.831-1.144 1.687-2.219s-1.144-1.831-2.219-1.687z"/><path d="m175.938 561.656c-2.724.634-3.038.707-2.719.625.303-.077 1.185-.358.875-.312-.632.092-1.247.242-1.844.469-.308.116-.004-.023-1.75.468-1.044.294-1.669 1.394-1.375 2.438s1.394 1.637 2.437 1.344c2.507-.587 2.79-.638 2.5-.563-.261.068-1.065.189-.812.094.528-.2 1.096-.332 1.656-.407.296-.039-.012-.012 1.656-.281 1.071-.174 1.799-1.179 1.626-2.25-.174-1.07-1.18-1.799-2.25-1.625z"/><path d="m196.094 554.125c-1.08-.099-2.026.701-2.125 1.781-.194 2.16-.005 4.371.062 6.532.124 3.987.325 7.978.344 11.968.005 1.085.884 1.943 1.969 1.938 1.084-.006 1.943-.885 1.937-1.969-.02-4.024-.188-8.04-.312-12.063-.062-1.994-.283-4.069-.094-6.062.099-1.08-.701-2.026-1.781-2.125z"/><path d="m200.844 553.094c-4.731.413-6.037.516-4.719.406 1.163-.097 2.311-.196 3.469-.344.495-.063-1.002.065-1.5.094-1.42.083-2.836.162-4.25.312-.286.031-.559.089-.844.126-.28.035-1.125.108-.844.093 1.321-.07-.009-.005-.781.125-1.069.181-1.775 1.212-1.594 2.282.181 1.069 1.181 1.774 2.25 1.593 4.524-.389 5.62-.464 4.531-.375-1.269.104-2.54.181-3.812.25-.247.014.505-.062.75-.094.498-.062 1.064-.11 1.562-.156 1.086-.098 2.194-.186 3.282-.25.498-.029 1.963-.127 1.468-.062-1.083.14.02-.016 1.282-.094 1.082-.067 1.91-.98 1.844-2.062-.067-1.083-1.012-1.911-2.094-1.844z"/><path d="m208.469 552.406c-2.724-.625-4.504 1.88-5.407 4.063-1.568 3.79-2.145 8.603-1.656 12.625.206 1.691.675 3.673 2.125 4.75.52.386 1.166.661 1.781.844 3.555 1.054 6.184-1.23 7.438-4.376 1.28-3.21.112-1.003-2.156-14.75.345-.742.2-1.544-.375-2.124-.011-.071-.021-.085-.031-.157-.027-.023-.066-.01-.094-.031-.032-.025-.029-.07-.063-.094-1.575-.757-.931-.605-1.562-.75zm-.813 3.906c1.877 3.734 1.642 2.461 1.938 3.813.562 2.567.535 5.406-.219 7.937-.291.977-.767 2.252-1.719 2.782-.387.215-.804.186-1.218.062-.332-.099-.306-.108-.563-.218-.015-.049-.094-.12-.125-.188-.03-.067-.037-.15-.062-.219-.109-.289-.19-.573-.25-.875-.143-.714-.193-1.461-.219-2.187-.106-2.945.281-6.064 1.312-8.844.211-.567.445-1.151.781-1.656.102-.153.212-.279.344-.407z"/><path d="m228 551.219c-1.083-.048-2.015.791-2.062 1.875-.232 5.252.203 10.469.25 15.718.009 1.085.884 1.979 1.968 1.969 1.085-.009 1.947-.915 1.938-2-.047-5.179-.449-10.318-.219-15.5.048-1.083-.792-2.014-1.875-2.062z"/><path d="m239.125 548.344c-.662-.035-1.355.136-2.125.531-.79.406-1.511.989-2.125 1.625-3.676 3.808-4.144 9.988-2.375 14.781.951 2.579.665 1 6.219 2.531.095.399.254.781.593 1.063.777.645 1.852.528 2.563-.156.029.01.033.02.063.031.017-.018.014-.044.031-.062.027-.029.068-.032.093-.063.297-.841.266-.717.469-1.25 1.128-2.953 1.263-2.597 1.469-4.25.44-3.528.433-7.378-.719-10.781-.706-2.089-2.169-3.897-4.156-4zm-.281 3.937c.156-.003.266.237.5.75.093.204.146.35.218.563.123.358.236.807.313 1.156.133.599.246 1.204.313 1.812.25 2.287-.034.081-1.157 9.5-.54.41-.51.555-.812.563-.697.019-1.532-1.51-1.75-1.969-.115-.241-.19-.499-.281-.75-.101-.273-.203-.532-.282-.812-.867-3.092-.656-6.98 1.5-9.532.201-.237.394-.448.625-.656.45-.404.656-.622.813-.625z"/><path d="m256.094 552.625c-1.19.102-2.173.93-2.844 2-.583-.474-1.238-.819-2.031-.781-.596.028-1.201.281-1.719.562-3.087 1.679-2.502 5.044-2.781 7.969-.102 1.08.701 2.023 1.781 2.125s2.054-.67 2.156-1.75c2.228-.636 1.693-.509 2.219-.656.111.107.208.258.375.344 1.236.633 2.52-.116 2.938-1.344.371-1.095.175-2.221.124-3.344-.017-.385.035-.631.188-.938.019.021.044.042.062.063.15.168.246.315.376.5.441.632.796 1.322 1.093 2.031.082.196.43.481.25.594-1.151.723-.015.025.125.531.294 1.044 1.394 1.638 2.438 1.344 1.043-.294 1.637-1.363 1.344-2.406-.643-2.254-1.913-5.114-4.063-6.344-.703-.402-1.39-.555-2.031-.5zm-4.969 5.5c.041.063.077.148.094.187.248.573.439 1.187.625 1.782.149.479.277 1.232.625 1.625.04.045.058.053.093.093-.62.065-1.228.25-1.843.188-.253-.026.024-.496.031-.75.026-.914-.071-1.885.156-2.781.041-.159.142-.237.219-.344z"/><path d="m264.812 543.344c-1.084.001-1.969.884-1.968 1.968.003 3.5.055 7.008.281 10.5.028.432.057.85.094 1.282.08.943.137 2.645 1.062 3.25 1.532 1.001 3.692.419 5.281-.156.865-.314 1.68-.701 2.438-1.219.893-.616 1.115-1.858.5-2.75-.615-.893-1.826-1.116-2.719-.5-.784.546-1.72.901-2.656 1.093-.001-.008.001-.022 0-.031-.089-1.057-.106-1.536-.156-2.625-.136-2.944-.185-5.896-.188-8.844-.001-1.084-.884-1.969-1.969-1.968z"/><g fill="none" stroke="#000" stroke-linecap="round" stroke-linejoin="round" stroke-width="6.3493"><path d="m26.6933 372.609c.2837 1.922 3.7146 16.064 5.1154 21.504.4771 1.853 3.1188 8.929 3.1188 8.929s2.3382-5.845 3.1429-7.857c1.839-4.597 7.3652-18.269 8.8669-19.961"/><path d="m86.562 384.67c-13.2501-16.131-15.5601 45.726 1.1225 25.416"/><path d="m94.7906 383.738c-.4123 2.951-1.5084 30.836 5.0031 33.616 9.7303 4.154 9.9923-26.593 9.5613-31.988"/><path d="m118.061 385.545c-.729 3.645-.297 11.999-.44 15.705-.1 2.61 1.021 13.833.595 13.691-1.161-.387-.408-20.159 1.687-26.146.557-1.592 4.895-5.286 7.617-3.925 4.547 2.274 1.771 8.783-.404 12.325-2.871 4.674-7.811 8.058-7.553 8.317 1.521 1.521 9.255-1.831 14.144 8.948"/><path d="m146.603 388.218c-7.651 3.151-9.383 32.043 3.978 29.074 5.752-1.278 4.696-20.553 3.844-23.279-.249-.796-1.288-8.485-7.822-5.795z"/><path d="m163.84 415.588c-.475 0 .109-29.482.912-28.84 1.285 1.028 8.645 14.219 11.74 19.403 1.341 2.246 5.341 7.992 6.71 8.676.02.01.581-6.5.562-13.411-.018-7.056-.617-14.536-.617-16.584"/><path d="m193.429 388.954c0-.853 0-3.413 0-2.56 0 10.324.93 20.72.93 30.95"/><path d="m202.76 385.037s-2.004 32.83 8.539 31.069c9.031-1.509 7.343-29.062 6.695-34.149"/><path d="m228.753 410.958c.04.06-2.164-30.967-1.264-31.082 2.282-.291 10.593 13.842 12.155 15.05.46.356 9.393-20.576 10.219-19.624 1.266 1.459 1.08 25.94 1.944 32.716"/><path d="m55.3809 378.661c-1.2928 2.585-2.0772 18.455-2.0772 23.088 0 1.418-.5042 5.56.9348 6.588 2.5443 1.817 8.4204 1.269 11.1784 1.665"/><path d="m56.039 378.167c-1.0187-.509 8.2935.153 12.3394.329"/><path d="m54.5419 393.546c2.97.515 8.8297.086 9.8879.086"/></g></g></svg>