<svg clip-rule="evenodd" fill-rule="evenodd" height="24" stroke-linecap="round" stroke-linejoin="round" width="24" xmlns="http://www.w3.org/2000/svg"><g stroke="#000"><path d="m14.915 15.234-4.805 4.805c-1.697 1.697-4.453 1.697-6.149 0-1.697-1.696-1.697-4.452 0-6.149l4.805-4.805z" fill="#f1c40f" stroke-width=".08"/><path d="m8.766 9.085 5.124-5.124c1.697-1.697 4.453-1.697 6.149 0 1.697 1.696 1.697 4.452 0 6.149l-5.124 5.124z" fill="#e74c3c" stroke-width=".08"/><g fill="none"><path d="m20.039 3.961c1.697 1.696 1.697 4.452 0 6.149l-9.929 9.929c-1.697 1.697-4.453 1.697-6.149 0-1.697-1.696-1.697-4.452 0-6.149l9.929-9.929c1.697-1.697 4.453-1.697 6.149 0z" stroke-width="1.7"/><path d="m8.766 9.085 6.149 6.149" stroke-miterlimit="1.5" stroke-width="1.39"/></g></g></svg>